<?xml version="1.0" encoding="UTF-8"?>
<svg id="_レイヤー_2" data-name="レイヤー 2" xmlns="http://www.w3.org/2000/svg" viewBox="0 0 145.5 35">
  <defs>
    <style>
      .cls-1 {
        fill: #e48022;
      }

      .cls-1, .cls-2, .cls-3 {
        stroke-width: 0px;
      }

      .cls-3 {
        fill: none;
      }
    </style>
  </defs>
  <g id="_レイヤー_1-2" data-name="レイヤー 1">
    <g>
      <rect class="cls-1" x="52.6251777" y="11.4845351" width="4.9802643" height="19.3265118"/>
      <path class="cls-1" d="m69.8678338,26.2751415c-.5317763,0-.967026-.4326471-.967026-.9644234v-13.8258003h-4.9037167v14.6109491c0,2.6010879,2.1094991,4.7155626,4.7118883,4.7155626h6.2130636v-4.5362881h-5.0542093Z"/>
      <path class="cls-1" d="m35.8598725,21.147523c0,.9908323.1404649,2.2387115,1.3620117,3.9706778l6.6256552,9.4099216,4.0120901-2.8281281-6.6495381-9.4362539c-.2307911-.3624529-.3838097-.6885458-.3838097-1.1162173,0-.4288963.1530187-.7562139.3838097-1.1161407l6.6495381-9.4362539-4.0120901-2.8269034-6.6256552,9.4061707c-1.2215468,1.7357171-1.3620117,2.9798455-1.3620117,3.9731273"/>
      <rect class="cls-1" x="17.2428806" y="11.4845351" width="4.981489" height="19.3265118"/>
      <path class="cls-1" d="m6.4645939,26.2751415c-.5317763,0-.9657247-.4326471-.9657247-.9644234v-13.8258003H.5938513v14.6109491c0,2.6010879,2.1094991,4.7155626,4.7118883,4.7155626h6.2130636v-4.5362881h-5.0542093Z"/>
      <path class="cls-1" d="m38.9870722,21.147523c0,.9908323-.1405414,2.2387115-1.3607869,3.9706778l-6.6282578,9.4099216-4.0107887-2.8281281,6.6495381-9.4362539c.2307911-.3624529.3812837-.6885458.3812837-1.1162173,0-.4288963-.1504926-.7562139-.3812837-1.1161407l-6.6495381-9.4362539,4.0107887-2.8269034,6.6282578,9.4061707c1.2202455,1.7357171,1.3607869,2.9798455,1.3607869,3.9731273"/>
      <g>
        <path class="cls-2" d="m82.8844367,4.4150572c0-.9344934-2.1252771-.7414507-2.1252771-2.1651114,0-.7080591.5985346-1.2499458,1.4494312-1.2499458.5792853,0,1.0040265.2200703,1.2229183.4260768l-.3990493.4956099c-.1931213-.1673508-.4634754-.3411443-.8702244-.3411443-.4698395,0-.7466362.2639115-.7466362.6243051,0,.9474572,2.1330554.7607785,2.1330554,2.1716325,0,.6771031-.5484079,1.2692736-1.5666553,1.2692736-.740115,0-1.230618-.2832393-1.4623164-.4969456l.3797214-.534187c.2394767.1995639.6063129.4569542,1.1533852.4569542.5484079,0,.8316473-.2896034.8316473-.6565181"/>
        <polygon class="cls-2" points="88.0913264 1.064819 86.5839117 4.0024156 86.5839117 5.5806204 85.9389432 5.5806204 85.9389432 4.0024156 84.4316071 1.064819 85.1666151 1.064819 86.2620953 3.3394548 86.2878657 3.3394548 87.3884529 1.064819 88.0913264 1.064819"/>
        <path class="cls-2" d="m91.1058415,4.4150572c0-.9344934-2.1252771-.7414507-2.1252771-2.1651114,0-.7080591.5985346-1.2499458,1.4494312-1.2499458.5792853,0,1.0040265.2200703,1.2229183.4260768l-.3990493.4956099c-.1931213-.1673508-.4634754-.3411443-.8702244-.3411443-.4698395,0-.7466362.2639115-.7466362.6243051,0,.9474572,2.1330554.7607785,2.1330554,2.1716325,0,.6771031-.5484079,1.2692736-1.5666553,1.2692736-.740115,0-1.230618-.2832393-1.4623164-.4969456l.3797214-.534187c.2394767.1995639.6063129.4569542,1.1533852.4569542.5484079,0,.8316473-.2896034.8316473-.6565181"/>
        <polygon class="cls-2" points="93.9293567 1.6248551 92.7437584 1.6248551 92.7437584 1.0648976 95.7585092 1.0648976 95.7585092 1.6248551 94.5806893 1.6248551 94.5806893 5.580699 93.9293567 5.580699 93.9293567 1.6248551"/>
        <polygon class="cls-2" points="96.9495287 5.5809347 96.9495287 1.0652118 99.4236499 1.0652118 99.4236499 1.6251693 97.5931616 1.6251693 97.5931616 3.0103315 99.1918729 3.0103315 99.1918729 3.570289 97.5931616 3.570289 97.5931616 5.0197201 99.5073253 5.0197201 99.5073253 5.5809347 96.9495287 5.5809347"/>
        <path class="cls-2" d="m103.0388209,4.0541922h.0321345l1.1662704-2.9889803h1.0118048v4.5157229h-.6320833V1.8310973h-.0321345c-.2574689.6256407-.9796703,2.5063342-1.2370606,3.131975h-.6243836l-1.230618-3.131975h-.0385771v3.7498374h-.6127555V1.0652118h1.0311326l1.1662704,2.9889803Z"/>
        <path class="cls-2" d="m111.896866,4.2728482c0,.6964309-.3990493,1.3078508-1.6039753,1.3078508h-1.4056685V1.0649761h1.4494312c.728644,0,1.3336212.2896034,1.3336212,1.1598278,0,.534187-.2703541.8946592-.6307477.9976624v.0270276c.4633968.057905.8573392.3797214.8573392,1.0233543m-1.6631374-2.6543572h-.7080591v1.3979688h.7144231c.5484079,0,.7929916-.238141.7929916-.7144231,0-.4647325-.2831608-.6835457-.7993556-.6835457m.9989195,2.6864917c0-.5663215-.4119345-.7272298-.8959948-.7272298h-.8109838v1.4494312h.8444539c.6050558,0,.8625247-.2510263.8625247-.7222014"/>
        <path class="cls-2" d="m115.2425472,1.0645047l1.4430671,4.5158014h-.6887312l-.3809785-1.2358035h-1.7197853l-.3874997,1.2358035h-.6629608l1.4301819-4.5158014h.9667065Zm-1.1726344,2.7187048h1.3721983l-.386164-1.2563099c-.0772328-.2767967-.2510263-.8367542-.289682-1.0118048h-.0256919c-.0322131.1686079-.2072636.7414507-.2780538.9924769l-.3926066,1.2756377Z"/>
        <polygon class="cls-2" points="118.2371845 1.6248551 117.0515863 1.6248551 117.0515863 1.0648976 120.0663371 1.0648976 120.0663371 1.6248551 118.8871815 1.6248551 118.8871815 5.580699 118.2371845 5.580699 118.2371845 1.6248551"/>
        <polygon class="cls-2" points="124.5816671 1.064819 124.5816671 5.5806204 123.9315916 5.5806204 123.9315916 3.5840384 121.9015394 3.5840384 121.9015394 5.5806204 121.2566494 5.5806204 121.2566494 1.064819 121.9015394 1.064819 121.9015394 3.0228239 123.9315916 3.0228239 123.9315916 1.064819 124.5816671 1.064819"/>
        <path class="cls-2" d="m127.4477664,1.0652118c.9525641,0,1.5189643.3732788,1.5189643,1.2885229,0,.7530788-.4634754,1.1650133-.9976624,1.2370606v.0257705c.1931213.0887824.3540295.2445837.5599575.6049772l.7929916,1.3593917h-.7801063l-.7980985-1.4494312c-.1415804-.2574689-.3230736-.3669148-.6191981-.3669148h-.2638329v1.8163459h-.6436329V1.0652118h1.230618Zm-.586985,2.1574116h.5213018c.5934277,0,.9216867-.2445051.9216867-.8109052,0-.5677358-.3347017-.786549-.9474572-.786549h-.4955313v1.5974542Z"/>
        <path class="cls-2" d="m132.0276011,5.6444966c-1.0890376,0-1.7519983-.6243051-1.7519983-2.298992,0-1.6554377.7208657-2.345426,1.8099033-2.345426,1.082595,0,1.758441.6320833,1.758441,2.3003277,0,1.6618803-.7208657,2.3440903-1.8163459,2.3440903m.0450983-.5664001c.6757674,0,1.1018442-.4182985,1.1018442-1.7325919,0-1.3271786-.4376264-1.7790259-1.1340573-1.7790259-.6577752,0-1.1019228.406749-1.1019228,1.727485,0,1.3336212.4441476,1.7841328,1.1341359,1.7841328"/>
        <path class="cls-2" d="m136.8378772,5.6444966c-1.0890376,0-1.7519983-.6243051-1.7519983-2.298992,0-1.6554377.7208657-2.345426,1.8099033-2.345426,1.082595,0,1.758441.6320833,1.758441,2.3003277,0,1.6618803-.7208657,2.3440903-1.8163459,2.3440903m.0450983-.5664001c.6757674,0,1.1018442-.4182985,1.1018442-1.7325919,0-1.3271786-.4376264-1.7790259-1.1340573-1.7790259-.6577752,0-1.1019228.406749-1.1019228,1.727485,0,1.3336212.4441476,1.7841328,1.1341359,1.7841328"/>
        <path class="cls-2" d="m142.2922576,4.0541922h.0321345l1.1662704-2.9889803h1.0118048v4.5157229h-.6320833V1.8310973h-.0321345c-.2574689.6256407-.9796703,2.5063342-1.2370606,3.131975h-.6243836l-1.230618-3.131975h-.0385771v3.7498374h-.6127555V1.0652118h1.0311326l1.1662704,2.9889803Z"/>
        <path class="cls-2" d="m110.1960158,34.3225385h-4.7885912l-1.6992003-6.2728282h-6.3642033l-1.6387026,6.2728282h-4.6342041l6.7349679-23.7603627h5.7476765l6.6422571,23.7603627Zm-7.1365314-9.7330622l-1.4211465-5.4077893c-.3707646-1.4829013-.7736637-3.3983221-1.0813379-4.8504246h-.0939679c-.3076741,1.4829799-.7093162,3.4292781-1.0503819,4.8195472l-1.4211465,5.4386667h5.0679807Z"/>
        <path class="cls-2" d="m132.350439,34.3219885h-5.1284784l-2.1317198-4.6032481c-.803284-1.6387026-1.3593917-2.9053049-1.9463767-4.3264514h-.0939679c-.4930172,1.4211465-1.0503819,2.7199619-1.7609551,4.3574074l-1.9450411,4.5722922h-5.0062258l6.1479829-12.0809238-5.9316839-11.6793604h5.0975224l2.1330554,4.6663386c.6166054,1.3593131,1.0800022,2.5642392,1.6361098,3.8926749h.0630905c.554772-1.4829799.956414-2.5642392,1.5446561-3.9236309l2.0081316-4.6353827h5.0358462l-6.086228,11.6484044,6.3642819,12.1118798Z"/>
      </g>
    </g>
    <rect class="cls-3" width="145.5" height="35"/>
  </g>
</svg>