<?xml version="1.0" encoding="UTF-8"?>
<svg id="_レイヤー_2" data-name="レイヤー 2" xmlns="http://www.w3.org/2000/svg" viewBox="0 0 145.5 35">
  <defs>
    <style>
      .cls-1 {
        fill: #e48022;
      }

      .cls-1, .cls-2 {
        stroke-width: 0px;
      }

      .cls-2 {
        fill: none;
      }
    </style>
  </defs>
  <g id="_レイヤー_1-2" data-name="レイヤー 1">
    <g>
      <rect class="cls-1" x="116.5576268" y="11.4845351" width="4.9802643" height="19.3265118"/>
      <path class="cls-1" d="m133.8002829,26.2751415c-.5317763,0-.967026-.4326471-.967026-.9644234v-13.8258003h-4.9037167v14.6109491c0,2.6010879,2.1094991,4.7155626,4.7118883,4.7155626h6.2130636v-4.5362881h-5.0542093Z"/>
      <path class="cls-1" d="m99.7923217,21.147523c0,.9908323.1404649,2.2387115,1.3620117,3.9706778l6.6256552,9.4099216,4.0120901-2.8281281-6.6495381-9.4362539c-.2307911-.3624529-.3838097-.6885458-.3838097-1.1162173,0-.4288963.1530187-.7562139.3838097-1.1161407l6.6495381-9.4362539-4.0120901-2.8269034-6.6256552,9.4061707c-1.2215468,1.7357171-1.3620117,2.9798455-1.3620117,3.9731273"/>
      <rect class="cls-1" x="81.1753298" y="11.4845351" width="4.981489" height="19.3265118"/>
      <path class="cls-1" d="m70.3970431,26.2751415c-.5317763,0-.9657247-.4326471-.9657247-.9644234v-13.8258003h-4.905018v14.6109491c0,2.6010879,2.1094991,4.7155626,4.7118883,4.7155626h6.2130636v-4.5362881h-5.0542093Z"/>
      <path class="cls-1" d="m102.9195213,21.147523c0,.9908323-.1405414,2.2387115-1.3607869,3.9706778l-6.6282578,9.4099216-4.0107887-2.8281281,6.6495381-9.4362539c.2307911-.3624529.3812837-.6885458.3812837-1.1162173,0-.4288963-.1504926-.7562139-.3812837-1.1161407l-6.6495381-9.4362539,4.0107887-2.8269034,6.6282578,9.4061707c1.2202455,1.7357171,1.3607869,2.9798455,1.3607869,3.9731273"/>
    </g>
    <rect class="cls-2" width="145.5" height="35"/>
  </g>
</svg>