<?xml version="1.0" encoding="UTF-8"?>
<svg id="_レイヤー_2" data-name="レイヤー 2" xmlns="http://www.w3.org/2000/svg" viewBox="0 0 145.5 35">
  <defs>
    <style>
      .cls-1 {
        fill: #e48022;
      }

      .cls-1, .cls-2, .cls-3 {
        stroke-width: 0px;
      }

      .cls-3 {
        fill: none;
      }
    </style>
  </defs>
  <g id="_レイヤー_1-2" data-name="レイヤー 1">
    <g>
      <rect class="cls-1" x="52.6251777" y="11.4845351" width="4.9802643" height="19.3265118"/>
      <path class="cls-1" d="m69.8678338,26.2751415c-.5317763,0-.967026-.4326471-.967026-.9644234v-13.8258003h-4.9037167v14.6109491c0,2.6010879,2.1094991,4.7155626,4.7118883,4.7155626h6.2130636v-4.5362881h-5.0542093Z"/>
      <path class="cls-1" d="m35.8598725,21.147523c0,.9908323.1404649,2.2387115,1.3620117,3.9706778l6.6256552,9.4099216,4.0120901-2.8281281-6.6495381-9.4362539c-.2307911-.3624529-.3838097-.6885458-.3838097-1.1162173,0-.4288963.1530187-.7562139.3838097-1.1161407l6.6495381-9.4362539-4.0120901-2.8269034-6.6256552,9.4061707c-1.2215468,1.7357171-1.3620117,2.9798455-1.3620117,3.9731273"/>
      <rect class="cls-1" x="17.2428806" y="11.4845351" width="4.981489" height="19.3265118"/>
      <path class="cls-1" d="m6.4645939,26.2751415c-.5317763,0-.9657247-.4326471-.9657247-.9644234v-13.8258003H.5938513v14.6109491c0,2.6010879,2.1094991,4.7155626,4.7118883,4.7155626h6.2130636v-4.5362881h-5.0542093Z"/>
      <path class="cls-1" d="m38.9870722,21.147523c0,.9908323-.1405414,2.2387115-1.3607869,3.9706778l-6.6282578,9.4099216-4.0107887-2.8281281,6.6495381-9.4362539c.2307911-.3624529.3812837-.6885458.3812837-1.1162173,0-.4288963-.1504926-.7562139-.3812837-1.1161407l-6.6495381-9.4362539,4.0107887-2.8269034,6.6282578,9.4061707c1.2202455,1.7357171,1.3607869,2.9798455,1.3607869,3.9731273"/>
    </g>
    <rect class="cls-3" width="145.5" height="35"/>
    <g>
      <path class="cls-2" d="m113.8476562,23.2744141h-11.3994141v6.0449219h12.6757812l-.5800781,5.1757812h-17.0556641V7.8974609h16.96875v5.1757812h-12.0087891v5.0253906h11.3994141v5.1757812Z"/>
      <path class="cls-2" d="m124.4667969,34.4951172l-8.3242188-26.5976562h5.4824219l3.5966797,12.65625c1.3339844,4.7988281,1.9140625,7.3671875,2.2626953,9.0673828h.0576172c.3193359-1.5488281.609375-2.6816406,2.5234375-9.5585938l3.4814453-12.1650391h5.3076172l-8.4697266,26.5976562h-5.9179688Z"/>
    </g>
  </g>
</svg>