<?xml version="1.0" encoding="UTF-8"?>
<svg id="_レイヤー_2" data-name="レイヤー 2" xmlns="http://www.w3.org/2000/svg" viewBox="0 0 145.5 35">
  <defs>
    <style>
      .cls-1 {
        fill: #e48022;
      }

      .cls-1, .cls-2, .cls-3, .cls-4 {
        stroke-width: 0px;
      }

      .cls-2 {
        stroke: #221815;
        stroke-linecap: square;
        stroke-miterlimit: 10;
      }

      .cls-4 {
        fill: none;
      }
    </style>
  </defs>
  <g id="_レイヤー_1-2" data-name="レイヤー 1">
    <g>
      <polygon class="cls-3" points="79.529597 4.9508901 79.9471642 5.142795 80.4802418 5.2193426 80.8225627 5.1804564 81.0897139 5.0262129 81.2790927 4.797948 81.3179789 4.5294955 81.2415078 4.1858732 80.9755814 3.9576083 80.5567128 3.7281185 80.1001829 3.5362137 79.7954468 3.2678377 79.5671818 2.9618004 79.4907108 2.581818 79.5671818 2.1215372 79.8330317 1.777915 80.2519768 1.5484252 80.7849778 1.4718776 81.1662615 1.5107638 81.4697728 1.5873114 81.6603763 1.6637825 81.5462438 2.0839523 81.2415078 1.9698198 80.7849778 1.8932722 80.4413556 1.9698198 80.1754292 2.0839523 80.062598 2.3134421 80.0237118 2.5040456 80.1001829 2.8489692 80.3661093 3.0784589 81.2790927 3.5362137 81.5838287 3.7657799 81.7745088 4.0717408 81.8509799 4.4919106 81.8120937 4.8368342 81.6214901 5.1804564 81.3556403 5.4476076 80.9366952 5.601851 80.4413556 5.6770973 80.0237118 5.6382111 79.6813143 5.56174 79.4141632 5.4087214 79.529597 4.9508901"/>
      <polygon class="cls-2" points="79.529597 4.9508901 79.9471642 5.142795 80.4802418 5.2193426 80.8225627 5.1804564 81.0897139 5.0262129 81.2790927 4.797948 81.3179789 4.5294955 81.2415078 4.1858732 80.9755814 3.9576083 80.5567128 3.7281185 80.1001829 3.5362137 79.7954468 3.2678377 79.5671818 2.9618004 79.4907108 2.581818 79.5671818 2.1215372 79.8330317 1.777915 80.2519768 1.5484252 80.7849778 1.4718776 81.1662615 1.5107638 81.4697728 1.5873114 81.6603763 1.6637825 81.5462438 2.0839523 81.2415078 1.9698198 80.7849778 1.8932722 80.4413556 1.9698198 80.1754292 2.0839523 80.062598 2.3134421 80.0237118 2.5040456 80.1001829 2.8489692 80.3661093 3.0784589 81.2790927 3.5362137 81.5838287 3.7657799 81.7745088 4.0717408 81.8509799 4.4919106 81.8120937 4.8368342 81.6214901 5.1804564 81.3556403 5.4476076 80.9366952 5.601851 80.4413556 5.6770973 80.0237118 5.6382111 79.6813143 5.56174 79.4141632 5.4087214 79.529597 4.9508901"/>
      <polygon class="cls-3" points="85.1984836 5.6013917 85.1984836 3.8807545 83.90414 1.5492673 84.5136886 1.5492673 85.0843511 2.6566816 85.2749546 3.0780762 85.5032196 3.4994708 85.6938232 3.0780762 85.9208634 2.6566816 86.4927506 1.5492673 87.0634131 1.5492673 85.7314846 3.8807545 85.7314846 5.6013917 85.1984836 5.6013917"/>
      <polygon class="cls-2" points="85.1984836 5.6013917 85.1984836 3.8807545 83.90414 1.5492673 84.5136886 1.5492673 85.0843511 2.6566816 85.2749546 3.0780762 85.5032196 3.4994708 85.6938232 3.0780762 85.9208634 2.6566816 86.4927506 1.5492673 87.0634131 1.5492673 85.7314846 3.8807545 85.7314846 5.6013917 85.1984836 5.6013917"/>
      <polygon class="cls-3" points="89.1183337 4.9508901 89.5372023 5.142795 90.0313171 5.2193426 90.3737146 5.1804564 90.6784506 5.0262129 90.8302446 4.797948 90.9067156 4.5294955 90.8302446 4.1858732 90.5643182 3.9576083 90.1454496 3.7281185 89.6876949 3.5362137 89.3465222 3.2678377 89.1571434 2.9618004 89.0794476 2.581818 89.1571434 2.1215372 89.4217685 1.777915 89.8407136 1.5484252 90.3737146 1.4718776 90.7549983 1.5107638 91.0585095 1.5873114 91.2491131 1.6637825 91.0973192 2.0839523 90.9443771 2.0074047 90.6784506 1.9309337 90.3360532 1.8932722 89.9937322 1.9698198 89.764166 2.0839523 89.6124486 2.3134421 89.5747872 2.5040456 89.6124486 2.7724216 89.764166 2.9618004 90.0313171 3.1550065 90.4126008 3.3067239 90.8302446 3.5362137 91.1349806 3.7657799 91.3243594 4.0717408 91.4008305 4.4919106 91.3632456 4.8368342 91.1738668 5.1804564 90.9067156 5.4476076 90.4878471 5.601851 89.9937322 5.6770973 89.6124486 5.6382111 89.2323897 5.56174 88.9665398 5.4087214 89.1183337 4.9508901"/>
      <polygon class="cls-2" points="89.1183337 4.9508901 89.5372023 5.142795 90.0313171 5.2193426 90.3737146 5.1804564 90.6784506 5.0262129 90.8302446 4.797948 90.9067156 4.5294955 90.8302446 4.1858732 90.5643182 3.9576083 90.1454496 3.7281185 89.6876949 3.5362137 89.3465222 3.2678377 89.1571434 2.9618004 89.0794476 2.581818 89.1571434 2.1215372 89.4217685 1.777915 89.8407136 1.5484252 90.3737146 1.4718776 90.7549983 1.5107638 91.0585095 1.5873114 91.2491131 1.6637825 91.0973192 2.0839523 90.9443771 2.0074047 90.6784506 1.9309337 90.3360532 1.8932722 89.9937322 1.9698198 89.764166 2.0839523 89.6124486 2.3134421 89.5747872 2.5040456 89.6124486 2.7724216 89.764166 2.9618004 90.0313171 3.1550065 90.4126008 3.3067239 90.8302446 3.5362137 91.1349806 3.7657799 91.3243594 4.0717408 91.4008305 4.4919106 91.3632456 4.8368342 91.1738668 5.1804564 90.9067156 5.4476076 90.4878471 5.601851 89.9937322 5.6770973 89.6124486 5.6382111 89.2323897 5.56174 88.9665398 5.4087214 89.1183337 4.9508901"/>
      <polygon class="cls-3" points="94.7116678 1.9695137 93.4562104 1.9695137 93.4562104 1.548119 96.4611635 1.548119 96.4611635 1.9695137 95.2446689 1.9695137 95.2446689 5.6016214 94.7116678 5.6016214 94.7116678 1.9695137"/>
      <polygon class="cls-2" points="94.7116678 1.9695137 93.4562104 1.9695137 93.4562104 1.548119 96.4611635 1.548119 96.4611635 1.9695137 95.2446689 1.9695137 95.2446689 5.6016214 94.7116678 5.6016214 94.7116678 1.9695137"/>
      <polygon class="cls-3" points="106.7731987 3.8040538 106.7355373 3.229717 106.6978759 2.6189436 106.6978759 2.0834165 106.4696874 2.8107719 106.1648748 3.6122254 105.442495 5.562429 105.0612113 5.562429 104.4140778 3.6511116 104.148228 2.8107719 103.9575479 2.0834165 103.919963 2.0834165 103.8810768 2.9236797 103.8447167 3.8417152 103.7293594 5.6013152 103.235168 5.6013152 103.5386793 1.5491142 104.1858128 1.5491142 104.8706078 3.4993177 105.1000975 4.2242236 105.2894763 4.8738832 105.4801564 4.2242236 105.7460063 3.4993177 106.4696874 1.5491142 107.116821 1.5491142 107.3826708 5.6013152 106.8496698 5.6013152 106.7731987 3.8040538"/>
      <polygon class="cls-2" points="106.7731987 3.8040538 106.7355373 3.229717 106.6978759 2.6189436 106.6978759 2.0834165 106.4696874 2.8107719 106.1648748 3.6122254 105.442495 5.562429 105.0612113 5.562429 104.4140778 3.6511116 104.148228 2.8107719 103.9575479 2.0834165 103.919963 2.0834165 103.8810768 2.9236797 103.8447167 3.8417152 103.7293594 5.6013152 103.235168 5.6013152 103.5386793 1.5491142 104.1858128 1.5491142 104.8706078 3.4993177 105.1000975 4.2242236 105.2894763 4.8738832 105.4801564 4.2242236 105.7460063 3.4993177 106.4696874 1.5491142 107.116821 1.5491142 107.3826708 5.6013152 106.8496698 5.6013152 106.7731987 3.8040538"/>
      <polygon class="cls-3" points="113.0523229 1.5485783 113.5853239 1.5485783 113.5853239 3.4988584 113.7370413 3.2680674 113.9277214 3.0774638 115.1442161 1.5485783 115.7926509 1.5485783 114.3465899 3.2680674 115.9054821 5.6007793 115.2972347 5.6007793 113.9653063 3.6129909 113.5853239 4.0719704 113.5853239 5.6007793 113.0523229 5.6007793 113.0523229 1.5485783"/>
      <polygon class="cls-2" points="113.0523229 1.5485783 113.5853239 1.5485783 113.5853239 3.4988584 113.7370413 3.2680674 113.9277214 3.0774638 115.1442161 1.5485783 115.7926509 1.5485783 114.3465899 3.2680674 115.9054821 5.6007793 115.2972347 5.6007793 113.9653063 3.6129909 113.5853239 4.0719704 113.5853239 5.6007793 113.0523229 5.6007793 113.0523229 1.5485783"/>
      <rect class="cls-3" x="118.1134214" y="1.5490376" width=".533001" height="4.052201"/>
      <rect class="cls-2" x="118.1134214" y="1.5490376" width=".533001" height="4.052201"/>
      <polygon class="cls-3" points="122.0701676 1.9695137 120.8523716 1.9695137 120.8523716 1.548119 123.8585495 1.548119 123.8585495 1.9695137 122.6031686 1.9695137 122.6031686 5.6016214 122.0701676 5.6016214 122.0701676 1.9695137"/>
      <polygon class="cls-2" points="122.0701676 1.9695137 120.8523716 1.9695137 120.8523716 1.548119 123.8585495 1.548119 123.8585495 1.9695137 122.6031686 1.9695137 122.6031686 5.6016214 122.0701676 5.6016214 122.0701676 1.9695137"/>
      <polygon class="cls-3" points="128.7287382 5.4854986 128.4628118 5.5620462 128.1204144 5.6385173 127.6638844 5.6774035 127.1308834 5.6009324 126.6367685 5.446689 126.2179 5.1418764 125.9130874 4.759368 125.7237086 4.2238409 125.6460128 3.6130675 125.7237086 3.0010693 125.9130874 2.4655422 126.2554849 2.0453723 126.67443 1.739335 127.1685448 1.5487314 127.7780169 1.4722604 128.1956607 1.5098452 128.5380581 1.5863928 128.7287382 1.6628639 128.6146058 2.0830338 128.2345469 1.9689013 127.7780169 1.9312398 127.2450159 2.0077875 126.8261473 2.1996158 126.4837498 2.5420133 126.2943711 3.0010693 126.2179 3.5741813 126.2943711 4.1473698 126.4837498 4.6063493 126.7884859 4.9512728 127.2450159 5.1418764 127.7780169 5.218424 128.2345469 5.1807626 128.6146058 5.064104 128.7287382 5.4854986"/>
      <polygon class="cls-2" points="128.7287382 5.4854986 128.4628118 5.5620462 128.1204144 5.6385173 127.6638844 5.6774035 127.1308834 5.6009324 126.6367685 5.446689 126.2179 5.1418764 125.9130874 4.759368 125.7237086 4.2238409 125.6460128 3.6130675 125.7237086 3.0010693 125.9130874 2.4655422 126.2554849 2.0453723 126.67443 1.739335 127.1685448 1.5487314 127.7780169 1.4722604 128.1956607 1.5098452 128.5380581 1.5863928 128.7287382 1.6628639 128.6146058 2.0830338 128.2345469 1.9689013 127.7780169 1.9312398 127.2450159 2.0077875 126.8261473 2.1996158 126.4837498 2.5420133 126.2943711 3.0010693 126.2179 3.5741813 126.2943711 4.1473698 126.4837498 4.6063493 126.7884859 4.9512728 127.2450159 5.1418764 127.7780169 5.218424 128.2345469 5.1807626 128.6146058 5.064104 128.7287382 5.4854986"/>
      <polygon class="cls-3" points="131.5833518 1.5485783 131.5833518 3.2304059 133.5235276 3.2304059 133.5235276 1.5485783 134.0565287 1.5485783 134.0565287 5.6007793 133.5235276 5.6007793 133.5235276 3.689462 131.5833518 3.689462 131.5833518 5.6007793 131.0502743 5.6007793 131.0502743 1.5485783 131.5833518 1.5485783"/>
      <polygon class="cls-2" points="131.5833518 1.5485783 131.5833518 3.2304059 133.5235276 3.2304059 133.5235276 1.5485783 134.0565287 1.5485783 134.0565287 5.6007793 133.5235276 5.6007793 133.5235276 3.689462 131.5833518 3.689462 131.5833518 5.6007793 131.0502743 5.6007793 131.0502743 1.5485783 131.5833518 1.5485783"/>
      <polygon class="cls-3" points="141.362386 5.6013917 141.362386 1.5492673 141.9329719 1.5492673 143.2260142 3.612302 143.6448827 4.2619616 143.9496953 4.9129225 143.9872802 4.9129225 143.9120339 4.1102442 143.9120339 1.5492673 144.4061487 1.5492673 144.4061487 5.6013917 143.8731477 5.6013917 142.5801054 3.5358309 142.1988983 2.8485864 141.8565008 2.1989268 141.8188394 2.1989268 141.8565008 2.9627189 141.8565008 5.6013917 141.362386 5.6013917"/>
      <polygon class="cls-2" points="141.362386 5.6013917 141.362386 1.5492673 141.9329719 1.5492673 143.2260142 3.612302 143.6448827 4.2619616 143.9496953 4.9129225 143.9872802 4.9129225 143.9120339 4.1102442 143.9120339 1.5492673 144.4061487 1.5492673 144.4061487 5.6013917 143.8731477 5.6013917 142.5801054 3.5358309 142.1988983 2.8485864 141.8565008 2.1989268 141.8188394 2.1989268 141.8565008 2.9627189 141.8565008 5.6013917 141.362386 5.6013917"/>
      <polygon class="cls-3" points="138.8128912 3.6893089 137.2526977 3.6893089 137.2526977 5.1805329 139.0034947 5.1805329 139.0034947 5.6019275 136.7196967 5.6019275 136.7196967 1.5485018 139.0034947 1.5485018 139.0034947 1.9698964 137.2526977 1.9698964 137.2526977 3.2679143 138.8128912 3.2679143 138.8128912 3.6893089"/>
      <polygon class="cls-2" points="138.8128912 3.6893089 137.2526977 3.6893089 137.2526977 5.1805329 139.0034947 5.1805329 139.0034947 5.6019275 136.7196967 5.6019275 136.7196967 1.5485018 139.0034947 1.5485018 139.0034947 1.9698964 137.2526977 1.9698964 137.2526977 3.2679143 138.8128912 3.2679143 138.8128912 3.6893089"/>
      <polygon class="cls-3" points="100.7622208 3.6893089 99.2020274 3.6893089 99.2020274 5.1805329 100.9528244 5.1805329 100.9528244 5.6019275 98.6690264 5.6019275 98.6690264 1.5485018 100.9528244 1.5485018 100.9528244 1.9698964 99.2020274 1.9698964 99.2020274 3.2679143 100.7622208 3.2679143 100.7622208 3.6893089"/>
      <polygon class="cls-2" points="100.7622208 3.6893089 99.2020274 3.6893089 99.2020274 5.1805329 100.9528244 5.1805329 100.9528244 5.6019275 98.6690264 5.6019275 98.6690264 1.5485018 100.9528244 1.5485018 100.9528244 1.9698964 99.2020274 1.9698964 99.2020274 3.2679143 100.7622208 3.2679143 100.7622208 3.6893089"/>
      <polygon class="cls-3" points="109.406207 33.7515468 96.4620056 33.7515468 96.4620056 10.6024004 108.9245694 10.6024004 108.9245694 14.3360102 100.9167705 14.3360102 100.9167705 19.9345496 108.4730916 19.9345496 108.4730916 23.5766084 100.9167705 23.5766084 100.9167705 30.0192383 109.406207 30.0192383 109.406207 33.7515468"/>
      <path class="cls-3" d="m126.0263013,14.9679108c-.812706-.4213946-2.2273825-.9932818-4.1236965-.9932818-2.3477918,0-3.4012401,1.2641838-3.4012401,2.5585274,0,1.6554952,1.1437744,2.4079583,3.9731273,3.7022253,3.7023019,1.6554952,5.3577205,3.7938528,5.3577205,6.83264,0,4.0346716-3.0400119,6.9844339-8.4278922,6.9844339-2.2875489,0-4.6064823-.6321302-5.6900903-1.294267l.8728724-3.7336864c1.2040174.7236811,3.1304146,1.2955684,4.9977937,1.2955684,2.4682012,0,3.7624683-1.1738576,3.7624683-2.8895959,0-1.6554952-1.1136912-2.6500018-3.6721421-3.7624683-3.4928676-1.5062274-5.6600071-3.6733669-5.6600071-6.6833721,0-3.7938528,2.9798455-6.7135319,7.9777157-6.7135319,2.1972227,0,3.8828011.5129456,4.9664091,1.0547496l-.9330389,3.6420589Z"/>
      <rect class="cls-1" x="52.6251777" y="11.4845351" width="4.9802643" height="19.3265118"/>
      <path class="cls-1" d="m69.8678338,26.2751415c-.5317763,0-.967026-.4326471-.967026-.9644234v-13.8258003h-4.9037167v14.6109491c0,2.6010879,2.1094991,4.7155626,4.7118883,4.7155626h6.2130636v-4.5362881h-5.0542093Z"/>
      <path class="cls-1" d="m35.8598725,21.147523c0,.9908323.1404649,2.2387115,1.3620117,3.9706778l6.6256552,9.4099216,4.0120901-2.8281281-6.6495381-9.4362539c-.2307911-.3624529-.3838097-.6885458-.3838097-1.1162173,0-.4288963.1530187-.7562139.3838097-1.1161407l6.6495381-9.4362539-4.0120901-2.8269034-6.6256552,9.4061707c-1.2215468,1.7357171-1.3620117,2.9798455-1.3620117,3.9731273"/>
      <rect class="cls-1" x="17.2428806" y="11.4845351" width="4.981489" height="19.3265118"/>
      <path class="cls-1" d="m6.4645939,26.2751415c-.5317763,0-.9657247-.4326471-.9657247-.9644234v-13.8258003H.5938513v14.6109491c0,2.6010879,2.1094991,4.7155626,4.7118883,4.7155626h6.2130636v-4.5362881h-5.0542093Z"/>
      <path class="cls-1" d="m38.9870722,21.147523c0,.9908323-.1405414,2.2387115-1.3607869,3.9706778l-6.6282578,9.4099216-4.0107887-2.8281281,6.6495381-9.4362539c.2307911-.3624529.3812837-.6885458.3812837-1.1162173,0-.4288963-.1504926-.7562139-.3812837-1.1161407l-6.6495381-9.4362539,4.0107887-2.8269034,6.6282578,9.4061707c1.2202455,1.7357171,1.3607869,2.9798455,1.3607869,3.9731273"/>
    </g>
    <rect class="cls-4" width="145.5" height="35"/>
  </g>
</svg>