<?xml version="1.0" encoding="utf-8"?>
<!-- Generator: Adobe Illustrator 28.0.0, SVG Export Plug-In . SVG Version: 6.00 Build 0)  -->
<svg version="1.1" id="_レイヤー_2" xmlns="http://www.w3.org/2000/svg" xmlns:xlink="http://www.w3.org/1999/xlink" x="0px"
	 y="0px" viewBox="0 0 145.5 35" style="enable-background:new 0 0 145.5 35;" xml:space="preserve">
<style type="text/css">
	.st0{fill:#E48022;}
	.st1{fill:none;}
</style>
<g id="_レイヤー_1-2">
	<g>
		<polygon points="109.4,33.8 96.5,33.8 96.5,10.6 108.9,10.6 108.9,14.3 100.9,14.3 100.9,19.9 108.5,19.9 108.5,23.6 100.9,23.6 
			100.9,30 109.4,30 		"/>
		<path d="M126,15c-0.8-0.4-2.2-1-4.1-1c-2.3,0-3.4,1.3-3.4,2.6c0,1.7,1.1,2.4,4,3.7c3.7,1.7,5.4,3.8,5.4,6.8c0,4-3,7-8.4,7
			c-2.3,0-4.6-0.6-5.7-1.3l0.9-3.7c1.2,0.7,3.1,1.3,5,1.3c2.5,0,3.8-1.2,3.8-2.9c0-1.7-1.1-2.7-3.7-3.8c-3.5-1.5-5.7-3.7-5.7-6.7
			c0-3.8,3-6.7,8-6.7c2.2,0,3.9,0.5,5,1.1C127,11.3,126,15,126,15z"/>
		<rect x="52.6" y="11.5" class="st0" width="5" height="19.3"/>
		<path class="st0" d="M69.9,26.3c-0.5,0-1-0.4-1-1V11.5H64v14.6c0,2.6,2.1,4.7,4.7,4.7h6.2v-4.5C74.9,26.3,69.9,26.3,69.9,26.3z"/>
		<path class="st0" d="M35.9,21.1c0,1,0.1,2.2,1.4,4l6.6,9.4l4-2.8l-6.6-9.4c-0.2-0.4-0.4-0.7-0.4-1.1c0-0.4,0.2-0.8,0.4-1.1
			l6.6-9.4l-4-2.8l-6.6,9.4C36,18.9,35.9,20.2,35.9,21.1"/>
		<rect x="17.2" y="11.5" class="st0" width="5" height="19.3"/>
		<path class="st0" d="M6.5,26.3c-0.5,0-1-0.4-1-1V11.5H0.6v14.6c0,2.6,2.1,4.7,4.7,4.7h6.2v-4.5C11.5,26.3,6.5,26.3,6.5,26.3z"/>
		<path class="st0" d="M39,21.1c0,1-0.1,2.2-1.4,4L31,34.5l-4-2.8l6.6-9.4c0.2-0.4,0.4-0.7,0.4-1.1c0-0.4-0.2-0.8-0.4-1.1L27,10.6
			l4-2.8l6.6,9.4C38.8,18.9,39,20.2,39,21.1"/>
	</g>
	<rect class="st1" width="145.5" height="35"/>
</g>
</svg>
