<?xml version="1.0" encoding="utf-8"?>
<!-- Generator: Adobe Illustrator 28.0.0, SVG Export Plug-In . SVG Version: 6.00 Build 0)  -->
<svg version="1.1" id="_レイヤー_2" xmlns="http://www.w3.org/2000/svg" xmlns:xlink="http://www.w3.org/1999/xlink" x="0px"
	 y="0px" viewBox="0 0 166 42" style="enable-background:new 0 0 166 42;" xml:space="preserve">
<style type="text/css">
	.st0{fill:none;stroke:#333333;stroke-miterlimit:10;}
	.st1{fill:#333333;}
</style>
<g id="_レイヤー_1-2">
	<rect x="0.5" y="0.5" class="st0" width="165" height="41"/>
	<polyline class="st0" points="147,12.2 155.8,21 147,29.8 	"/>
</g>
<g>
	<path class="st1" d="M11.8,17.7c-0.5,0-1,0.1-1.6,0.2l-0.4-0.7c0.5,0.1,1.1,0.1,1.9,0.1H14l0.3-0.4c0,0,0.1-0.1,0.1-0.2
		c0.1-0.1,0.1-0.1,0.1-0.2c0,0,0.1-0.1,0.1-0.1c0.1,0,0.2,0.1,0.3,0.2c0.2,0.1,0.3,0.3,0.5,0.4c0.1,0.1,0.2,0.3,0.2,0.3
		c0,0.1-0.2,0.2-0.4,0.2H11.8z M13.6,18.7c0,0,0.1-0.1,0.1-0.2c0-0.1,0.1-0.1,0.1-0.1c0,0,0.1,0,0.1,0c0.1,0,0.3,0.1,0.5,0.4
		c0.3,0.2,0.4,0.4,0.4,0.5c0,0.1-0.2,0.2-0.4,0.2h-1.6c-0.7,0-1.4,0.1-2.1,0.2l-0.4-0.7C11,19,11.6,19,12.3,19h1L13.6,18.7z
		 M13.5,20.5c0,0,0.1-0.1,0.1-0.2c0-0.1,0.1-0.1,0.1-0.2c0,0,0.1,0,0.1,0c0.1,0,0.3,0.1,0.5,0.4c0.3,0.3,0.4,0.4,0.4,0.5
		c0,0.1-0.1,0.2-0.3,0.2h-1.6c-0.7,0-1.4,0.1-2.1,0.2l-0.4-0.7c0.5,0.1,1.1,0.1,1.9,0.1h1L13.5,20.5z M13.8,22.3c0,0,0-0.1,0.1-0.1
		c0-0.1,0.1-0.1,0.1-0.1s0.1,0,0.1,0c0.1,0,0.2,0.1,0.3,0.2c0.2,0.1,0.3,0.3,0.5,0.4c0.1,0.1,0.2,0.3,0.2,0.3c0,0.1-0.1,0.1-0.2,0.2
		c-0.1,0.1-0.2,0.1-0.4,0.1v1.1c0,0.9,0,1.6,0.1,2.2c0,0.1-0.2,0.2-0.3,0.2c-0.2,0.1-0.3,0.1-0.5,0.1c-0.1,0-0.1,0-0.1-0.1
		c0-0.1,0-0.1,0-0.2l0.1-0.2v-0.3h-2.2v0.3c0,0.3,0,0.5,0.1,0.6c0,0.1-0.1,0.2-0.3,0.2c-0.2,0.1-0.3,0.1-0.5,0.1
		c-0.1,0-0.1,0-0.1-0.1c0-0.1-0.1-0.1-0.1-0.2c0-0.4,0.1-0.9,0.1-1.4v-0.9c0-1.1-0.1-1.9-0.2-2.6l1,0.5h2L13.8,22.3z M13.6,15.2
		c0,0,0.1-0.1,0.1-0.2c0-0.1,0.1-0.1,0.1-0.2c0,0,0.1-0.1,0.1-0.1c0.1,0,0.2,0.1,0.3,0.2c0.2,0.1,0.3,0.3,0.5,0.4
		c0.1,0.1,0.2,0.3,0.2,0.3c0,0.1-0.1,0.2-0.4,0.2H13c-0.7,0-1.4,0.1-2.1,0.2l-0.3-0.7c0.5,0.1,1.1,0.1,1.9,0.1h0.9L13.6,15.2z
		 M11.5,23v2.7h2.2V23H11.5z M22.6,26.5l0,0.2c-0.2,0-0.4,0.1-0.5,0.2c-0.1,0.1-0.3,0.3-0.3,0.5c-1.4-0.5-2.5-1.2-3.4-2.1
		c-1.1,0.9-2.5,1.7-4.1,2.1l-0.1-0.2c1.5-0.6,2.8-1.4,3.8-2.5c-0.7-0.9-1.3-2.1-1.6-3.5h-0.4c-0.2,0-0.3,0.1-0.5,0.2l-0.4-0.7
		c0.5,0.1,1.1,0.1,1.9,0.1H20l0.3-0.3c0,0,0.1-0.1,0.2-0.2c0.1-0.1,0.1-0.1,0.2-0.1c0.1,0,0.3,0.1,0.5,0.4s0.4,0.4,0.4,0.5
		c-0.1,0.1-0.1,0.1-0.2,0.1c-0.1,0-0.2,0-0.3,0.1c-0.5,1.3-1.2,2.4-2.1,3.3C19.9,25.6,21.1,26.2,22.6,26.5z M19.3,15.1
		c0,0,0-0.1,0.1-0.1s0.1-0.1,0.1-0.1c0,0,0.1,0,0.1,0c0.1,0,0.3,0.1,0.5,0.4s0.4,0.4,0.4,0.5c-0.1,0.1-0.3,0.2-0.4,0.2v2.9
		c0,0.1,0,0.1,0,0.1s0.1,0,0.2,0h0.6c0.3,0,0.5,0,0.5,0c0.1,0,0.1,0,0.1,0c0,0,0,0,0.1-0.1c0-0.1,0.1-0.5,0.2-1.1l0.1-0.6h0.2l0,1.7
		c0.1,0.1,0.2,0.1,0.2,0.2c0,0.1,0.1,0.1,0.1,0.2c0,0.2-0.1,0.3-0.4,0.4c-0.2,0.1-0.6,0.1-1.2,0.1h-0.8c-0.4,0-0.6-0.1-0.7-0.2
		c-0.1-0.1-0.2-0.3-0.2-0.6v-3.2h-2v0.8c0,0.8-0.1,1.5-0.4,2.2c-0.3,0.7-0.8,1.3-1.7,1.7l-0.1-0.2c0.6-0.5,0.9-1.1,1.1-1.7
		c0.2-0.6,0.3-1.3,0.3-2.1v-0.8c0-0.3,0-0.6,0-0.9l1.1,0.5h1.8L19.3,15.1z M16.6,21.3c0.4,1.2,1,2.2,1.8,3c0.7-0.9,1.3-1.9,1.6-3
		H16.6z"/>
	<path class="st1" d="M26.7,19.8c-0.5,0.8-0.9,1.5-1.4,2.1l-0.2-0.1c0.7-1.1,1.2-2.5,1.8-4.2c0.1-0.4,0.3-1,0.4-1.6
		c0.1-0.6,0.2-1.1,0.2-1.5c1,0.3,1.4,0.5,1.4,0.6c0,0,0,0.1-0.1,0.1l-0.3,0.1c-0.3,1-0.7,2-1.1,3c0.3,0.2,0.5,0.4,0.5,0.5
		c0,0.1,0,0.1-0.1,0.1l-0.2,0.1v4.7c0,1.2,0.1,2.3,0.1,3.3c-0.1,0.1-0.2,0.2-0.3,0.2s-0.3,0.1-0.4,0.1c-0.1,0-0.1,0-0.2-0.1
		c-0.1-0.1-0.1-0.1-0.1-0.2c0-0.6,0.1-1.1,0.1-1.6c0-0.5,0-1.2,0.1-2V19.8z M29.7,21c0,0.8,0,1.6-0.1,2.3c-0.1,0.7-0.2,1.4-0.4,2.2
		c-0.2,0.7-0.6,1.4-1,2l-0.2-0.2c0.4-0.9,0.7-1.8,0.8-2.8c0.1-1,0.2-2.2,0.2-3.5v-1.5c0-0.6,0-1.2-0.1-1.6l1,0.5h6L36,18
		c0,0,0.1-0.1,0.1-0.2s0.1-0.1,0.1-0.2c0,0,0.1-0.1,0.1-0.1c0.1,0,0.2,0.1,0.4,0.2c0.2,0.1,0.4,0.3,0.5,0.4c0.2,0.2,0.2,0.3,0.2,0.3
		c0,0.1-0.1,0.2-0.3,0.2h-7.5V21z M36.1,16c0,0,0.1-0.1,0.1-0.2c0-0.1,0.1-0.1,0.1-0.2s0.1-0.1,0.1-0.1c0.1,0,0.2,0.1,0.3,0.2
		c0.2,0.1,0.3,0.3,0.5,0.4c0.1,0.1,0.2,0.3,0.2,0.3c0,0.1-0.1,0.2-0.3,0.2h-2.4v0.3c0,0.3,0,0.5,0.1,0.6c0,0.1-0.1,0.1-0.2,0.2
		s-0.3,0.1-0.5,0.1c-0.1,0-0.1,0-0.1-0.1c0-0.1,0-0.1,0-0.2c0,0,0-0.2,0.1-0.5v-0.4h-2v0.4c0,0.4,0,0.6,0.1,0.6
		c0,0.1-0.1,0.2-0.2,0.2C31.6,18,31.4,18,31.2,18c-0.1,0-0.1,0-0.1-0.1c0-0.1,0-0.1,0-0.2c0,0,0-0.2,0.1-0.5v-0.4h-0.8
		c-0.4,0-0.9,0.1-1.4,0.2l-0.3-0.7c0.5,0.1,1,0.1,1.7,0.1h0.8c0-0.8,0-1.4-0.1-1.8c0.5,0.1,0.8,0.3,1,0.3c0.2,0.1,0.3,0.2,0.3,0.2
		c0,0,0,0.1-0.1,0.1l-0.2,0.2v0.9h2c0-0.8,0-1.4-0.1-1.8c0.8,0.3,1.3,0.4,1.3,0.6c0,0,0,0.1-0.1,0.1l-0.2,0.2v0.9h1.1L36.1,16z
		 M31.2,25.4l0,0.6c0,0.4,0,0.8,0.1,1.2c0,0.1-0.1,0.2-0.3,0.2c-0.1,0.1-0.3,0.1-0.5,0.1c-0.1,0-0.1,0-0.2-0.1
		c-0.1-0.1-0.1-0.1-0.1-0.2c0.1-0.9,0.1-2,0.1-3.1v-1.7c0-1.2-0.1-2.1-0.2-2.9l1,0.5h4.4l0.2-0.3c0,0,0-0.1,0.1-0.1
		c0-0.1,0.1-0.1,0.1-0.1c0,0,0.1,0,0.1,0c0.1,0,0.2,0.1,0.4,0.2c0.2,0.1,0.3,0.2,0.5,0.4c0.1,0.1,0.2,0.2,0.2,0.3
		c-0.1,0.1-0.3,0.2-0.6,0.3v5.6c0,0.3,0,0.5-0.1,0.6c-0.1,0.2-0.2,0.3-0.3,0.4c-0.2,0.1-0.4,0.2-0.8,0.2c0-0.2,0-0.3-0.1-0.4
		s-0.1-0.2-0.1-0.2c-0.1-0.1-0.4-0.3-0.8-0.3v-0.2c0.6,0.1,1,0.1,1.1,0.1c0.1,0,0.2,0,0.2-0.1c0,0,0.1-0.1,0.1-0.2v-1.6h-1.9v0.9
		l0,0.5c0,0.4,0,0.8,0.1,1.1c0,0.1-0.1,0.2-0.3,0.2c-0.1,0.1-0.3,0.1-0.5,0.1c-0.1,0-0.1,0-0.1-0.1c0-0.1-0.1-0.1-0.1-0.2
		c0-0.4,0.1-1,0.1-1.6v-1h-1.9V25.4z M33.1,22v-1.6h-1.9V22H33.1z M31.2,22.4v1.7h1.9v-1.7H31.2z M33.9,22h1.9v-1.6h-1.9V22z
		 M33.9,22.4v1.7h1.9v-1.7H33.9z"/>
	<path class="st1" d="M45.6,21.9c-0.2-0.2-0.3-0.5-0.3-0.8c0-0.3,0.1-0.6,0.3-0.8c0.2-0.2,0.5-0.3,0.8-0.3s0.6,0.1,0.8,0.3
		c0.2,0.2,0.3,0.5,0.3,0.8c0,0.3-0.1,0.6-0.3,0.8c-0.2,0.2-0.5,0.3-0.8,0.3S45.8,22.1,45.6,21.9z"/>
	<path class="st1" d="M57.2,19.8c-0.6,0.9-1.2,1.6-1.7,2.1l-0.2-0.1c0.8-1.2,1.6-2.6,2.3-4.3c0.2-0.4,0.4-0.9,0.5-1.5
		c0.2-0.6,0.3-1.1,0.3-1.4c0.9,0.3,1.4,0.6,1.4,0.7c0,0,0,0.1-0.1,0.1l-0.3,0.1c-0.4,1.1-0.9,2.1-1.4,3l0.5,0.2
		c0,0.1-0.2,0.2-0.4,0.2v4.9c0,1.2,0.1,2.3,0.1,3.3c-0.1,0.1-0.2,0.2-0.4,0.3c-0.2,0.1-0.3,0.1-0.5,0.1c-0.1,0-0.1,0-0.2-0.1
		c-0.1-0.1-0.1-0.1-0.1-0.2c0-0.6,0.1-1.1,0.1-1.6c0-0.5,0-1.2,0.1-2V19.8z M66.2,19c0-0.1,0.1-0.1,0.1-0.2c0-0.1,0.1-0.1,0.1-0.2
		c0-0.1,0.1-0.1,0.1-0.1c0.1,0,0.2,0.1,0.4,0.2c0.2,0.1,0.4,0.3,0.5,0.5c0.2,0.2,0.2,0.3,0.2,0.3c0,0.1-0.1,0.2-0.3,0.2h-4.1v6.5
		h2.2l0.3-0.4c0,0,0.1-0.1,0.1-0.2c0.1-0.1,0.1-0.1,0.1-0.2c0,0,0.1-0.1,0.1-0.1c0.1,0,0.2,0.1,0.4,0.2s0.4,0.3,0.5,0.5
		s0.3,0.3,0.3,0.3c0,0.1-0.1,0.2-0.4,0.2h-5.7c-0.7,0-1.4,0.1-2.1,0.2l-0.4-0.7c0.5,0.1,1.1,0.1,1.9,0.1h1.6v-6.5H61
		c-0.7,0-1.4,0.1-2.1,0.2l-0.4-0.7c0.5,0.1,1.1,0.1,1.9,0.1h2v-1.8c0-1.2-0.1-2.1-0.2-2.9c0.6,0.1,0.9,0.3,1.2,0.4
		c0.2,0.1,0.3,0.2,0.3,0.2c0,0,0,0.1-0.1,0.1l-0.2,0.2v3.8h2.5L66.2,19z"/>
	<path class="st1" d="M74,17.5c0,0,0.1-0.1,0.1-0.2c0.1-0.1,0.1-0.1,0.1-0.2c0,0,0.1-0.1,0.1-0.1c0.1,0,0.2,0.1,0.3,0.2
		c0.2,0.1,0.3,0.3,0.5,0.4c0.1,0.2,0.2,0.3,0.2,0.3c0,0.1,0,0.1-0.1,0.2c-0.1,0-0.1,0.1-0.2,0.1h-1.7V20c0.6,0.3,1,0.6,1.2,1
		c0.3,0.4,0.4,0.7,0.4,0.9c0,0.2,0,0.3-0.1,0.4c-0.1,0.1-0.2,0.1-0.3,0.1c-0.1,0-0.3-0.1-0.4-0.2c-0.1-0.3-0.2-0.6-0.3-1
		c-0.2-0.4-0.3-0.7-0.6-1v3.4c0,1.2,0.1,2.3,0.1,3.3c-0.1,0.1-0.2,0.2-0.3,0.3s-0.3,0.1-0.5,0.1c-0.1,0-0.2,0-0.2-0.1
		c-0.1-0.1-0.1-0.1-0.1-0.2c0-0.6,0.1-1.1,0.1-1.6c0-0.5,0-1.2,0.1-2V21c-0.5,1.3-1.2,2.4-2,3.3l-0.2-0.2c0.9-1.5,1.6-3.4,2-5.7
		h-0.6c-0.3,0-0.7,0.1-1,0.2l-0.3-0.7c0.4,0.1,0.9,0.1,1.5,0.1h0.7v-0.5c0-1.2-0.1-2.1-0.2-2.9c0.5,0.1,0.9,0.3,1.1,0.4
		c0.2,0.1,0.3,0.2,0.3,0.2c0,0,0,0.1-0.1,0.1l-0.2,0.2v2.4h0.4L74,17.5z M81.4,20.3c0,0,0.1-0.1,0.1-0.2s0.1-0.1,0.1-0.2
		s0.1-0.1,0.1-0.1c0.1,0,0.2,0.1,0.4,0.2c0.2,0.1,0.3,0.3,0.5,0.4c0.2,0.2,0.2,0.3,0.2,0.3c0,0.1-0.1,0.2-0.3,0.2h-3.5v0.5
		c0.2,0.7,0.4,1.4,0.8,2c0.3-0.3,0.6-0.7,0.8-1.1c0.3-0.4,0.5-0.8,0.6-1.1c0.7,0.5,1.1,0.8,1.1,0.9c0,0,0,0.1-0.1,0.1H82
		c-0.3,0.2-0.6,0.5-0.9,0.7c-0.4,0.3-0.7,0.5-1.1,0.7c0.4,0.5,0.8,1,1.3,1.3c0.5,0.3,1.1,0.6,1.7,0.8l0,0.2c-0.2,0-0.3,0.1-0.4,0.3
		c-0.1,0.1-0.2,0.3-0.3,0.5c-0.8-0.5-1.5-1.1-2.1-1.7s-0.9-1.6-1.2-2.7v3.8c0,0.4-0.1,0.7-0.2,0.9c-0.2,0.2-0.5,0.3-1,0.4
		c0-0.3-0.1-0.5-0.3-0.6c-0.2-0.1-0.5-0.3-1-0.3v-0.2c0.8,0.1,1.2,0.1,1.4,0.1c0.1,0,0.2,0,0.2-0.1s0.1-0.1,0.1-0.2V24L78,24.2
		c-1.1,0.9-2,1.5-2.6,2c0,0.2-0.1,0.3-0.2,0.4l-0.7-1c0.5-0.2,1.8-0.9,3.8-1.9l0,0.1v-2.8h-1.1c-0.6,0-1.3,0.1-2,0.2l-0.3-0.7
		c0.5,0.1,1.1,0.1,1.9,0.1h1.6v-1.5h-0.9c-0.5,0-1,0.1-1.6,0.2l-0.4-0.7c0.5,0.1,1.1,0.1,1.9,0.1h1v-1.4h-1c-0.6,0-1.2,0.1-1.8,0.2
		L75,16.8c0.5,0.1,1,0.1,1.7,0.1h0.8c-0.1,0-0.2-0.1-0.3-0.2c0-0.3-0.1-0.6-0.3-1s-0.4-0.7-0.6-1l0.2-0.1c0.6,0.2,1,0.5,1.2,0.8
		c0.3,0.3,0.4,0.6,0.4,0.9c0,0.1,0,0.3-0.1,0.4c-0.1,0.1-0.2,0.2-0.3,0.2h1.7c0.1-0.4,0.3-0.8,0.4-1.2c0.1-0.4,0.2-0.8,0.3-1.2
		c0.9,0.3,1.3,0.5,1.3,0.6c0,0,0,0.1-0.1,0.1l-0.3,0.1c-0.4,0.6-0.8,1.1-1.3,1.6h1.3l0.3-0.4c0,0,0.1-0.1,0.1-0.2
		c0.1-0.1,0.1-0.1,0.1-0.2c0,0,0.1-0.1,0.1-0.1c0.1,0,0.2,0.1,0.4,0.2c0.2,0.1,0.3,0.3,0.5,0.4c0.2,0.2,0.2,0.3,0.2,0.3
		c0,0.1-0.2,0.2-0.3,0.2h-3.3v1.4h1.5l0.3-0.4c0,0,0.1-0.1,0.1-0.2c0.1-0.1,0.1-0.1,0.1-0.2c0,0,0.1-0.1,0.1-0.1
		c0.1,0,0.2,0.1,0.3,0.2c0.2,0.1,0.3,0.3,0.5,0.4c0.1,0.2,0.2,0.3,0.2,0.3c0,0.1-0.2,0.2-0.3,0.2h-2.9v1.5h2.1L81.4,20.3z
		 M75.7,21.6c0.6,0.2,1,0.4,1.3,0.7c0.3,0.3,0.4,0.6,0.4,0.8c0,0.2,0,0.3-0.1,0.4c-0.1,0.1-0.2,0.2-0.3,0.2c-0.1,0-0.2-0.1-0.3-0.2
		c0-0.3-0.2-0.6-0.4-1s-0.4-0.7-0.7-0.9L75.7,21.6z"/>
	<path class="st1" d="M89.5,19.7c0,0,0,0.1,0,0.2c-0.3,1-0.6,1.9-0.9,2.8c-0.3,0.9-0.4,1.5-0.4,1.8c0,0.1,0,0.4,0.1,0.9
		c0.1,0.4,0.1,0.6,0.1,0.7c0,0.1,0,0.2-0.1,0.3c-0.1,0.1-0.2,0.1-0.3,0.1c-0.2,0-0.3-0.1-0.4-0.2c-0.1-0.1-0.2-0.3-0.4-0.5
		c-0.3-0.6-0.5-1.4-0.5-2.5c0-0.5,0-1.1,0.1-1.9c0.1-0.7,0.2-1.5,0.4-2.2c0-0.2,0.1-0.3,0.1-0.4c0.1-0.3,0.1-0.6,0.2-0.8
		c0-0.3,0.1-0.5,0.1-0.7c0-0.2,0-0.4,0-0.5c0-0.1-0.1-0.3-0.2-0.5c0-0.1,0-0.1,0-0.1c0,0,0-0.1,0-0.1s0.1,0,0.1,0
		c0.1,0,0.1,0,0.2,0.1c0.2,0.2,0.4,0.5,0.6,0.8c0.2,0.3,0.3,0.6,0.3,0.8c0,0.2,0,0.4-0.1,0.6s-0.2,0.5-0.3,0.8l-0.2,0.5
		c-0.2,0.5-0.3,1-0.4,1.5c-0.1,0.5-0.1,1-0.1,1.4c0,0.5,0.1,0.8,0.2,0.8c0.1,0,0.2-0.1,0.3-0.3c0.1-0.2,0.3-0.6,0.5-1.1
		c0.3-0.8,0.6-1.5,1-2.3C89.4,19.6,89.4,19.6,89.5,19.7C89.5,19.6,89.5,19.6,89.5,19.7z M97,25.8c0,0.1,0,0.2-0.1,0.3
		s-0.1,0.1-0.3,0.1c-0.1,0-0.2,0-0.4-0.1s-0.3-0.2-0.4-0.3c-0.1-0.1-0.2-0.2-0.3-0.3c-0.2-0.2-0.4-0.3-0.6-0.4
		c-0.1-0.1-0.3-0.1-0.4-0.2c0,0.5-0.2,0.9-0.5,1.2c-0.3,0.3-0.8,0.4-1.5,0.4c-0.6,0-1-0.1-1.4-0.4c-0.4-0.2-0.6-0.6-0.6-1.1
		c0-0.5,0.3-0.9,0.9-1.1c0.6-0.2,1.1-0.3,1.6-0.3c0.3,0,0.5,0,0.8,0.1c0-0.2,0-0.5,0-0.7c0-0.3,0-0.5,0-0.7L93.7,20
		c-0.1,0-0.2,0-0.4,0.1c-0.1,0-0.2,0-0.3,0c-0.4,0-0.8-0.1-1-0.2c-0.3-0.2-0.5-0.4-0.8-0.8c0-0.1-0.1-0.1-0.1-0.2
		c0-0.1,0-0.1,0.1-0.1c0,0,0.1,0,0.1,0.1s0.1,0.1,0.1,0.1c0.1,0.1,0.3,0.2,0.4,0.3c0.2,0.1,0.4,0.1,0.6,0.1c0.2,0,0.6-0.1,1.2-0.2
		c0-0.3,0-0.8,0-1.3v-0.7c0-0.4-0.2-0.7-0.6-0.9c-0.1,0-0.1-0.1-0.1-0.1c0-0.1,0.1-0.1,0.2-0.2c0.1,0,0.3-0.1,0.5-0.1
		c0.3,0,0.5,0.1,0.7,0.2c0.2,0.2,0.3,0.3,0.3,0.5c0,0,0,0.1-0.1,0.3c-0.1,0.1-0.1,0.3-0.1,0.4c0,0.2-0.1,0.3-0.1,0.3
		c0.4,0.3,0.8,0.5,1,0.6c0.1,0,0.2,0,0.3,0.1s0.2,0.1,0.3,0.1c0.1,0,0.1,0.1,0.1,0.2c0,0.1,0,0.1,0,0.2c0,0.2-0.2,0.4-0.5,0.6
		c-0.6,0.3-1.1,0.5-1.4,0.6V20c0,0.8,0.1,1.9,0.2,3.1c0,0.1,0.1,0.4,0.1,0.9c0.8,0.3,1.5,0.6,2,1.1C96.9,25.3,97,25.6,97,25.8z
		 M93.4,25.7c0.3-0.2,0.4-0.6,0.4-1.1c-0.5-0.1-0.9-0.2-1.3-0.2c-0.4,0-0.7,0.1-1,0.2c-0.3,0.1-0.5,0.3-0.5,0.6
		c0,0.3,0.2,0.5,0.5,0.7s0.6,0.2,1,0.2C92.8,25.9,93.1,25.8,93.4,25.7z M94.3,19c0.6-0.2,0.9-0.3,0.9-0.5c0,0-0.1-0.1-0.2-0.2
		c-0.1-0.1-0.2-0.2-0.3-0.3c-0.1-0.1-0.2-0.1-0.2-0.2L94.3,19z"/>
	<path class="st1" d="M110.1,18.3c0.3,0.1,0.5,0.2,0.8,0.4c0.2,0.1,0.3,0.3,0.3,0.4c0,0.1,0,0.2-0.1,0.2c-0.1,0.1-0.1,0.1-0.2,0.2
		c-0.2,0.1-0.3,0.2-0.3,0.3c-0.1,0.3-0.2,0.8-0.4,1.4c-0.2,0.7-0.3,1.3-0.4,2c0.6,0.1,0.9,0.2,0.9,0.5c0,0.1-0.1,0.2-0.2,0.2
		c-0.1,0.1-0.3,0.1-0.6,0.1l-0.4,0c-0.1,0-0.3,0-0.6,0c-0.3,0-0.5,0-0.7,0c-1.5,0-2.9,0.2-4.1,0.5c-0.1,0-0.1,0-0.2,0
		c-0.2,0-0.4-0.1-0.5-0.2c-0.2-0.1-0.3-0.2-0.5-0.4c-0.1-0.2-0.2-0.3-0.2-0.4c0-0.2,0-0.2,0.1-0.2c0,0,0.1,0,0.1,0
		c0.2,0.1,0.3,0.2,0.5,0.2s0.4,0.1,0.6,0.1c0.3,0,0.7,0,1.3-0.1l1.2-0.2c0.7-0.1,1.6-0.1,2.5-0.2c0.1-0.5,0.2-1.1,0.3-1.8
		c0.1-0.7,0.1-1.2,0.1-1.7c0-0.2,0-0.4-0.1-0.4c0-0.1-0.1-0.1-0.3-0.1c-0.2,0-0.7,0.1-1.4,0.1c-0.7,0.1-1.3,0.2-2.1,0.2
		c-0.7,0.1-1.2,0.2-1.4,0.3c-0.4,0.1-0.7,0.2-0.9,0.2c-0.2,0-0.4-0.1-0.5-0.2c-0.1-0.1-0.3-0.3-0.4-0.6c0-0.1-0.1-0.1-0.1-0.2
		c0-0.1,0-0.1,0.1-0.1c0.1,0,0.1,0,0.2,0c0.2,0.1,0.5,0.1,0.6,0.1c0.5,0,1.4-0.1,2.8-0.2c1.4-0.1,2.2-0.2,2.5-0.3
		c0.2-0.1,0.4-0.2,0.5-0.2c0.1-0.1,0.2-0.1,0.2-0.1c0.1-0.1,0.2-0.1,0.3-0.1C109.6,18.1,109.8,18.2,110.1,18.3z"/>
	<path class="st1" d="M126.5,19.4c0.2,0.1,0.4,0.2,0.6,0.4c0.2,0.1,0.3,0.3,0.3,0.4c0,0.1,0,0.2-0.1,0.2c-0.1,0-0.1,0.1-0.2,0.1
		c0,0-0.2,0-0.5-0.1c-0.9-0.1-1.8-0.2-2.4-0.2c-0.5,0-1,0-1.5,0c-0.2,1.8-0.8,3.2-1.8,4.2s-2.2,1.8-3.7,2.3c-0.1,0-0.1,0-0.2,0
		s-0.1,0-0.1-0.1c0,0,0-0.1,0.1-0.1c1.6-0.8,2.7-1.8,3.4-2.8c0.7-1,1.1-2.2,1.2-3.5c-1.2,0.1-2.1,0.3-2.9,0.5l-0.3,0.1
		c-0.4,0.2-0.7,0.2-0.9,0.2c-0.2,0-0.5-0.1-0.8-0.3c-0.3-0.2-0.5-0.4-0.7-0.7c-0.1-0.1-0.1-0.2-0.1-0.2s0-0.1,0.1-0.1
		c0,0,0.1,0,0.2,0.1c0.4,0.2,0.9,0.3,1.3,0.3c0.2,0,0.6,0,1.2-0.1c0.7-0.1,1.7-0.2,2.9-0.3c0-0.1,0-0.3,0-0.5c0-0.4,0-0.6-0.1-0.8
		c-0.1-0.2-0.2-0.3-0.5-0.5c0,0-0.1-0.1-0.1-0.1c0,0-0.1,0-0.1-0.1c-1.6,0.4-2.9,0.6-3.8,0.7c-0.1,0-0.2,0-0.2-0.1
		c0-0.1,0.1-0.1,0.2-0.1c1.3-0.2,2.3-0.5,3.1-0.8c0.8-0.3,1.5-0.7,2.1-1.1c0.2-0.1,0.2-0.2,0.2-0.3c0-0.1,0-0.1-0.1-0.1
		c0,0-0.1-0.1-0.2-0.1c-0.1,0-0.1-0.1-0.1-0.1c0-0.1,0.1-0.1,0.3-0.1c0.2,0,0.4,0,0.7,0.1c0.2,0,0.4,0.1,0.6,0.2s0.4,0.3,0.5,0.4
		c0.1,0.1,0.2,0.3,0.2,0.4c0,0.1,0,0.1-0.1,0.1c-0.1,0-0.3,0.1-0.5,0.1c-0.2,0-0.3,0-0.5,0.1c-0.2,0-0.4,0.1-0.6,0.2
		c-0.1,0.1-0.5,0.2-1.1,0.4c0.3,0.1,0.7,0.3,1,0.6c0.2,0.2,0.3,0.3,0.3,0.5c0,0.1,0,0.3-0.1,0.5c0,0.1-0.1,0.2-0.1,0.4l0.5,0
		l1.1-0.1c0.3,0,0.5,0,0.8-0.1c0.3,0,0.4-0.1,0.5-0.1c0,0,0.1-0.1,0.2-0.1c0.1,0,0.2-0.1,0.3-0.1C126.1,19.2,126.3,19.2,126.5,19.4z
		"/>
	<path class="st1" d="M132.3,26.6c0,0,0-0.1,0.1-0.1c1.7-0.8,3.2-1.7,4.4-2.8c1.2-1.1,2.2-2.5,3-4.1c0-0.1,0.1-0.2,0.1-0.2
		c0-0.1-0.1-0.1-0.2-0.1c-0.1,0-0.8,0.1-1.9,0.3c-1.2,0.2-2,0.4-2.4,0.5c-0.3,0.1-0.4,0.1-0.5,0.2s-0.1,0.1-0.2,0.1
		c-0.1,0-0.2,0.1-0.3,0.1c-0.2,0-0.4-0.1-0.7-0.2c-0.2-0.1-0.4-0.3-0.6-0.5c-0.1-0.1-0.1-0.3-0.1-0.4c0-0.2,0-0.2,0.1-0.2
		c0,0,0.1,0,0.1,0.1c0.1,0,0.1,0.1,0.2,0.1c0.1,0,0.3,0.1,0.5,0.1c0.2,0,0.5,0.1,0.8,0.1c0.1,0,0.3,0,0.5,0c0.5-0.1,1.3-0.2,2.4-0.3
		c1-0.2,1.6-0.3,1.8-0.3c0.1,0,0.3-0.1,0.5-0.2c0.1-0.1,0.2-0.1,0.3-0.1c0.1,0,0.3,0.1,0.5,0.2c0.2,0.1,0.4,0.3,0.6,0.5
		s0.2,0.3,0.2,0.4c0,0.1,0,0.1-0.1,0.2c-0.1,0.1-0.2,0.2-0.3,0.2c-0.3,0.2-0.5,0.4-0.6,0.6c-0.6,1-1.2,1.9-1.9,2.6
		c-0.7,0.7-1.5,1.4-2.5,2c-1,0.6-2.2,1.1-3.6,1.5L132.3,26.6C132.3,26.7,132.3,26.7,132.3,26.6z M134.4,17c-0.2-0.2-0.3-0.4-0.4-0.5
		c0-0.1,0-0.1,0-0.1c0,0,0-0.1,0-0.1c0,0,0,0,0.1,0c0,0,0.1,0,0.2,0.1c0.1,0,0.2,0.1,0.2,0.1c0.2,0.1,0.4,0.1,0.7,0.1
		c0.2,0,0.4,0,0.6-0.1c0.8-0.1,1.5-0.2,2.1-0.4c0.1,0,0.2-0.1,0.3-0.1c0.1-0.1,0.2-0.1,0.2-0.1s0.2,0,0.3,0c0.2,0,0.4,0,0.6,0.1
		c0.2,0.1,0.4,0.2,0.5,0.3c0.1,0.1,0.2,0.2,0.2,0.3c0,0.1,0,0.1-0.1,0.2c-0.1,0-0.2,0-0.4,0c-0.1,0-0.3,0-0.4,0c-0.3,0-0.6,0-0.9,0
		c-0.4,0-0.9,0-1.5,0.1s-1,0.2-1.2,0.2c-0.2,0.1-0.4,0.1-0.6,0.1C134.8,17.3,134.6,17.2,134.4,17z"/>
</g>
</svg>
