<?xml version="1.0" encoding="UTF-8"?>
<svg id="_レイヤー_2" data-name="レイヤー 2" xmlns="http://www.w3.org/2000/svg" viewBox="0 0 253.7796507 27.15625">
  <defs>
    <style>
      .cls-1 {
        stroke: #f9ae3b;
      }

      .cls-1, .cls-2, .cls-3 {
        fill: none;
        stroke-miterlimit: 10;
        stroke-width: 2px;
      }

      .cls-4 {
        stroke-width: 0px;
      }

      .cls-2 {
        stroke: #bf272d;
      }

      .cls-3 {
        stroke: #29a9e0;
      }
    </style>
  </defs>
  <g id="_レイヤー_1-2" data-name="レイヤー 1">
    <line class="cls-1" y1="3.7102271" x2="48.0355895" y2="3.7102271"/>
    <line class="cls-2" y1="12.7102271" x2="48.0355895" y2="12.7102271"/>
    <line class="cls-3" y1="21.7102271" x2="48.0355895" y2="21.7102271"/>
    <g>
      <path class="cls-4" d="m67.8015858,1.1484375l.2695312-.375c.015625-.0234375.0371094-.0546875.0644531-.09375s.0507812-.0703125.0703125-.09375.0390625-.0488281.0585938-.0761719.0371094-.0488281.0527344-.0644531.0332031-.0292969.0527344-.0410156.0371094-.0175781.0527344-.0175781c.078125,0,.2695312.1308594.5742188.3925781s.4570312.4355469.4570312.5214844c-.0234375.1328125-.1210938.1992188-.2929688.1992188h-3.6328125v2.015625h2.4257812l.1757812-.2578125c.015625-.015625.0332031-.0390625.0527344-.0703125s.0371094-.0546875.0527344-.0703125.03125-.0332031.046875-.0527344.0332031-.0332031.0527344-.0410156.0371094-.0117188.0527344-.0117188c.078125,0,.2382812.0976562.4804688.2929688s.3632812.3359375.3632812.421875c-.0859375.1015625-.2460938.171875-.4804688.2109375v3.9609375c.015625.9921875.046875,1.9335938.09375,2.8242188-.1875.2109375-.4296875.3164062-.7265625.3164062-.109375,0-.1640625-.0820312-.1640625-.2460938.0234375-.1484375.0429688-.3242188.0585938-.5273438v-.3867188h-7.5351562v.3164062c.0234375.3359375.0390625.5234375.046875.5625-.03125.0703125-.1074219.140625-.2285156.2109375s-.2675781.1054688-.4394531.1054688c-.0546875,0-.1074219-.0273438-.1582031-.0820312s-.0761719-.109375-.0761719-.1640625c.0703125-1.03125.1132812-2.0703125.1289062-3.1171875v-2.1796875c0-1.0078125-.0507812-1.828125-.1523438-2.4609375l1.0195312.4453125h1.9921875V1.5h-1.5820312c-.578125.0078125-1.1796875.0625-1.8046875.1640625l-.3164062-.609375c.4375.046875.9726562.078125,1.6054688.09375h7.2890625Zm-5.1914062,2.7070312h-2.1328125v5.6953125h7.5351562V3.8554688h-2.484375v2.6601562c0,.0859375.015625.1425781.046875.1699219s.1015625.0410156.2109375.0410156h.5039062c.2734375,0,.4414062-.0039062.5039062-.0117188.078125-.015625.1289062-.0507812.1523438-.1054688.09375-.2421875.1914062-.7265625.2929688-1.453125h.1523438l.0351562,1.5c.1875.0625.28125.171875.28125.328125,0,.1640625-.1015625.28125-.3046875.3515625s-.578125.1054688-1.125.1054688h-.6679688c-.3203125,0-.5351562-.0546875-.6445312-.1640625s-.1640625-.3007812-.1640625-.5742188v-2.8476562h-1.4765625c-.015625.453125-.0566406.8574219-.1230469,1.2128906s-.1894531.734375-.3691406,1.1367188-.4511719.7753906-.8144531,1.1191406-.8144531.6484375-1.3535156.9140625l-.1289062-.1640625c.78125-.5546875,1.3164062-1.1757812,1.6054688-1.8632812s.4453125-1.4726562.46875-2.3554688Zm.7148438-2.3554688v2.015625h1.4765625V1.5h-1.4765625Z"/>
      <path class="cls-4" d="m79.883617,3.2109375l.2578125-.3632812c.171875-.234375.2851562-.3515625.3398438-.3515625.078125,0,.2636719.1230469.5566406.3691406s.4394531.4121094.4394531.4980469c-.0390625.1328125-.140625.1992188-.3046875.1992188h-3.140625c.2421875,3.0390625,1.0351562,5.09375,2.3789062,6.1640625.0625.0625.1132812.0996094.1523438.1113281s.0742188.0058594.1054688-.0175781.0625-.0742188.09375-.1523438c.1796875-.34375.34375-.7929688.4921875-1.3476562l.1523438.0234375-.1992188,1.828125c.28125.390625.3632812.6601562.2460938.8085938-.09375.125-.2265625.1738281-.3984375.1464844s-.3457031-.09375-.5214844-.1992188-.3535156-.2363281-.5332031-.3925781c-1.5078125-1.3046875-2.4257812-3.6289062-2.7539062-6.9726562h-4.2421875c-.578125.0078125-1.1796875.0625-1.8046875.1640625l-.3164062-.609375c.4375.046875.9726562.078125,1.6054688.09375h4.734375c-.0703125-.9609375-.1054688-1.96875-.1054688-3.0234375.7421875.0546875,1.1132812.1367188,1.1132812.2460938,0,.03125-.0351562.0703125-.1054688.1171875l-.2109375.1289062c-.0078125.765625.0195312,1.609375.0820312,2.53125h1.8867188Zm-3.9726562,3.0117188l.234375-.3515625c.015625-.0234375.0371094-.0566406.0644531-.0996094s.0488281-.0742188.0644531-.09375.0351562-.0429688.0585938-.0703125.0449219-.046875.0644531-.0585938.0371094-.0175781.0527344-.0175781c.078125,0,.2441406.1191406.4980469.3574219s.3808594.4003906.3808594.4863281c-.0390625.1328125-.1367188.1992188-.2929688.1992188h-2.1328125v2.7773438c.5546875-.1015625,1.4257812-.2773438,2.6132812-.5273438l.0351562.2109375c-1.6015625.5390625-3.5351562,1.1171875-5.8007812,1.734375-.0625.1484375-.1523438.2421875-.2695312.28125l-.5273438-.9609375c.03125-.0078125.4257812-.0742188,1.1835938-.1992188v-2.3671875c0-1.0078125-.0507812-1.8203125-.1523438-2.4375.7578125.2265625,1.1328125.390625,1.125.4921875,0,.03125-.0273438.0664062-.0820312.1054688l-.1757812.1054688v3.9726562c.140625-.03125.3613281-.0742188.6621094-.1289062s.5214844-.0976562.6621094-.1289062v-3.2226562c0-1.0078125-.0507812-1.828125-.1523438-2.4609375.7734375.21875,1.1601562.3828125,1.1601562.4921875,0,.0390625-.03125.078125-.09375.1171875l-.1875.1289062v1.6640625h1.0078125Zm-.7617188-4.8867188l.2226562-.328125c.0234375-.0234375.0488281-.0546875.0761719-.09375s.0507812-.0722656.0703125-.0996094.0410156-.0546875.0644531-.0820312.0449219-.046875.0644531-.0585938.0371094-.0175781.0527344-.0175781c.078125,0,.25.1191406.515625.3574219s.3984375.4003906.3984375.4863281c-.03125.125-.1367188.1875-.3164062.1875h-2.1914062c-.578125.0078125-1.1796875.0625-1.8046875.1640625l-.3046875-.609375c.4375.046875.96875.078125,1.59375.09375h1.5585938Zm3.421875-.5859375l.0820312-.1054688c.953125.1171875,1.5664062.4140625,1.8398438.890625.1484375.2578125.1523438.46875.0117188.6328125-.1328125.140625-.3046875.1523438-.515625.0351562-.1015625-.2421875-.2910156-.5-.5683594-.7734375s-.5605469-.5-.8496094-.6796875Z"/>
      <path class="cls-4" d="m82.883617,3.2460938l.1171875-.1171875c.90625.1171875,1.4804688.4101562,1.7226562.8789062.140625.265625.1328125.4804688-.0234375.6445312-.140625.15625-.3242188.1679688-.5507812.0351562-.078125-.25-.2402344-.5078125-.4863281-.7734375s-.5058594-.4882812-.7792969-.6679688Zm.2460938,4.5703125h.515625c.046875,0,.0820312-.0039062.1054688-.0117188s.0507812-.0292969.0820312-.0644531.0625-.0878906.09375-.1582031c.34375-.7890625,1.0859375-2.5546875,2.2265625-5.296875l.2109375.0585938c-.109375.34375-.3007812.9199219-.5742188,1.7285156s-.5039062,1.4980469-.6914062,2.0683594-.3046875.9414062-.3515625,1.1132812c-.1171875.4296875-.1757812.7773438-.1757812,1.0429688,0,.1171875.0527344.3964844.1582031.8378906s.1503906.8457031.1347656,1.2128906c-.0234375.5546875-.2382812.8320312-.6445312.8320312-.21875,0-.3398438-.1992188-.3632812-.5976562.171875-1.3671875.1210938-2.1445312-.1523438-2.3320312-.125-.0859375-.3164062-.140625-.5742188-.1640625v-.2695312Zm.6210938-7.40625l.1054688-.1171875c.921875.140625,1.515625.4570312,1.78125.9492188.1484375.28125.1445312.5117188-.0117188.6914062-.140625.1640625-.328125.1796875-.5625.046875-.078125-.265625-.2480469-.5488281-.5097656-.8496094s-.5292969-.5410156-.8027344-.7207031Zm7.640625,7.6171875c0-.265625-.0625-.4511719-.1875-.5566406s-.3320312-.1816406-.6210938-.2285156l.0117188-.2109375c.5625.046875.875.0703125.9375.0703125.1328125,0,.2304688-.0351562.2929688-.1054688.1796875-.2109375.28125-1.5195312.3046875-3.9257812l-1.9101562.7382812v1.9453125c.015625.9921875.046875,1.9335938.09375,2.8242188-.046875.078125-.1367188.1523438-.2695312.2226562s-.265625.1054688-.3984375.1054688c-.0625,0-.1210938-.0253906-.1757812-.0761719s-.0820312-.1035156-.0820312-.1582031c.078125-1.25.1210938-2.2382812.1289062-2.9648438v-1.6054688l-1.734375.6796875v4.7578125c0,.1953125.0566406.3300781.1699219.4042969s.3574219.1113281.7324219.1113281h1.8398438c.8125,0,1.3984375-.015625,1.7578125-.046875.1484375-.0234375.2578125-.0898438.328125-.1992188.109375-.1953125.2539062-.7695312.4335938-1.7226562h.1523438l.0351562,1.7929688c.1484375.046875.2480469.0976562.2988281.1523438s.0761719.125.0761719.2109375c0,.1484375-.078125.2617188-.234375.3398438s-.4570312.1367188-.9023438.1757812-1.0976562.0585938-1.9570312.0585938l-1.8632812-.0117188c-.609375,0-1.0253906-.0722656-1.2480469-.2167969s-.3339844-.4316406-.3339844-.8613281v-4.6640625l-1.1601562.4570312-.2109375-.3046875,1.3710938-.5390625v-1.640625c0-.6171875-.0390625-1.1875-.1171875-1.7109375.75.2265625,1.1289062.3945312,1.1367188.5039062,0,.0390625-.03125.078125-.09375.1171875l-.2109375.140625v2.3085938l1.734375-.6796875v-1.7109375c0-.6484375-.0390625-1.2382812-.1171875-1.7695312.7421875.2265625,1.1171875.3945312,1.125.5039062,0,.03125-.0351562.0703125-.1054688.1171875l-.1992188.140625v2.4375l1.7929688-.703125.0351562-.0117188h-.0234375l.1757812-.28125c.015625-.015625.0351562-.0410156.0585938-.0761719s.0429688-.0605469.0585938-.0761719.0332031-.0351562.0527344-.0585938.0390625-.0390625.0585938-.046875.0371094-.0117188.0527344-.0117188c.0703125,0,.2226562.1132812.4570312.3398438s.3515625.3828125.3515625.46875c-.0703125.078125-.21875.1367188-.4453125.1757812-.015625,1.5078125-.0585938,2.5859375-.1289062,3.234375s-.1953125,1.0742188-.375,1.2773438c-.21875.2421875-.5351562.3632812-.9492188.3632812Z"/>
      <path class="cls-4" d="m104.0125233,6.2929688l.234375-.3515625c.171875-.234375.28125-.3515625.328125-.3515625.078125,0,.2578125.1210938.5390625.3632812s.421875.40625.421875.4921875c-.0390625.1328125-.140625.1992188-.3046875.1992188h-4.546875c.2890625.6328125.6914062,1.1953125,1.2070312,1.6875.328125-.21875.6542969-.4882812.9785156-.8085938s.5683594-.6171875.7324219-.890625c.75.546875,1.03125.8398438.84375.8789062h-.2460938c-.5625.3671875-1.2578125.7109375-2.0859375,1.03125.890625.78125,2.0351562,1.34375,3.4335938,1.6875l-.0117188.1171875c-.3515625.0625-.5859375.2929688-.703125.6914062-2.2265625-.8359375-3.6992188-2.3007812-4.4179688-4.3945312h-.09375c-.4375.4375-.9765625.8476562-1.6171875,1.2304688v1.96875c.28125-.0390625.765625-.1132812,1.453125-.2226562s1.2265625-.1953125,1.6171875-.2578125l.0234375.2109375c-1.3046875.4140625-2.828125.8515625-4.5703125,1.3125-.03125.1328125-.1210938.2226562-.2695312.2695312l-.5625-.984375,1.5585938-.2226562v-1.6640625c-.8828125.4296875-1.890625.7851562-3.0234375,1.0664062l-.0820312-.1992188c1.8125-.59375,3.265625-1.4296875,4.359375-2.5078125h-2.2734375c-.5625.0078125-1.1601562.0625-1.7929688.1640625l-.3164062-.609375c.4375.046875.96875.078125,1.59375.09375h3.3984375c0-.609375-.0273438-1.1054688-.0820312-1.4882812.7421875.2265625,1.1132812.3945312,1.1132812.5039062,0,.03125-.0273438.0664062-.0820312.1054688l-.1757812.1289062v.75h3.421875Zm-9.1289062-2.5078125c.609375-.4921875,1.1679688-1.0742188,1.6757812-1.7460938s.8554688-1.3515625,1.0429688-2.0390625c.734375.3828125,1.1015625.6210938,1.1015625.7148438,0,.03125-.0390625.0546875-.1171875.0703125l-.2226562.0351562c-.2734375.4375-.625.8789062-1.0546875,1.3242188.3828125.28125.5195312.4648438.4101562.5507812-.015625.0078125-.0351562.0195312-.0585938.0351562l-.1640625.0703125v.7265625c.015625.78125.0390625,1.3984375.0703125,1.8515625-.046875.0703125-.1386719.140625-.2753906.2109375s-.2714844.1054688-.4042969.1054688c-.0625,0-.1132812-.0253906-.1523438-.0761719s-.0585938-.1074219-.0585938-.1699219c.0390625-.4453125.0664062-1.03125.0820312-1.7578125v-1.0078125c-.5546875.4921875-1.140625.9101562-1.7578125,1.2539062l-.1171875-.1523438Zm8.953125-1.921875l.2109375-.3398438c.015625-.03125.0371094-.0664062.0644531-.1054688s.0488281-.0722656.0644531-.0996094.0332031-.0546875.0527344-.0820312.0390625-.046875.0585938-.0585938.0371094-.0175781.0527344-.0175781c.078125,0,.2597656.0976562.5449219.2929688s.4277344.3320312.4277344.4101562c-.015625.140625-.1054688.21875-.2695312.234375l-3.7851562.4101562c.609375,1.09375,1.5429688,1.8007812,2.8007812,2.1210938.2109375.0546875.34375.0195312.3984375-.1054688.1328125-.2890625.2460938-.640625.3398438-1.0546875l.1523438.0234375-.0585938,1.2421875c.1640625.109375.2675781.1972656.3105469.2636719s.0527344.1425781.0292969.2285156c-.1015625.2890625-.5625.3203125-1.3828125.09375-1.5703125-.453125-2.6914062-1.3632812-3.3632812-2.7304688l-2.390625.2460938-.1171875-.328125,2.34375-.2578125c-.2578125-.609375-.4492188-1.3007812-.5742188-2.0742188.71875.015625,1.0820312.0703125,1.0898438.1640625,0,.0234375-.0273438.0546875-.0820312.09375l-.1523438.1289062c.1015625.5625.265625,1.0976562.4921875,1.6054688l2.7421875-.3046875Zm-2.4140625-1.3242188l.09375-.1523438c.96875-.0390625,1.6054688.1445312,1.9101562.5507812.1640625.2109375.1835938.3984375.0585938.5625-.1015625.1171875-.2460938.1484375-.4335938.09375-.1640625-.1953125-.4042969-.3945312-.7207031-.5976562s-.6191406-.3554688-.9082031-.4570312Z"/>
      <path class="cls-4" d="m107.8562733,2.4726562c0-.0078125.0039062-.0195312.0117188-.0351562s.0117188-.0273438.0117188-.0351562c.359375-.8515625.5820312-1.640625.6679688-2.3671875.78125.296875,1.1679688.4960938,1.1601562.5976562,0,.03125-.0351562.0585938-.1054688.0820312l-.2226562.0703125c-.515625.84375-.9375,1.4609375-1.265625,1.8515625.359375.3046875.5078125.6132812.4453125.9257812-.0390625.2109375-.1523438.3164062-.3398438.3164062-.09375,0-.1875-.0351562-.28125-.1054688-.0625-.2578125-.1953125-.5332031-.3984375-.8261719s-.421875-.5449219-.65625-.7558594l.1289062-.09375c.3359375.09375.6171875.21875.84375.375Zm.2578125,4.6054688c.359375.046875.4960938.1210938.4101562.2226562-.0234375.0234375-.0585938.046875-.1054688.0703125l-.1875.1054688c-.328125,1.203125-.703125,2.0976562-1.125,2.6835938l-.1992188-.09375c.0859375-.234375.1601562-.4609375.2226562-.6796875.2421875-.875.3476562-1.7148438.3164062-2.5195312l.6679688.2109375Zm.2226562-1.7226562c1.046875-.046875,1.6757812-.0742188,1.8867188-.0820312-.1328125-.3125-.3164062-.6679688-.5507812-1.0664062l.140625-.0703125c.7734375.453125,1.2070312.9570312,1.3007812,1.5117188.0625.3203125-.0039062.5351562-.1992188.6445312-.140625.0859375-.2929688.0546875-.4570312-.09375-.0234375-.2265625-.0703125-.4453125-.140625-.65625-.09375.015625-.2285156.0429688-.4042969.0820312s-.3105469.0664062-.4042969.0820312v2.3085938c.015625.9765625.046875,1.9140625.09375,2.8125-.1640625.203125-.3984375.3046875-.703125.3046875-.0546875,0-.1074219-.0273438-.1582031-.0820312s-.0761719-.109375-.0761719-.1640625c.0703125-1.03125.1132812-2.0703125.1289062-3.1171875v-1.9335938c-.6796875.125-1.0859375.1992188-1.21875.2226562-.078125.140625-.1796875.2226562-.3046875.2460938l-.328125-.9140625c.1171875,0,.4804688-.0078125,1.0898438-.0234375.140625-.25.4453125-.8164062.9140625-1.6992188.4375-.8125.7460938-1.5664062.9257812-2.2617188.71875.34375,1.078125.5703125,1.078125.6796875,0,.03125-.0390625.0585938-.1171875.0820312l-.2226562.046875c-.703125,1.125-1.4609375,2.171875-2.2734375,3.140625Zm1.5351562,1.5351562l.1640625-.0585938c.703125.5390625,1.0703125,1.0976562,1.1015625,1.6757812.015625.328125-.0742188.5351562-.2695312.6210938-.140625.0625-.2851562.0195312-.4335938-.1289062,0-.625-.1875-1.328125-.5625-2.109375Zm2.6953125.1523438h-.5039062c-.28125.0078125-.578125.0625-.890625.1640625l-.328125-.609375c.3203125.046875.7070312.078125,1.1601562.09375h.5273438l.1875-.2109375c.015625-.015625.0390625-.0410156.0703125-.0761719s.0566406-.0625.0761719-.0820312.0410156-.0371094.0644531-.0527344.046875-.0234375.0703125-.0234375c.078125,0,.2226562.0957031.4335938.2871094s.3164062.3300781.3164062.4160156c-.078125.09375-.2304688.1445312-.4570312.1523438-.4609375,1.5625-1.3554688,2.7070312-2.6835938,3.4335938l-.1054688-.1875c1.03125-.7734375,1.71875-1.875,2.0625-3.3046875Zm3.375-5.5078125l.1757812-.2695312c.015625-.0234375.0371094-.0546875.0644531-.09375s.046875-.0683594.0585938-.0878906.0292969-.0390625.0527344-.0585938.046875-.0292969.0703125-.0292969c.078125,0,.2265625.1015625.4453125.3046875s.328125.3476562.328125.4335938c-.0703125.0859375-.2148438.1484375-.4335938.1875v1.2070312c.0234375,1,.0507812,1.7695312.0820312,2.3085938-.140625.1953125-.3671875.2929688-.6796875.2929688h-.1171875v-.4570312h-1.3828125c.171875.890625.4453125,1.6445312.8203125,2.2617188.5546875-.6875.9335938-1.3085938,1.1367188-1.8632812.7109375.53125.9921875.8242188.84375.8789062-.0234375.0078125-.046875.0117188-.0703125.0117188l-.1992188.0117188c-.453125.3984375-.984375.78125-1.59375,1.1484375.5234375.8046875,1.2578125,1.4492188,2.203125,1.9335938l-.0234375.140625c-.28125.0546875-.484375.2851562-.609375.6914062-.703125-.5390625-1.265625-1.1835938-1.6875-1.9335938s-.734375-1.7460938-.9375-2.9882812v4.40625c0,.3515625-.0722656.6191406-.2167969.8027344s-.4394531.3027344-.8847656.3574219c-.015625-.265625-.0820312-.453125-.1992188-.5625-.1953125-.1484375-.5-.25-.9140625-.3046875v-.1757812c.7109375.0546875,1.1367188.0820312,1.2773438.0820312.15625,0,.234375-.078125.234375-.234375v-4.6640625h-1.3945312v.328125c0,.0234375-.0234375.0527344-.0703125.0878906s-.1191406.0664062-.2167969.09375-.2050781.0410156-.3222656.0410156c-.046875,0-.0859375-.0234375-.1171875-.0703125s-.046875-.1015625-.046875-.1640625c.03125-.3359375.0546875-.7773438.0703125-1.3242188v-.7734375c0-.9921875-.0507812-1.7929688-.1523438-2.4023438l.9960938.4453125h.8085938c.125-.53125.1992188-1.0195312.2226562-1.4648438.78125.1640625,1.1679688.296875,1.1601562.3984375,0,.03125-.0351562.0625-.1054688.09375l-.2109375.09375c-.0625.09375-.171875.2421875-.328125.4453125s-.265625.3476562-.328125.4335938h2.1914062Zm.046875,1.6875v-1.359375h-3.5976562v1.359375h3.5976562Zm-3.5976562.3515625v1.3476562h3.5976562v-1.3476562h-3.5976562Z"/>
      <path class="cls-4" d="m120.711742,10.59375c-.234375-.46875-.4804688-.859375-.7382812-1.171875-.328125-.3984375-.609375-.6796875-.84375-.84375-.1484375-.109375-.21875-.1796875-.2109375-.2109375.015625-.0546875.1171875-.0546875.3046875,0,.0703125.015625.203125.0625.3984375.140625s.4375.1894531.7265625.3339844.5644531.3320312.8261719.5625.4433594.4707031.5449219.7207031c.078125.1484375.0800781.3203125.0058594.515625s-.2128906.3164062-.4160156.3632812c-.2109375.0390625-.4101562-.0976562-.5976562-.4101562Z"/>
      <path class="cls-4" d="m137.305492,1.3945312h-4.3945312c-.5078125.0078125-1.1054688.0664062-1.7929688.1757812l-.3046875-.6328125c.53125.0625,1.0625.0976562,1.59375.1054688h3.703125l.234375-.3398438c.015625-.0234375.0371094-.0507812.0644531-.0820312s.0488281-.0585938.0644531-.0820312.0332031-.0488281.0527344-.0761719.0371094-.046875.0527344-.0585938.0332031-.0234375.0527344-.0351562.0371094-.0175781.0527344-.0175781c.078125,0,.2539062.1210938.5273438.3632812s.4101562.40625.4101562.4921875c-.03125.125-.1367188.1875-.3164062.1875Zm-5.2148438,8.8476562v.2226562c.0078125.0546875.0136719.109375.0175781.1640625s.0058594.0957031.0058594.1230469.0039062.0527344.0117188.0761719c-.015625.078125-.0878906.1523438-.2167969.2226562s-.2675781.1054688-.4160156.1054688c-.0546875,0-.1054688-.0253906-.1523438-.0761719s-.0703125-.1074219-.0703125-.1699219c.046875-.6171875.078125-1.2460938.09375-1.8867188v-1.0898438c0-1-.0507812-1.8164062-.1523438-2.4492188l.9375.421875h4.0195312l.1875-.2226562c.1484375-.1640625.2421875-.2460938.28125-.2460938.078125,0,.2441406.1015625.4980469.3046875s.3808594.3476562.3808594.4335938c-.0703125.09375-.234375.1757812-.4921875.2460938v1.4296875c.015625.984375.046875,1.9101562.09375,2.7773438-.0546875.0703125-.1582031.140625-.3105469.2109375s-.2910156.1054688-.4160156.1054688c-.09375,0-.140625-.078125-.140625-.234375.0078125-.0078125.0234375-.0820312.046875-.2226562v-.2460938h-4.2070312Zm3.515625-7.828125l.1875-.2695312c.015625-.0234375.0390625-.0566406.0703125-.0996094s.0566406-.0742188.0761719-.09375.0410156-.0390625.0644531-.0585938.046875-.0292969.0703125-.0292969c.078125,0,.2402344.1132812.4863281.3398438s.3691406.3828125.3691406.46875c-.078125.1015625-.2382812.1796875-.4804688.234375v.6796875c.015625.5390625.0390625.9570312.0703125,1.2539062-.0390625.0625-.1347656.1289062-.2871094.1992188s-.2910156.1054688-.4160156.1054688h-.09375v-.4453125h-3.0703125v.3398438c0,.0234375-.0292969.0527344-.0878906.0878906s-.1367188.0683594-.234375.0996094-.1933594.046875-.2871094.046875c-.1171875,0-.1757812-.078125-.1757812-.234375.015625-.109375.0351562-.390625.0585938-.84375v-.5390625c0-.703125-.03125-1.2578125-.09375-1.6640625l.8789062.421875h2.8945312Zm-1.7695312,5.4492188v-1.59375h-1.7460938v1.59375h1.7460938Zm0,.3632812h-1.7460938v1.6523438h1.7460938v-1.6523438Zm-1.1835938-5.4726562v1.59375h3.0703125v-1.59375h-3.0703125Zm3.6445312,5.109375v-1.59375h-1.7695312v1.59375h1.7695312Zm-1.7695312.3632812v1.6523438h1.7695312v-1.6523438h-1.7695312Zm3.6445312-2.0273438v-2.625c0-1.0078125-.0507812-1.828125-.1523438-2.4609375.765625.2265625,1.1484375.3945312,1.1484375.5039062,0,.0390625-.03125.078125-.09375.1171875l-.2109375.1289062v3.6914062c.015625.9765625.046875,1.9140625.09375,2.8125-.046875.0859375-.1328125.1621094-.2578125.2285156s-.2539062.0996094-.3867188.0996094c-.0703125,0-.1269531-.0253906-.1699219-.0761719s-.0644531-.1074219-.0644531-.1699219c.046875-.734375.078125-1.484375.09375-2.25Zm2.0859375,3.7265625V2.7773438c0-1.0078125-.0507812-1.828125-.1523438-2.4609375.7890625.2265625,1.1835938.3945312,1.1835938.5039062,0,.03125-.0351562.0703125-.1054688.1171875l-.2109375.1289062v8.9414062c0,.359375-.0722656.6269531-.2167969.8027344s-.4511719.2871094-.9199219.3339844c-.03125-.2734375-.109375-.4609375-.234375-.5625-.15625-.140625-.4609375-.2382812-.9140625-.2929688v-.1992188c.734375.0625,1.1757812.09375,1.3242188.09375.1640625,0,.2460938-.0859375.2460938-.2578125Z"/>
      <path class="cls-4" d="m147.2781483,5.7421875l.1992188-.2578125c.015625-.0234375.0390625-.0566406.0703125-.0996094s.0566406-.0742188.0761719-.09375.0410156-.0390625.0644531-.0585938.046875-.0292969.0703125-.0292969c.078125,0,.2402344.1132812.4863281.3398438s.3691406.3828125.3691406.46875c-.09375.109375-.2578125.1875-.4921875.234375v1.4765625c.015625.9921875.046875,1.9335938.09375,2.8242188-.0546875.0703125-.1582031.1386719-.3105469.2050781s-.2832031.0996094-.3925781.0996094-.1640625-.078125-.1640625-.234375c.0078125-.03125.0136719-.0605469.0175781-.0878906s.0078125-.0625.0117188-.1054688.0097656-.0839844.0175781-.1230469v-.2695312h-2.4960938v.2460938c.0078125.0703125.0136719.1367188.0175781.1992188s.0058594.1113281.0058594.1464844.0039062.0683594.0117188.0996094c-.0234375.078125-.0917969.1523438-.2050781.2226562s-.2519531.1054688-.4160156.1054688c-.0546875,0-.1054688-.0253906-.1523438-.0761719s-.0703125-.1074219-.0703125-.1699219c.0546875-.7890625.0898438-1.6601562.1054688-2.6132812v-1.4414062c-.3984375.28125-.8476562.5585938-1.3476562.8320312l-.1171875-.1757812c.578125-.375,1.0664062-.7421875,1.4648438-1.1015625v-.4453125c0-.2265625-.0078125-.3945312-.0234375-.5039062l.6796875.3515625c.4296875-.4140625.8320312-.859375,1.2070312-1.3359375h-1.1835938c-.5078125.0078125-1.1054688.0664062-1.7929688.1757812l-.3046875-.6328125c.53125.0546875,1.0585938.0898438,1.5820312.1054688h.7734375v-1.6757812h-.609375c-.3125.0078125-.6757812.0664062-1.0898438.1757812l-.3046875-.6328125c.453125.0625.9101562.0976562,1.3710938.1054688h.6328125c0-.7265625-.0351562-1.3359375-.1054688-1.828125.765625.2265625,1.1484375.3945312,1.1484375.5039062,0,.03125-.0351562.0703125-.1054688.1171875l-.2226562.1289062v1.078125h.65625l.4804688-.6679688c.2578125.203125.5.4101562.7265625.6210938.296875-.5859375.4960938-1.0859375.5976562-1.5.65625.328125.9882812.5429688.9960938.6445312,0,.03125-.0429688.0546875-.1289062.0703125l-.2460938.0351562c-.5078125,1.0234375-1.1132812,1.9648438-1.8164062,2.8242188h.6796875l.2460938-.3398438c.0234375-.03125.0605469-.0839844.1113281-.1582031s.0898438-.125.1171875-.1523438.0566406-.0410156.0878906-.0410156c.078125,0,.25.1210938.515625.3632812s.3984375.40625.3984375.4921875c-.03125.125-.1289062.1875-.2929688.1875h-2.1679688c-.53125.5859375-.9765625,1.0429688-1.3359375,1.3710938h1.8046875Zm.1171875,1.9335938v-1.5703125h-2.3554688l-.140625.1171875v1.453125h2.4960938Zm-2.4960938.3632812v1.6289062h2.4960938v-1.6289062h-2.4960938Zm2.5898438-5.6953125h-1.640625v1.6757812h.4921875c.3671875-.453125.75-1.0117188,1.1484375-1.6757812Zm4.8164062-.9257812h-2.0039062v6.5625c.015625.9765625.046875,1.9140625.09375,2.8125-.171875.234375-.4101562.3515625-.7148438.3515625-.0546875,0-.109375-.0273438-.1640625-.0820312s-.0820312-.109375-.0820312-.1640625c.078125-1.1796875.125-2.21875.140625-3.1171875V3.0117188c0-.9609375-.0546875-1.78125-.1640625-2.4609375l1.0195312.5273438h1.8515625l.2226562-.2460938c.0234375-.0234375.0507812-.0527344.0820312-.0878906s.0566406-.0625.0761719-.0820312.0410156-.0371094.0644531-.0527344.046875-.0234375.0703125-.0234375c.0703125,0,.2304688.1308594.4804688.3925781s.375.4355469.375.5214844c-.078125.0859375-.2539062.1289062-.5273438.1289062-.71875,1.4140625-1.2851562,2.4375-1.6992188,3.0703125,1.2421875.9140625,1.8632812,1.9257812,1.8632812,3.0351562,0,.59375-.1269531,1.0371094-.3808594,1.3300781s-.6816406.4550781-1.2832031.4863281c0-.3046875-.046875-.5117188-.140625-.6210938-.1171875-.09375-.3554688-.1523438-.7148438-.1757812v-.1875h1.078125c.1328125,0,.2421875-.0234375.328125-.0703125.234375-.1328125.3515625-.4335938.3515625-.9023438,0-1.0234375-.4609375-1.984375-1.3828125-2.8828125.234375-.546875.6210938-1.6445312,1.1601562-3.2929688Z"/>
      <path class="cls-4" d="m156.3484608,4.1132812h.2226562c.1015625.546875.15625,1.0292969.1640625,1.4472656s-.0371094.8027344-.1347656,1.1542969-.2050781.640625-.3222656.8671875-.2460938.4179688-.3867188.5742188c-.171875.1875-.3554688.3105469-.5507812.3691406s-.34375.0292969-.4453125-.0878906c-.1484375-.203125-.09375-.4492188.1640625-.7382812.359375-.2890625.6660156-.7675781.9199219-1.4355469s.3769531-1.3847656.3691406-2.1503906Zm1.6875,5.6601562v-4.5c0-.9609375-.0546875-1.78125-.1640625-2.4609375.8046875.2265625,1.2070312.3945312,1.2070312.5039062,0,.0390625-.03125.078125-.09375.1171875l-.1992188.140625v6.0351562c0,.1484375.0449219.2480469.1347656.2988281s.2832031.0761719.5800781.0761719h1.5c.734375,0,1.2070312-.0117188,1.4179688-.0351562.140625-.0234375.234375-.09375.28125-.2109375.078125-.1796875.2265625-.875.4453125-2.0859375h.140625l.0234375,2.1796875c.2421875.078125.3632812.1992188.3632812.3632812,0,.1484375-.0664062.2597656-.1992188.3339844s-.390625.1289062-.7734375.1640625-.953125.0527344-1.7109375.0527344h-1.59375c-.5390625,0-.9003906-.0664062-1.0839844-.1992188s-.2753906-.390625-.2753906-.7734375Zm.1640625-9.2460938l.0351562-.1054688c1.6171875.3203125,2.6835938.8320312,3.1992188,1.5351562.2578125.34375.3203125.6289062.1875.8554688-.109375.1953125-.2851562.2304688-.5273438.1054688-.015625,0-.0273438-.0039062-.0351562-.0117188-.21875-.359375-.5839844-.7539062-1.0957031-1.1835938s-1.1113281-.796875-1.7988281-1.1015625l.0351562-.09375Zm4.96875,3.4453125c1.1953125.6796875,1.9492188,1.5273438,2.2617188,2.5429688.1953125.609375.1953125,1.1054688,0,1.4882812-.140625.2734375-.3125.34375-.515625.2109375-.0546875-.03125-.109375-.078125-.1640625-.140625-.0234375-.671875-.1699219-1.3769531-.4394531-2.1152344s-.6894531-1.3574219-1.2597656-1.8574219l.1171875-.1289062Z"/>
      <path class="cls-4" d="m167.8562733,2.4726562c0-.0078125.0039062-.0195312.0117188-.0351562s.0117188-.0273438.0117188-.0351562c.359375-.8515625.5820312-1.640625.6679688-2.3671875.78125.296875,1.1679688.4960938,1.1601562.5976562,0,.03125-.0351562.0585938-.1054688.0820312l-.2226562.0703125c-.515625.84375-.9375,1.4609375-1.265625,1.8515625.359375.3046875.5078125.6132812.4453125.9257812-.0390625.2109375-.1523438.3164062-.3398438.3164062-.09375,0-.1875-.0351562-.28125-.1054688-.0625-.2578125-.1953125-.5332031-.3984375-.8261719s-.421875-.5449219-.65625-.7558594l.1289062-.09375c.3359375.09375.6171875.21875.84375.375Zm.2578125,4.6054688c.359375.046875.4960938.1210938.4101562.2226562-.0234375.0234375-.0585938.046875-.1054688.0703125l-.1875.1054688c-.328125,1.203125-.703125,2.0976562-1.125,2.6835938l-.1992188-.09375c.0859375-.234375.1601562-.4609375.2226562-.6796875.2421875-.875.3476562-1.7148438.3164062-2.5195312l.6679688.2109375Zm.2226562-1.7226562c1.046875-.046875,1.6757812-.0742188,1.8867188-.0820312-.1328125-.3125-.3164062-.6679688-.5507812-1.0664062l.140625-.0703125c.7734375.453125,1.2070312.9570312,1.3007812,1.5117188.0625.3203125-.0039062.5351562-.1992188.6445312-.140625.0859375-.2929688.0546875-.4570312-.09375-.0234375-.2265625-.0703125-.4453125-.140625-.65625-.09375.015625-.2285156.0429688-.4042969.0820312s-.3105469.0664062-.4042969.0820312v2.3085938c.015625.9765625.046875,1.9140625.09375,2.8125-.1640625.203125-.3984375.3046875-.703125.3046875-.0546875,0-.1074219-.0273438-.1582031-.0820312s-.0761719-.109375-.0761719-.1640625c.0703125-1.03125.1132812-2.0703125.1289062-3.1171875v-1.9335938c-.6796875.125-1.0859375.1992188-1.21875.2226562-.078125.140625-.1796875.2226562-.3046875.2460938l-.328125-.9140625c.1171875,0,.4804688-.0078125,1.0898438-.0234375.140625-.25.4453125-.8164062.9140625-1.6992188.4375-.8125.7460938-1.5664062.9257812-2.2617188.71875.34375,1.078125.5703125,1.078125.6796875,0,.03125-.0390625.0585938-.1171875.0820312l-.2226562.046875c-.703125,1.125-1.4609375,2.171875-2.2734375,3.140625Zm1.5351562,1.5351562l.1640625-.0585938c.703125.5390625,1.0703125,1.0976562,1.1015625,1.6757812.015625.328125-.0742188.5351562-.2695312.6210938-.140625.0625-.2851562.0195312-.4335938-.1289062,0-.625-.1875-1.328125-.5625-2.109375Zm2.6953125.1523438h-.5039062c-.28125.0078125-.578125.0625-.890625.1640625l-.328125-.609375c.3203125.046875.7070312.078125,1.1601562.09375h.5273438l.1875-.2109375c.015625-.015625.0390625-.0410156.0703125-.0761719s.0566406-.0625.0761719-.0820312.0410156-.0371094.0644531-.0527344.046875-.0234375.0703125-.0234375c.078125,0,.2226562.0957031.4335938.2871094s.3164062.3300781.3164062.4160156c-.078125.09375-.2304688.1445312-.4570312.1523438-.4609375,1.5625-1.3554688,2.7070312-2.6835938,3.4335938l-.1054688-.1875c1.03125-.7734375,1.71875-1.875,2.0625-3.3046875Zm3.375-5.5078125l.1757812-.2695312c.015625-.0234375.0371094-.0546875.0644531-.09375s.046875-.0683594.0585938-.0878906.0292969-.0390625.0527344-.0585938.046875-.0292969.0703125-.0292969c.078125,0,.2265625.1015625.4453125.3046875s.328125.3476562.328125.4335938c-.0703125.0859375-.2148438.1484375-.4335938.1875v1.2070312c.0234375,1,.0507812,1.7695312.0820312,2.3085938-.140625.1953125-.3671875.2929688-.6796875.2929688h-.1171875v-.4570312h-1.3828125c.171875.890625.4453125,1.6445312.8203125,2.2617188.5546875-.6875.9335938-1.3085938,1.1367188-1.8632812.7109375.53125.9921875.8242188.84375.8789062-.0234375.0078125-.046875.0117188-.0703125.0117188l-.1992188.0117188c-.453125.3984375-.984375.78125-1.59375,1.1484375.5234375.8046875,1.2578125,1.4492188,2.203125,1.9335938l-.0234375.140625c-.28125.0546875-.484375.2851562-.609375.6914062-.703125-.5390625-1.265625-1.1835938-1.6875-1.9335938s-.734375-1.7460938-.9375-2.9882812v4.40625c0,.3515625-.0722656.6191406-.2167969.8027344s-.4394531.3027344-.8847656.3574219c-.015625-.265625-.0820312-.453125-.1992188-.5625-.1953125-.1484375-.5-.25-.9140625-.3046875v-.1757812c.7109375.0546875,1.1367188.0820312,1.2773438.0820312.15625,0,.234375-.078125.234375-.234375v-4.6640625h-1.3945312v.328125c0,.0234375-.0234375.0527344-.0703125.0878906s-.1191406.0664062-.2167969.09375-.2050781.0410156-.3222656.0410156c-.046875,0-.0859375-.0234375-.1171875-.0703125s-.046875-.1015625-.046875-.1640625c.03125-.3359375.0546875-.7773438.0703125-1.3242188v-.7734375c0-.9921875-.0507812-1.7929688-.1523438-2.4023438l.9960938.4453125h.8085938c.125-.53125.1992188-1.0195312.2226562-1.4648438.78125.1640625,1.1679688.296875,1.1601562.3984375,0,.03125-.0351562.0625-.1054688.09375l-.2109375.09375c-.0625.09375-.171875.2421875-.328125.4453125s-.265625.3476562-.328125.4335938h2.1914062Zm.046875,1.6875v-1.359375h-3.5976562v1.359375h3.5976562Zm-3.5976562.3515625v1.3476562h3.5976562v-1.3476562h-3.5976562Z"/>
      <path class="cls-4" d="m186.6531483,3.3632812l.1875-.28125c.015625-.015625.0332031-.0390625.0527344-.0703125s.0351562-.0546875.046875-.0703125.0273438-.0351562.046875-.0585938.0351562-.0410156.046875-.0527344.0253906-.0214844.0410156-.0292969.03125-.0117188.046875-.0117188c.078125,0,.2460938.1171875.5039062.3515625s.3867188.3945312.3867188.4804688c-.0859375.09375-.2460938.1679688-.4804688.2226562v2.2148438c.015625.9765625.046875,1.9140625.09375,2.8125-.0546875.078125-.1621094.15625-.3222656.234375s-.3027344.1171875-.4277344.1171875h-.1171875v-.5507812h-3.84375v.3398438c0,.0546875-.0625.1152344-.1875.1816406s-.2617188.0996094-.4101562.0996094c-.0625,0-.1171875-.0234375-.1640625-.0703125s-.0703125-.1015625-.0703125-.1640625c.0546875-.7265625.0898438-1.5195312.1054688-2.3789062v-1.3125c0-1.0078125-.0507812-1.828125-.1523438-2.4609375l.9609375.4570312h.8554688c.0234375-.359375.046875-.7890625.0703125-1.2890625h-2.7773438c-.578125.0078125-1.1796875.0625-1.8046875.1640625l-.3046875-.5976562c.4375.046875.96875.078125,1.59375.09375h3.3046875c.03125-.6796875.0195312-1.2265625-.0351562-1.640625.7734375.0546875,1.1640625.1328125,1.171875.234375,0,.03125-.03125.0703125-.09375.1171875l-.1992188.140625c-.015625.1328125-.0332031.3339844-.0527344.6035156s-.0332031.4511719-.0410156.5449219h2.8945312l.2695312-.3867188c.0234375-.03125.0527344-.0683594.0878906-.1113281s.0644531-.0800781.0878906-.1113281.046875-.0605469.0703125-.0878906.046875-.0488281.0703125-.0644531.0429688-.0234375.0585938-.0234375c.078125,0,.2734375.1328125.5859375.3984375s.46875.4414062.46875.5273438c-.0234375.1328125-.125.1992188-.3046875.1992188h-4.3242188c-.0234375.4140625-.0546875.84375-.09375,1.2890625h2.0976562Zm-6.0351562,6.65625h7.2421875l.28125-.375c.1953125-.2578125.3164062-.3867188.3632812-.3867188.078125,0,.2714844.1328125.5800781.3984375s.4628906.4414062.4628906.5273438c-.03125.125-.1328125.1875-.3046875.1875h-8.625v.4570312c0,.0625-.0664062.1269531-.1992188.1933594s-.2695312.0996094-.4101562.0996094c-.0703125,0-.1347656-.0253906-.1933594-.0761719s-.0878906-.1074219-.0878906-.1699219c.0703125-1.03125.1132812-2.0703125.1289062-3.1171875v-1.7929688c0-1.0078125-.0507812-1.828125-.1523438-2.4609375.8046875.2265625,1.2070312.3945312,1.2070312.5039062,0,.0390625-.03125.078125-.09375.1171875l-.1992188.1171875v5.7773438Zm6.140625-5.0273438v-1.2773438h-3.84375v1.2773438h3.84375Zm0,.3398438h-3.84375v1.3125h3.84375v-1.3125Zm-3.84375,1.6523438v1.3359375h3.84375v-1.3359375h-3.84375Z"/>
      <path class="cls-4" d="m192.336742,5.2734375l.1992188-.3515625c.015625-.0234375.0351562-.0566406.0585938-.0996094s.0429688-.0742188.0585938-.09375.0332031-.0429688.0527344-.0703125.0390625-.046875.0585938-.0585938.0371094-.0175781.0527344-.0175781c.0703125,0,.2460938.1347656.5273438.4042969s.421875.4472656.421875.5332031c-.09375.109375-.28125.1796875-.5625.2109375v3.234375c.3984375.46875.8515625.7714844,1.359375.9082031s1.296875.2050781,2.3671875.2050781c2.1484375,0,3.6914062-.015625,4.6289062-.046875v.1640625c-.3359375.0625-.5234375.2773438-.5625.6445312h-4.0664062c-1.1015625,0-1.921875-.1074219-2.4609375-.3222656s-1.0078125-.6542969-1.40625-1.3183594c-.4609375.578125-.9609375,1.1210938-1.5,1.6289062.03125.109375-.0078125.203125-.1171875.28125l-.5507812-.9609375c.390625-.1875.9257812-.5,1.6054688-.9375v-3.5859375h-.5039062c-.265625.0078125-.5546875.0625-.8671875.1640625l-.28125-.609375c.28125.046875.6171875.078125,1.0078125.09375h.4804688Zm-.9375-4.6640625l.1289062-.09375c1.0078125.3515625,1.6484375.8320312,1.921875,1.4414062.15625.3671875.1445312.6523438-.0351562.8554688-.15625.171875-.3554688.1679688-.5976562-.0117188-.0703125-.34375-.2460938-.7226562-.5273438-1.1367188s-.578125-.765625-.890625-1.0546875Zm8.4492188,2.5664062l.1757812-.28125c.125-.1875.2109375-.28125.2578125-.28125.078125,0,.25.1152344.515625.3457031s.3984375.3886719.3984375.4746094c-.1015625.125-.2695312.2070312-.5039062.2460938v4.7929688c0,.3359375-.0644531.5839844-.1933594.7441406s-.4121094.2636719-.8496094.3105469c-.0234375-.2578125-.078125-.4375-.1640625-.5390625-.1796875-.1328125-.4414062-.21875-.7851562-.2578125v-.1875c.5625.046875.9101562.0703125,1.0429688.0703125.15625,0,.234375-.078125.234375-.234375v-1.2890625h-2.0507812v.703125c.015625.578125.0390625,1.0273438.0703125,1.3476562-.0390625.0625-.1191406.125-.2402344.1875s-.2636719.09375-.4277344.09375c-.1171875,0-.1757812-.078125-.1757812-.234375.03125-.3359375.0546875-.7773438.0703125-1.3242188v-.7734375h-1.9804688v.7148438c.0234375.75.0429688,1.2109375.0585938,1.3828125-.03125.078125-.1132812.1542969-.2460938.2285156s-.2734375.1113281-.421875.1113281c-.0546875,0-.1054688-.0273438-.1523438-.0820312s-.0703125-.109375-.0703125-.1640625c.0625-.9609375.1015625-1.84375.1171875-2.6484375v-1.453125c0-.9609375-.0546875-1.78125-.1640625-2.4609375l.9375.4570312h2.6484375l-.0234375-.0234375c-.4921875-.5390625-1.2460938-1-2.2617188-1.3828125l.0585938-.1875c.9140625.125,1.6328125.3164062,2.15625.5742188.6484375-.4375,1.1171875-.7890625,1.40625-1.0546875h-2.8828125c-.5625.0078125-1.1601562.0625-1.7929688.1640625l-.328125-.609375c.4375.046875.96875.078125,1.59375.09375h3.65625l.2109375-.234375c.171875-.171875.2773438-.2578125.3164062-.2578125.0703125,0,.2226562.1191406.4570312.3574219s.3515625.4003906.3515625.4863281c-.0703125.0625-.234375.1015625-.4921875.1171875-.46875.3359375-1.21875.6953125-2.25,1.078125.171875.109375.3027344.2246094.3925781.3457031s.1308594.2226562.1230469.3046875-.0351562.1582031-.0820312.2285156h1.2890625Zm-2.625,1.7460938v-1.3945312h-1.9804688v1.3945312h1.9804688Zm-1.9804688.3515625v1.453125h1.9804688v-1.453125h-1.9804688Zm4.734375-.3515625v-1.3945312h-2.0507812v1.3945312h2.0507812Zm-2.0507812.3515625v1.453125h2.0507812v-1.453125h-2.0507812Z"/>
      <path class="cls-4" d="m210.758617,4.1015625l.1875-.2929688c.015625-.015625.0332031-.0390625.0527344-.0703125s.0351562-.0546875.046875-.0703125.0273438-.0351562.046875-.0585938.0351562-.0410156.046875-.0527344.0253906-.0214844.0410156-.0292969.03125-.0117188.046875-.0117188c.078125,0,.2597656.1210938.5449219.3632812s.4277344.40625.4277344.4921875c-.1171875.1328125-.3007812.2226562-.5507812.2695312v5.3554688c0,.359375-.0761719.6269531-.2285156.8027344s-.4824219.2871094-.9902344.3339844c-.0546875-.296875-.140625-.4882812-.2578125-.5742188-.203125-.1484375-.5351562-.2539062-.9960938-.3164062v-.1875c.796875.0625,1.28125.09375,1.453125.09375s.2578125-.0898438.2578125-.2695312v-1.6640625h-4.4882812v.890625c.015625.53125.0429688,1.09375.0820312,1.6875-.046875.078125-.1328125.1542969-.2578125.2285156s-.2695312.1113281-.4335938.1113281c-.0546875,0-.109375-.0253906-.1640625-.0761719s-.0820312-.1074219-.0820312-.1699219c.0703125-1.03125.1132812-2.0703125.1289062-3.1171875v-2.9414062c-.7890625.9140625-1.6601562,1.6484375-2.6132812,2.203125l-.1289062-.1523438c1.4296875-1.0625,2.6171875-2.5664062,3.5625-4.5117188h-1.4414062c-.515625.0078125-1.1171875.0664062-1.8046875.1757812l-.328125-.6210938c.5234375.0546875,1.0585938.0898438,1.6054688.1054688h2.1210938c.328125-.71875.5195312-1.390625.5742188-2.015625.796875.265625,1.1953125.4492188,1.1953125.5507812,0,.03125-.0390625.0585938-.1171875.0820312l-.2226562.0585938c-.15625.4453125-.34375.8867188-.5625,1.3242188h4.359375l.2578125-.3632812c.0234375-.0234375.0507812-.0566406.0820312-.0996094s.0566406-.078125.0761719-.1054688.0410156-.0546875.0644531-.0820312.046875-.0488281.0703125-.0644531.0429688-.0234375.0585938-.0234375c.078125,0,.2636719.1269531.5566406.3808594s.4394531.4238281.4394531.5097656c-.03125.125-.1289062.1875-.2929688.1875h-5.8476562c-.34375.6484375-.6796875,1.1953125-1.0078125,1.640625l.2226562.09375h4.2070312Zm.1289062,1.875v-1.5117188h-4.4882812v1.5117188h4.4882812Zm-4.4882812.3515625v1.5234375h4.4882812v-1.5234375h-4.4882812Z"/>
      <path class="cls-4" d="m223.836742,7.171875l.2695312-.375c.0234375-.0234375.0507812-.0566406.0820312-.0996094s.0566406-.078125.0761719-.1054688.0410156-.0546875.0644531-.0820312.046875-.0488281.0703125-.0644531.0429688-.0234375.0585938-.0234375c.078125,0,.2695312.1308594.5742188.3925781s.4570312.4355469.4570312.5214844c-.0234375.1328125-.125.1992188-.3046875.1992188h-4.1953125c.5234375.5546875,1.2089844,1.046875,2.0566406,1.4765625s1.7050781.7421875,2.5722656.9375l-.0117188.140625c-.3671875.0703125-.5898438.296875-.6679688.6796875-.8671875-.296875-1.6777344-.7265625-2.4316406-1.2890625s-1.3652344-1.2109375-1.8339844-1.9453125h-.0703125v1.1132812c.0234375.9296875.0507812,1.6445312.0820312,2.1445312-.0390625.0859375-.1328125.1621094-.28125.2285156s-.296875.0996094-.4453125.0996094c-.0703125,0-.1289062-.0253906-.1757812-.0761719s-.0703125-.1074219-.0703125-.1699219c.046875-.65625.078125-1.3203125.09375-1.9921875v-1.125c-1.1015625,1.328125-2.7226562,2.3476562-4.8632812,3.0585938l-.09375-.1757812c1.71875-.796875,3.0703125-1.8320312,4.0546875-3.1054688h-1.9453125c-.5625.0078125-1.1601562.0625-1.7929688.1640625l-.3164062-.6210938c.4375.046875.96875.078125,1.59375.09375h3.3632812c0-.453125-.0234375-.8554688-.0703125-1.2070312.78125.234375,1.1679688.40625,1.1601562.515625,0,.0390625-.03125.078125-.09375.1171875l-.1992188.1289062v.4453125h3.234375Zm-8.1914062-1.0429688c-.21875-.3046875-.4335938-.6132812-.6445312-.9257812.5625-.203125,1.6015625-.6875,3.1171875-1.453125l.0703125.1523438c-.6796875.5859375-1.4648438,1.2148438-2.3554688,1.8867188-.0234375.171875-.0859375.2851562-.1875.3398438Zm-.2695312-4.9921875l.1289062-.1054688c1.0625.296875,1.7382812.7304688,2.0273438,1.3007812.1640625.328125.1601562.5820312-.0117188.7617188-.1484375.140625-.3359375.140625-.5625,0-.1015625-.296875-.3085938-.6289062-.6210938-.9960938s-.6328125-.6875-.9609375-.9609375Zm5.8945312.3867188l.1757812-.28125c.015625-.015625.0351562-.0410156.0585938-.0761719s.0429688-.0605469.0585938-.0761719.0332031-.0351562.0527344-.0585938.0390625-.0390625.0585938-.046875.0371094-.0117188.0527344-.0117188c.078125,0,.2441406.1113281.4980469.3339844s.3808594.3769531.3808594.4628906c-.09375.109375-.2539062.1875-.4804688.234375v1.265625c.015625,1.046875.0429688,1.8671875.0820312,2.4609375-.046875.0703125-.1464844.1425781-.2988281.2167969s-.2832031.1113281-.3925781.1113281h-.1289062v-.5039062h-2.3320312v.3515625c0,.0390625-.0664062.0917969-.1992188.1582031s-.2695312.0996094-.4101562.0996094c-.0546875,0-.1015625-.0253906-.140625-.0761719s-.0585938-.1074219-.0585938-.1699219c.0390625-.3671875.0664062-.8671875.0820312-1.5v-.8671875c0-1.0078125-.0507812-1.828125-.1523438-2.4609375l.9375.4335938h.4921875c.125-.5390625.1796875-1.0390625.1640625-1.5.7890625.140625,1.1835938.265625,1.1835938.375,0,.03125-.0351562.0664062-.1054688.1054688l-.1992188.1054688c-.0625.09375-.171875.2480469-.328125.4628906s-.2617188.3652344-.3164062.4511719h1.265625Zm.1171875,1.8046875v-1.4648438h-2.3320312v1.4648438h2.3320312Zm-2.3320312.3515625v1.5234375h2.3320312v-1.5234375h-2.3320312Zm3.28125.1875l.09375-.140625c1.34375.2265625,2.2460938.6445312,2.7070312,1.2539062.25.3203125.3046875.5820312.1640625.7851562-.109375.15625-.2851562.1875-.5273438.09375-.2109375-.3203125-.5585938-.671875-1.0429688-1.0546875s-.9492188-.6953125-1.3945312-.9375Zm.140625-.7851562c.7109375-.828125,1.2265625-1.6054688,1.546875-2.3320312l.6445312.4921875c.34375.1953125.5.3242188.46875.3867188-.0078125.0234375-.0429688.0351562-.1054688.0351562l-.1992188-.0117188c-.25.203125-.9921875.7304688-2.2265625,1.5820312l-.1289062-.1523438Z"/>
      <path class="cls-4" d="m228.1375233,8.6132812v.3164062c.0234375.3515625.0390625.546875.046875.5859375-.0234375.0859375-.09375.1621094-.2109375.2285156s-.2539062.0996094-.4101562.0996094c-.0625,0-.1230469-.0253906-.1816406-.0761719s-.0878906-.1035156-.0878906-.1582031c.0703125-1.03125.1132812-2.0703125.1289062-3.1171875v-3.3164062c0-1.0078125-.0507812-1.828125-.1523438-2.4609375l.9257812.4570312h3.1289062l.1875-.2460938c.140625-.15625.2304688-.234375.2695312-.234375.078125,0,.2421875.1015625.4921875.3046875s.375.3476562.375.4335938c-.0859375.109375-.2539062.1914062-.5039062.2460938v4.6640625c.015625.9921875.046875,1.9335938.09375,2.8242188-.0625.0703125-.1660156.1445312-.3105469.2226562s-.2714844.1171875-.3808594.1171875c-.1015625,0-.1523438-.0820312-.1523438-.2460938l.046875-.3515625v-.2929688h-3.3046875Zm1.265625-3.9492188V1.5351562h-1.265625v3.1289062h1.265625Zm0,.3515625h-1.265625v3.234375h1.265625v-3.234375Zm2.0390625-.3515625V1.5351562h-1.359375v3.1289062h1.359375Zm-1.359375.3515625v3.234375h1.359375v-3.234375h-1.359375Zm4.8632812-3.2929688h-.7382812c-.4296875.0078125-.8789062.0625-1.3476562.1640625l-.2929688-.6210938c.4375.046875.96875.078125,1.59375.09375h1.9453125l.2460938-.3632812c.0234375-.0234375.0507812-.0566406.0820312-.0996094s.0566406-.078125.0761719-.1054688.0410156-.0546875.0644531-.0820312.046875-.0488281.0703125-.0644531.0429688-.0234375.0585938-.0234375c.078125,0,.2636719.1308594.5566406.3925781s.4394531.4355469.4394531.5214844c-.03125.125-.1328125.1875-.3046875.1875h-1.6992188v8.1445312c0,.3671875-.0820312.6503906-.2460938.8496094s-.5.3222656-1.0078125.3691406c-.03125-.28125-.1171875-.4726562-.2578125-.5742188-.2109375-.15625-.5703125-.265625-1.078125-.328125v-.1757812c.859375.0625,1.3789062.09375,1.5585938.09375.109375,0,.1835938-.0214844.2226562-.0644531s.0585938-.1113281.0585938-.2050781V1.7226562Z"/>
      <path class="cls-4" d="m239.8562733,2.4726562c0-.0078125.0039062-.0195312.0117188-.0351562s.0117188-.0273438.0117188-.0351562c.359375-.8515625.5820312-1.640625.6679688-2.3671875.78125.296875,1.1679688.4960938,1.1601562.5976562,0,.03125-.0351562.0585938-.1054688.0820312l-.2226562.0703125c-.515625.84375-.9375,1.4609375-1.265625,1.8515625.359375.3046875.5078125.6132812.4453125.9257812-.0390625.2109375-.1523438.3164062-.3398438.3164062-.09375,0-.1875-.0351562-.28125-.1054688-.0625-.2578125-.1953125-.5332031-.3984375-.8261719s-.421875-.5449219-.65625-.7558594l.1289062-.09375c.3359375.09375.6171875.21875.84375.375Zm.2578125,4.6054688c.359375.046875.4960938.1210938.4101562.2226562-.0234375.0234375-.0585938.046875-.1054688.0703125l-.1875.1054688c-.328125,1.203125-.703125,2.0976562-1.125,2.6835938l-.1992188-.09375c.0859375-.234375.1601562-.4609375.2226562-.6796875.2421875-.875.3476562-1.7148438.3164062-2.5195312l.6679688.2109375Zm.2226562-1.7226562c1.046875-.046875,1.6757812-.0742188,1.8867188-.0820312-.1328125-.3125-.3164062-.6679688-.5507812-1.0664062l.140625-.0703125c.7734375.453125,1.2070312.9570312,1.3007812,1.5117188.0625.3203125-.0039062.5351562-.1992188.6445312-.140625.0859375-.2929688.0546875-.4570312-.09375-.0234375-.2265625-.0703125-.4453125-.140625-.65625-.09375.015625-.2285156.0429688-.4042969.0820312s-.3105469.0664062-.4042969.0820312v2.3085938c.015625.9765625.046875,1.9140625.09375,2.8125-.1640625.203125-.3984375.3046875-.703125.3046875-.0546875,0-.1074219-.0273438-.1582031-.0820312s-.0761719-.109375-.0761719-.1640625c.0703125-1.03125.1132812-2.0703125.1289062-3.1171875v-1.9335938c-.6796875.125-1.0859375.1992188-1.21875.2226562-.078125.140625-.1796875.2226562-.3046875.2460938l-.328125-.9140625c.1171875,0,.4804688-.0078125,1.0898438-.0234375.140625-.25.4453125-.8164062.9140625-1.6992188.4375-.8125.7460938-1.5664062.9257812-2.2617188.71875.34375,1.078125.5703125,1.078125.6796875,0,.03125-.0390625.0585938-.1171875.0820312l-.2226562.046875c-.703125,1.125-1.4609375,2.171875-2.2734375,3.140625Zm1.5351562,1.5351562l.1640625-.0585938c.703125.5390625,1.0703125,1.0976562,1.1015625,1.6757812.015625.328125-.0742188.5351562-.2695312.6210938-.140625.0625-.2851562.0195312-.4335938-.1289062,0-.625-.1875-1.328125-.5625-2.109375Zm2.6953125.1523438h-.5039062c-.28125.0078125-.578125.0625-.890625.1640625l-.328125-.609375c.3203125.046875.7070312.078125,1.1601562.09375h.5273438l.1875-.2109375c.015625-.015625.0390625-.0410156.0703125-.0761719s.0566406-.0625.0761719-.0820312.0410156-.0371094.0644531-.0527344.046875-.0234375.0703125-.0234375c.078125,0,.2226562.0957031.4335938.2871094s.3164062.3300781.3164062.4160156c-.078125.09375-.2304688.1445312-.4570312.1523438-.4609375,1.5625-1.3554688,2.7070312-2.6835938,3.4335938l-.1054688-.1875c1.03125-.7734375,1.71875-1.875,2.0625-3.3046875Zm3.375-5.5078125l.1757812-.2695312c.015625-.0234375.0371094-.0546875.0644531-.09375s.046875-.0683594.0585938-.0878906.0292969-.0390625.0527344-.0585938.046875-.0292969.0703125-.0292969c.078125,0,.2265625.1015625.4453125.3046875s.328125.3476562.328125.4335938c-.0703125.0859375-.2148438.1484375-.4335938.1875v1.2070312c.0234375,1,.0507812,1.7695312.0820312,2.3085938-.140625.1953125-.3671875.2929688-.6796875.2929688h-.1171875v-.4570312h-1.3828125c.171875.890625.4453125,1.6445312.8203125,2.2617188.5546875-.6875.9335938-1.3085938,1.1367188-1.8632812.7109375.53125.9921875.8242188.84375.8789062-.0234375.0078125-.046875.0117188-.0703125.0117188l-.1992188.0117188c-.453125.3984375-.984375.78125-1.59375,1.1484375.5234375.8046875,1.2578125,1.4492188,2.203125,1.9335938l-.0234375.140625c-.28125.0546875-.484375.2851562-.609375.6914062-.703125-.5390625-1.265625-1.1835938-1.6875-1.9335938s-.734375-1.7460938-.9375-2.9882812v4.40625c0,.3515625-.0722656.6191406-.2167969.8027344s-.4394531.3027344-.8847656.3574219c-.015625-.265625-.0820312-.453125-.1992188-.5625-.1953125-.1484375-.5-.25-.9140625-.3046875v-.1757812c.7109375.0546875,1.1367188.0820312,1.2773438.0820312.15625,0,.234375-.078125.234375-.234375v-4.6640625h-1.3945312v.328125c0,.0234375-.0234375.0527344-.0703125.0878906s-.1191406.0664062-.2167969.09375-.2050781.0410156-.3222656.0410156c-.046875,0-.0859375-.0234375-.1171875-.0703125s-.046875-.1015625-.046875-.1640625c.03125-.3359375.0546875-.7773438.0703125-1.3242188v-.7734375c0-.9921875-.0507812-1.7929688-.1523438-2.4023438l.9960938.4453125h.8085938c.125-.53125.1992188-1.0195312.2226562-1.4648438.78125.1640625,1.1679688.296875,1.1601562.3984375,0,.03125-.0351562.0625-.1054688.09375l-.2109375.09375c-.0625.09375-.171875.2421875-.328125.4453125s-.265625.3476562-.328125.4335938h2.1914062Zm.046875,1.6875v-1.359375h-3.5976562v1.359375h3.5976562Zm-3.5976562.3515625v1.3476562h3.5976562v-1.3476562h-3.5976562Z"/>
      <path class="cls-4" d="m252.711742,10.59375c-.234375-.46875-.4804688-.859375-.7382812-1.171875-.328125-.3984375-.609375-.6796875-.84375-.84375-.1484375-.109375-.21875-.1796875-.2109375-.2109375.015625-.0546875.1171875-.0546875.3046875,0,.0703125.015625.203125.0625.3984375.140625s.4375.1894531.7265625.3339844.5644531.3320312.8261719.5625.4433594.4707031.5449219.7207031c.078125.1484375.0800781.3203125.0058594.515625s-.2128906.3164062-.4160156.3632812c-.2109375.0390625-.4101562-.0976562-.5976562-.4101562Z"/>
      <path class="cls-4" d="m65.305492,17.3945312h-4.3945312c-.5078125.0078125-1.1054688.0664062-1.7929688.1757812l-.3046875-.6328125c.53125.0625,1.0625.0976562,1.59375.1054688h3.703125l.234375-.3398438c.015625-.0234375.0371094-.0507812.0644531-.0820312s.0488281-.0585938.0644531-.0820312.0332031-.0488281.0527344-.0761719.0371094-.046875.0527344-.0585938.0332031-.0234375.0527344-.0351562.0371094-.0175781.0527344-.0175781c.078125,0,.2539062.1210938.5273438.3632812s.4101562.40625.4101562.4921875c-.03125.125-.1367188.1875-.3164062.1875Zm-5.2148438,8.8476562v.2226562c.0078125.0546875.0136719.109375.0175781.1640625s.0058594.0957031.0058594.1230469.0039062.0527344.0117188.0761719c-.015625.078125-.0878906.1523438-.2167969.2226562s-.2675781.1054688-.4160156.1054688c-.0546875,0-.1054688-.0253906-.1523438-.0761719s-.0703125-.1074219-.0703125-.1699219c.046875-.6171875.078125-1.2460938.09375-1.8867188v-1.0898438c0-1-.0507812-1.8164062-.1523438-2.4492188l.9375.421875h4.0195312l.1875-.2226562c.1484375-.1640625.2421875-.2460938.28125-.2460938.078125,0,.2441406.1015625.4980469.3046875s.3808594.3476562.3808594.4335938c-.0703125.09375-.234375.1757812-.4921875.2460938v1.4296875c.015625.984375.046875,1.9101562.09375,2.7773438-.0546875.0703125-.1582031.140625-.3105469.2109375s-.2910156.1054688-.4160156.1054688c-.09375,0-.140625-.078125-.140625-.234375.0078125-.0078125.0234375-.0820312.046875-.2226562v-.2460938h-4.2070312Zm3.515625-7.828125l.1875-.2695312c.015625-.0234375.0390625-.0566406.0703125-.0996094s.0566406-.0742188.0761719-.09375.0410156-.0390625.0644531-.0585938.046875-.0292969.0703125-.0292969c.078125,0,.2402344.1132812.4863281.3398438s.3691406.3828125.3691406.46875c-.078125.1015625-.2382812.1796875-.4804688.234375v.6796875c.015625.5390625.0390625.9570312.0703125,1.2539062-.0390625.0625-.1347656.1289062-.2871094.1992188s-.2910156.1054688-.4160156.1054688h-.09375v-.4453125h-3.0703125v.3398438c0,.0234375-.0292969.0527344-.0878906.0878906s-.1367188.0683594-.234375.0996094-.1933594.046875-.2871094.046875c-.1171875,0-.1757812-.078125-.1757812-.234375.015625-.109375.0351562-.390625.0585938-.84375v-.5390625c0-.703125-.03125-1.2578125-.09375-1.6640625l.8789062.421875h2.8945312Zm-1.7695312,5.4492188v-1.59375h-1.7460938v1.59375h1.7460938Zm0,.3632812h-1.7460938v1.6523438h1.7460938v-1.6523438Zm-1.1835938-5.4726562v1.59375h3.0703125v-1.59375h-3.0703125Zm3.6445312,5.109375v-1.59375h-1.7695312v1.59375h1.7695312Zm-1.7695312.3632812v1.6523438h1.7695312v-1.6523438h-1.7695312Zm3.6445312-2.0273438v-2.625c0-1.0078125-.0507812-1.828125-.1523438-2.4609375.765625.2265625,1.1484375.3945312,1.1484375.5039062,0,.0390625-.03125.078125-.09375.1171875l-.2109375.1289062v3.6914062c.015625.9765625.046875,1.9140625.09375,2.8125-.046875.0859375-.1328125.1621094-.2578125.2285156s-.2539062.0996094-.3867188.0996094c-.0703125,0-.1269531-.0253906-.1699219-.0761719s-.0644531-.1074219-.0644531-.1699219c.046875-.734375.078125-1.484375.09375-2.25Zm2.0859375,3.7265625v-7.1484375c0-1.0078125-.0507812-1.828125-.1523438-2.4609375.7890625.2265625,1.1835938.3945312,1.1835938.5039062,0,.03125-.0351562.0703125-.1054688.1171875l-.2109375.1289062v8.9414062c0,.359375-.0722656.6269531-.2167969.8027344s-.4511719.2871094-.9199219.3339844c-.03125-.2734375-.109375-.4609375-.234375-.5625-.15625-.140625-.4609375-.2382812-.9140625-.2929688v-.1992188c.734375.0625,1.1757812.09375,1.3242188.09375.1640625,0,.2460938-.0859375.2460938-.2578125Z"/>
      <path class="cls-4" d="m75.2781483,21.7421875l.1992188-.2578125c.015625-.0234375.0390625-.0566406.0703125-.0996094s.0566406-.0742188.0761719-.09375.0410156-.0390625.0644531-.0585938.046875-.0292969.0703125-.0292969c.078125,0,.2402344.1132812.4863281.3398438s.3691406.3828125.3691406.46875c-.09375.109375-.2578125.1875-.4921875.234375v1.4765625c.015625.9921875.046875,1.9335938.09375,2.8242188-.0546875.0703125-.1582031.1386719-.3105469.2050781s-.2832031.0996094-.3925781.0996094-.1640625-.078125-.1640625-.234375c.0078125-.03125.0136719-.0605469.0175781-.0878906s.0078125-.0625.0117188-.1054688.0097656-.0839844.0175781-.1230469v-.2695312h-2.4960938v.2460938c.0078125.0703125.0136719.1367188.0175781.1992188s.0058594.1113281.0058594.1464844.0039062.0683594.0117188.0996094c-.0234375.078125-.0917969.1523438-.2050781.2226562s-.2519531.1054688-.4160156.1054688c-.0546875,0-.1054688-.0253906-.1523438-.0761719s-.0703125-.1074219-.0703125-.1699219c.0546875-.7890625.0898438-1.6601562.1054688-2.6132812v-1.4414062c-.3984375.28125-.8476562.5585938-1.3476562.8320312l-.1171875-.1757812c.578125-.375,1.0664062-.7421875,1.4648438-1.1015625v-.4453125c0-.2265625-.0078125-.3945312-.0234375-.5039062l.6796875.3515625c.4296875-.4140625.8320312-.859375,1.2070312-1.3359375h-1.1835938c-.5078125.0078125-1.1054688.0664062-1.7929688.1757812l-.3046875-.6328125c.53125.0546875,1.0585938.0898438,1.5820312.1054688h.7734375v-1.6757812h-.609375c-.3125.0078125-.6757812.0664062-1.0898438.1757812l-.3046875-.6328125c.453125.0625.9101562.0976562,1.3710938.1054688h.6328125c0-.7265625-.0351562-1.3359375-.1054688-1.828125.765625.2265625,1.1484375.3945312,1.1484375.5039062,0,.03125-.0351562.0703125-.1054688.1171875l-.2226562.1289062v1.078125h.65625l.4804688-.6679688c.2578125.203125.5.4101562.7265625.6210938.296875-.5859375.4960938-1.0859375.5976562-1.5.65625.328125.9882812.5429688.9960938.6445312,0,.03125-.0429688.0546875-.1289062.0703125l-.2460938.0351562c-.5078125,1.0234375-1.1132812,1.9648438-1.8164062,2.8242188h.6796875l.2460938-.3398438c.0234375-.03125.0605469-.0839844.1113281-.1582031s.0898438-.125.1171875-.1523438.0566406-.0410156.0878906-.0410156c.078125,0,.25.1210938.515625.3632812s.3984375.40625.3984375.4921875c-.03125.125-.1289062.1875-.2929688.1875h-2.1679688c-.53125.5859375-.9765625,1.0429688-1.3359375,1.3710938h1.8046875Zm.1171875,1.9335938v-1.5703125h-2.3554688l-.140625.1171875v1.453125h2.4960938Zm-2.4960938.3632812v1.6289062h2.4960938v-1.6289062h-2.4960938Zm2.5898438-5.6953125h-1.640625v1.6757812h.4921875c.3671875-.453125.75-1.0117188,1.1484375-1.6757812Zm4.8164062-.9257812h-2.0039062v6.5625c.015625.9765625.046875,1.9140625.09375,2.8125-.171875.234375-.4101562.3515625-.7148438.3515625-.0546875,0-.109375-.0273438-.1640625-.0820312s-.0820312-.109375-.0820312-.1640625c.078125-1.1796875.125-2.21875.140625-3.1171875v-4.7695312c0-.9609375-.0546875-1.78125-.1640625-2.4609375l1.0195312.5273438h1.8515625l.2226562-.2460938c.0234375-.0234375.0507812-.0527344.0820312-.0878906s.0566406-.0625.0761719-.0820312.0410156-.0371094.0644531-.0527344.046875-.0234375.0703125-.0234375c.0703125,0,.2304688.1308594.4804688.3925781s.375.4355469.375.5214844c-.078125.0859375-.2539062.1289062-.5273438.1289062-.71875,1.4140625-1.2851562,2.4375-1.6992188,3.0703125,1.2421875.9140625,1.8632812,1.9257812,1.8632812,3.0351562,0,.59375-.1269531,1.0371094-.3808594,1.3300781s-.6816406.4550781-1.2832031.4863281c0-.3046875-.046875-.5117188-.140625-.6210938-.1171875-.09375-.3554688-.1523438-.7148438-.1757812v-.1875h1.078125c.1328125,0,.2421875-.0234375.328125-.0703125.234375-.1328125.3515625-.4335938.3515625-.9023438,0-1.0234375-.4609375-1.984375-1.3828125-2.8828125.234375-.546875.6210938-1.6445312,1.1601562-3.2929688Z"/>
      <path class="cls-4" d="m84.3484608,20.1132812h.2226562c.1015625.546875.15625,1.0292969.1640625,1.4472656s-.0371094.8027344-.1347656,1.1542969-.2050781.640625-.3222656.8671875-.2460938.4179688-.3867188.5742188c-.171875.1875-.3554688.3105469-.5507812.3691406s-.34375.0292969-.4453125-.0878906c-.1484375-.203125-.09375-.4492188.1640625-.7382812.359375-.2890625.6660156-.7675781.9199219-1.4355469s.3769531-1.3847656.3691406-2.1503906Zm1.6875,5.6601562v-4.5c0-.9609375-.0546875-1.78125-.1640625-2.4609375.8046875.2265625,1.2070312.3945312,1.2070312.5039062,0,.0390625-.03125.078125-.09375.1171875l-.1992188.140625v6.0351562c0,.1484375.0449219.2480469.1347656.2988281s.2832031.0761719.5800781.0761719h1.5c.734375,0,1.2070312-.0117188,1.4179688-.0351562.140625-.0234375.234375-.09375.28125-.2109375.078125-.1796875.2265625-.875.4453125-2.0859375h.140625l.0234375,2.1796875c.2421875.078125.3632812.1992188.3632812.3632812,0,.1484375-.0664062.2597656-.1992188.3339844s-.390625.1289062-.7734375.1640625-.953125.0527344-1.7109375.0527344h-1.59375c-.5390625,0-.9003906-.0664062-1.0839844-.1992188s-.2753906-.390625-.2753906-.7734375Zm.1640625-9.2460938l.0351562-.1054688c1.6171875.3203125,2.6835938.8320312,3.1992188,1.5351562.2578125.34375.3203125.6289062.1875.8554688-.109375.1953125-.2851562.2304688-.5273438.1054688-.015625,0-.0273438-.0039062-.0351562-.0117188-.21875-.359375-.5839844-.7539062-1.0957031-1.1835938s-1.1113281-.796875-1.7988281-1.1015625l.0351562-.09375Zm4.96875,3.4453125c1.1953125.6796875,1.9492188,1.5273438,2.2617188,2.5429688.1953125.609375.1953125,1.1054688,0,1.4882812-.140625.2734375-.3125.34375-.515625.2109375-.0546875-.03125-.109375-.078125-.1640625-.140625-.0234375-.671875-.1699219-1.3769531-.4394531-2.1152344s-.6894531-1.3574219-1.2597656-1.8574219l.1171875-.1289062Z"/>
      <path class="cls-4" d="m95.8562733,18.4726562c0-.0078125.0039062-.0195312.0117188-.0351562s.0117188-.0273438.0117188-.0351562c.359375-.8515625.5820312-1.640625.6679688-2.3671875.78125.296875,1.1679688.4960938,1.1601562.5976562,0,.03125-.0351562.0585938-.1054688.0820312l-.2226562.0703125c-.515625.84375-.9375,1.4609375-1.265625,1.8515625.359375.3046875.5078125.6132812.4453125.9257812-.0390625.2109375-.1523438.3164062-.3398438.3164062-.09375,0-.1875-.0351562-.28125-.1054688-.0625-.2578125-.1953125-.5332031-.3984375-.8261719s-.421875-.5449219-.65625-.7558594l.1289062-.09375c.3359375.09375.6171875.21875.84375.375Zm.2578125,4.6054688c.359375.046875.4960938.1210938.4101562.2226562-.0234375.0234375-.0585938.046875-.1054688.0703125l-.1875.1054688c-.328125,1.203125-.703125,2.0976562-1.125,2.6835938l-.1992188-.09375c.0859375-.234375.1601562-.4609375.2226562-.6796875.2421875-.875.3476562-1.7148438.3164062-2.5195312l.6679688.2109375Zm.2226562-1.7226562c1.046875-.046875,1.6757812-.0742188,1.8867188-.0820312-.1328125-.3125-.3164062-.6679688-.5507812-1.0664062l.140625-.0703125c.7734375.453125,1.2070312.9570312,1.3007812,1.5117188.0625.3203125-.0039062.5351562-.1992188.6445312-.140625.0859375-.2929688.0546875-.4570312-.09375-.0234375-.2265625-.0703125-.4453125-.140625-.65625-.09375.015625-.2285156.0429688-.4042969.0820312s-.3105469.0664062-.4042969.0820312v2.3085938c.015625.9765625.046875,1.9140625.09375,2.8125-.1640625.203125-.3984375.3046875-.703125.3046875-.0546875,0-.1074219-.0273438-.1582031-.0820312s-.0761719-.109375-.0761719-.1640625c.0703125-1.03125.1132812-2.0703125.1289062-3.1171875v-1.9335938c-.6796875.125-1.0859375.1992188-1.21875.2226562-.078125.140625-.1796875.2226562-.3046875.2460938l-.328125-.9140625c.1171875,0,.4804688-.0078125,1.0898438-.0234375.140625-.25.4453125-.8164062.9140625-1.6992188.4375-.8125.7460938-1.5664062.9257812-2.2617188.71875.34375,1.078125.5703125,1.078125.6796875,0,.03125-.0390625.0585938-.1171875.0820312l-.2226562.046875c-.703125,1.125-1.4609375,2.171875-2.2734375,3.140625Zm1.5351562,1.5351562l.1640625-.0585938c.703125.5390625,1.0703125,1.0976562,1.1015625,1.6757812.015625.328125-.0742188.5351562-.2695312.6210938-.140625.0625-.2851562.0195312-.4335938-.1289062,0-.625-.1875-1.328125-.5625-2.109375Zm2.6953125.1523438h-.5039062c-.28125.0078125-.578125.0625-.890625.1640625l-.328125-.609375c.3203125.046875.7070312.078125,1.1601562.09375h.5273438l.1875-.2109375c.015625-.015625.0390625-.0410156.0703125-.0761719s.0566406-.0625.0761719-.0820312.0410156-.0371094.0644531-.0527344.046875-.0234375.0703125-.0234375c.078125,0,.2226562.0957031.4335938.2871094s.3164062.3300781.3164062.4160156c-.078125.09375-.2304688.1445312-.4570312.1523438-.4609375,1.5625-1.3554688,2.7070312-2.6835938,3.4335938l-.1054688-.1875c1.03125-.7734375,1.71875-1.875,2.0625-3.3046875Zm3.375-5.5078125l.1757812-.2695312c.015625-.0234375.0371094-.0546875.0644531-.09375s.046875-.0683594.0585938-.0878906.0292969-.0390625.0527344-.0585938.046875-.0292969.0703125-.0292969c.078125,0,.2265625.1015625.4453125.3046875s.328125.3476562.328125.4335938c-.0703125.0859375-.2148438.1484375-.4335938.1875v1.2070312c.0234375,1,.0507812,1.7695312.0820312,2.3085938-.140625.1953125-.3671875.2929688-.6796875.2929688h-.1171875v-.4570312h-1.3828125c.171875.890625.4453125,1.6445312.8203125,2.2617188.5546875-.6875.9335938-1.3085938,1.1367188-1.8632812.7109375.53125.9921875.8242188.84375.8789062-.0234375.0078125-.046875.0117188-.0703125.0117188l-.1992188.0117188c-.453125.3984375-.984375.78125-1.59375,1.1484375.5234375.8046875,1.2578125,1.4492188,2.203125,1.9335938l-.0234375.140625c-.28125.0546875-.484375.2851562-.609375.6914062-.703125-.5390625-1.265625-1.1835938-1.6875-1.9335938s-.734375-1.7460938-.9375-2.9882812v4.40625c0,.3515625-.0722656.6191406-.2167969.8027344s-.4394531.3027344-.8847656.3574219c-.015625-.265625-.0820312-.453125-.1992188-.5625-.1953125-.1484375-.5-.25-.9140625-.3046875v-.1757812c.7109375.0546875,1.1367188.0820312,1.2773438.0820312.15625,0,.234375-.078125.234375-.234375v-4.6640625h-1.3945312v.328125c0,.0234375-.0234375.0527344-.0703125.0878906s-.1191406.0664062-.2167969.09375-.2050781.0410156-.3222656.0410156c-.046875,0-.0859375-.0234375-.1171875-.0703125s-.046875-.1015625-.046875-.1640625c.03125-.3359375.0546875-.7773438.0703125-1.3242188v-.7734375c0-.9921875-.0507812-1.7929688-.1523438-2.4023438l.9960938.4453125h.8085938c.125-.53125.1992188-1.0195312.2226562-1.4648438.78125.1640625,1.1679688.296875,1.1601562.3984375,0,.03125-.0351562.0625-.1054688.09375l-.2109375.09375c-.0625.09375-.171875.2421875-.328125.4453125s-.265625.3476562-.328125.4335938h2.1914062Zm.046875,1.6875v-1.359375h-3.5976562v1.359375h3.5976562Zm-3.5976562.3515625v1.3476562h3.5976562v-1.3476562h-3.5976562Z"/>
      <path class="cls-4" d="m114.6531483,19.3632812l.1875-.28125c.015625-.015625.0332031-.0390625.0527344-.0703125s.0351562-.0546875.046875-.0703125.0273438-.0351562.046875-.0585938.0351562-.0410156.046875-.0527344.0253906-.0214844.0410156-.0292969.03125-.0117188.046875-.0117188c.078125,0,.2460938.1171875.5039062.3515625s.3867188.3945312.3867188.4804688c-.0859375.09375-.2460938.1679688-.4804688.2226562v2.2148438c.015625.9765625.046875,1.9140625.09375,2.8125-.0546875.078125-.1621094.15625-.3222656.234375s-.3027344.1171875-.4277344.1171875h-.1171875v-.5507812h-3.84375v.3398438c0,.0546875-.0625.1152344-.1875.1816406s-.2617188.0996094-.4101562.0996094c-.0625,0-.1171875-.0234375-.1640625-.0703125s-.0703125-.1015625-.0703125-.1640625c.0546875-.7265625.0898438-1.5195312.1054688-2.3789062v-1.3125c0-1.0078125-.0507812-1.828125-.1523438-2.4609375l.9609375.4570312h.8554688c.0234375-.359375.046875-.7890625.0703125-1.2890625h-2.7773438c-.578125.0078125-1.1796875.0625-1.8046875.1640625l-.3046875-.5976562c.4375.046875.96875.078125,1.59375.09375h3.3046875c.03125-.6796875.0195312-1.2265625-.0351562-1.640625.7734375.0546875,1.1640625.1328125,1.171875.234375,0,.03125-.03125.0703125-.09375.1171875l-.1992188.140625c-.015625.1328125-.0332031.3339844-.0527344.6035156s-.0332031.4511719-.0410156.5449219h2.8945312l.2695312-.3867188c.0234375-.03125.0527344-.0683594.0878906-.1113281s.0644531-.0800781.0878906-.1113281.046875-.0605469.0703125-.0878906.046875-.0488281.0703125-.0644531.0429688-.0234375.0585938-.0234375c.078125,0,.2734375.1328125.5859375.3984375s.46875.4414062.46875.5273438c-.0234375.1328125-.125.1992188-.3046875.1992188h-4.3242188c-.0234375.4140625-.0546875.84375-.09375,1.2890625h2.0976562Zm-6.0351562,6.65625h7.2421875l.28125-.375c.1953125-.2578125.3164062-.3867188.3632812-.3867188.078125,0,.2714844.1328125.5800781.3984375s.4628906.4414062.4628906.5273438c-.03125.125-.1328125.1875-.3046875.1875h-8.625v.4570312c0,.0625-.0664062.1269531-.1992188.1933594s-.2695312.0996094-.4101562.0996094c-.0703125,0-.1347656-.0253906-.1933594-.0761719s-.0878906-.1074219-.0878906-.1699219c.0703125-1.03125.1132812-2.0703125.1289062-3.1171875v-1.7929688c0-1.0078125-.0507812-1.828125-.1523438-2.4609375.8046875.2265625,1.2070312.3945312,1.2070312.5039062,0,.0390625-.03125.078125-.09375.1171875l-.1992188.1171875v5.7773438Zm6.140625-5.0273438v-1.2773438h-3.84375v1.2773438h3.84375Zm0,.3398438h-3.84375v1.3125h3.84375v-1.3125Zm-3.84375,1.6523438v1.3359375h3.84375v-1.3359375h-3.84375Z"/>
      <path class="cls-4" d="m120.336742,21.2734375l.1992188-.3515625c.015625-.0234375.0351562-.0566406.0585938-.0996094s.0429688-.0742188.0585938-.09375.0332031-.0429688.0527344-.0703125.0390625-.046875.0585938-.0585938.0371094-.0175781.0527344-.0175781c.0703125,0,.2460938.1347656.5273438.4042969s.421875.4472656.421875.5332031c-.09375.109375-.28125.1796875-.5625.2109375v3.234375c.3984375.46875.8515625.7714844,1.359375.9082031s1.296875.2050781,2.3671875.2050781c2.1484375,0,3.6914062-.015625,4.6289062-.046875v.1640625c-.3359375.0625-.5234375.2773438-.5625.6445312h-4.0664062c-1.1015625,0-1.921875-.1074219-2.4609375-.3222656s-1.0078125-.6542969-1.40625-1.3183594c-.4609375.578125-.9609375,1.1210938-1.5,1.6289062.03125.109375-.0078125.203125-.1171875.28125l-.5507812-.9609375c.390625-.1875.9257812-.5,1.6054688-.9375v-3.5859375h-.5039062c-.265625.0078125-.5546875.0625-.8671875.1640625l-.28125-.609375c.28125.046875.6171875.078125,1.0078125.09375h.4804688Zm-.9375-4.6640625l.1289062-.09375c1.0078125.3515625,1.6484375.8320312,1.921875,1.4414062.15625.3671875.1445312.6523438-.0351562.8554688-.15625.171875-.3554688.1679688-.5976562-.0117188-.0703125-.34375-.2460938-.7226562-.5273438-1.1367188s-.578125-.765625-.890625-1.0546875Zm8.4492188,2.5664062l.1757812-.28125c.125-.1875.2109375-.28125.2578125-.28125.078125,0,.25.1152344.515625.3457031s.3984375.3886719.3984375.4746094c-.1015625.125-.2695312.2070312-.5039062.2460938v4.7929688c0,.3359375-.0644531.5839844-.1933594.7441406s-.4121094.2636719-.8496094.3105469c-.0234375-.2578125-.078125-.4375-.1640625-.5390625-.1796875-.1328125-.4414062-.21875-.7851562-.2578125v-.1875c.5625.046875.9101562.0703125,1.0429688.0703125.15625,0,.234375-.078125.234375-.234375v-1.2890625h-2.0507812v.703125c.015625.578125.0390625,1.0273438.0703125,1.3476562-.0390625.0625-.1191406.125-.2402344.1875s-.2636719.09375-.4277344.09375c-.1171875,0-.1757812-.078125-.1757812-.234375.03125-.3359375.0546875-.7773438.0703125-1.3242188v-.7734375h-1.9804688v.7148438c.0234375.75.0429688,1.2109375.0585938,1.3828125-.03125.078125-.1132812.1542969-.2460938.2285156s-.2734375.1113281-.421875.1113281c-.0546875,0-.1054688-.0273438-.1523438-.0820312s-.0703125-.109375-.0703125-.1640625c.0625-.9609375.1015625-1.84375.1171875-2.6484375v-1.453125c0-.9609375-.0546875-1.78125-.1640625-2.4609375l.9375.4570312h2.6484375l-.0234375-.0234375c-.4921875-.5390625-1.2460938-1-2.2617188-1.3828125l.0585938-.1875c.9140625.125,1.6328125.3164062,2.15625.5742188.6484375-.4375,1.1171875-.7890625,1.40625-1.0546875h-2.8828125c-.5625.0078125-1.1601562.0625-1.7929688.1640625l-.328125-.609375c.4375.046875.96875.078125,1.59375.09375h3.65625l.2109375-.234375c.171875-.171875.2773438-.2578125.3164062-.2578125.0703125,0,.2226562.1191406.4570312.3574219s.3515625.4003906.3515625.4863281c-.0703125.0625-.234375.1015625-.4921875.1171875-.46875.3359375-1.21875.6953125-2.25,1.078125.171875.109375.3027344.2246094.3925781.3457031s.1308594.2226562.1230469.3046875-.0351562.1582031-.0820312.2285156h1.2890625Zm-2.625,1.7460938v-1.3945312h-1.9804688v1.3945312h1.9804688Zm-1.9804688.3515625v1.453125h1.9804688v-1.453125h-1.9804688Zm4.734375-.3515625v-1.3945312h-2.0507812v1.3945312h2.0507812Zm-2.0507812.3515625v1.453125h2.0507812v-1.453125h-2.0507812Z"/>
      <path class="cls-4" d="m138.899242,19.3632812l.1992188-.2695312c.015625-.015625.0332031-.0390625.0527344-.0703125s.0351562-.0546875.046875-.0703125.0273438-.0351562.046875-.0585938.0351562-.0410156.046875-.0527344.0253906-.0214844.0410156-.0292969.03125-.0117188.046875-.0117188c.078125,0,.2460938.1171875.5039062.3515625s.3867188.3945312.3867188.4804688c-.0703125.09375-.2304688.1679688-.4804688.2226562v1.2070312c.0234375,1.0078125.0507812,1.78125.0820312,2.3203125-.0546875.0703125-.1601562.1425781-.3164062.2167969s-.296875.1113281-.421875.1113281c-.1015625,0-.1523438-.078125-.1523438-.234375.0078125-.015625.0136719-.0429688.0175781-.0820312s.0097656-.0703125.0175781-.09375v-.1992188h-2.203125c.515625.65625,1.2167969,1.2460938,2.1035156,1.7695312s1.7910156.9023438,2.7128906,1.1367188l-.0234375.1289062c-.15625.0234375-.296875.0957031-.421875.2167969s-.2109375.2714844-.2578125.4511719c-.890625-.34375-1.7226562-.8320312-2.4960938-1.4648438s-1.390625-1.359375-1.8515625-2.1796875v1.2304688c.0234375,1.0234375.0507812,1.8203125.0820312,2.390625-.046875.0859375-.140625.1679688-.28125.2460938s-.2851562.1171875-.4335938.1171875c-.0703125,0-.1289062-.0253906-.1757812-.0761719s-.0703125-.1074219-.0703125-.1699219c.046875-.6640625.078125-1.3398438.09375-2.0273438v-1.1367188c-1.1640625,1.3515625-2.7460938,2.4023438-4.7460938,3.1523438l-.1171875-.1992188c.890625-.4375,1.7167969-.96875,2.4785156-1.59375s1.3847656-1.2890625,1.8691406-1.9921875h-1.875v.4335938c0,.0390625-.0703125.0898438-.2109375.1523438s-.28125.09375-.421875.09375c-.125,0-.1875-.078125-.1875-.234375.03125-.359375.0546875-.8164062.0703125-1.3710938v-.8085938c0-1.0078125-.0507812-1.828125-.1523438-2.4609375l.984375.4570312h2.3085938v-1.2539062h-2.6132812c-.578125.0078125-1.1796875.0625-1.8046875.1640625l-.2929688-.609375c.4375.046875.96875.078125,1.59375.09375h3.1171875c0-.6640625-.0351562-1.2226562-.1054688-1.6757812.78125.234375,1.171875.40625,1.171875.515625.0078125.0390625-.0234375.0820312-.09375.1289062l-.1875.1289062v.9023438h2.9765625l.2695312-.3984375c.0234375-.0234375.0527344-.0585938.0878906-.1054688s.0625-.0839844.0820312-.1113281.0429688-.0566406.0703125-.0878906.0527344-.0527344.0761719-.0644531.0429688-.0175781.0585938-.0175781c.078125,0,.2773438.1347656.5976562.4042969s.4804688.4472656.4804688.5332031c-.0234375.1328125-.125.1992188-.3046875.1992188h-4.3945312v1.2539062h2.3203125Zm-3.1054688,1.6757812v-1.3242188h-2.390625v1.3242188h2.390625Zm0,.3398438h-2.390625v1.359375h2.390625v-1.359375Zm3.2226562-.3398438v-1.3242188h-2.4375v1.3242188h2.4375Zm-2.4375.3398438v1.359375h2.4375v-1.359375h-2.4375Z"/>
      <path class="cls-4" d="m144.6414295,23.6640625l.1992188.0117188c.0703125.625.0019531,1.1640625-.2050781,1.6171875s-.4589844.7851562-.7558594.9960938c-.171875.1171875-.3359375.1796875-.4921875.1875s-.2773438-.0507812-.3632812-.1757812c-.046875-.109375-.0429688-.2226562.0117188-.3398438s.140625-.2148438.2578125-.2929688c.3046875-.1640625.5898438-.4296875.8554688-.796875s.4296875-.7695312.4921875-1.2070312Zm6.3046875-4.7226562l.1992188-.2695312c.015625-.0234375.0449219-.0644531.0878906-.1230469s.0761719-.0996094.0996094-.1230469.0507812-.0351562.0820312-.0351562c.078125,0,.2460938.1152344.5039062.3457031s.3867188.3886719.3867188.4746094c-.09375.109375-.2578125.1875-.4921875.234375v1.171875c.0234375.984375.0507812,1.7382812.0820312,2.2617188-.046875.078125-.1464844.1542969-.2988281.2285156s-.2910156.1113281-.4160156.1113281h-.1171875v-.5390625h-4.5117188c-.578125.0078125-1.1796875.0625-1.8046875.1640625l-.3164062-.609375c.4375.046875.9726562.078125,1.6054688.09375h5.0273438v-1.359375h-4.21875c-.5625.0078125-1.1601562.0625-1.7929688.1640625l-.3046875-.609375c.4375.046875.96875.078125,1.59375.09375h4.7226562v-1.3242188h-6.1640625c-.5234375.46875-1.0742188.8515625-1.6523438,1.1484375l-.1171875-.1523438c.7421875-.5390625,1.4257812-1.2421875,2.0507812-2.109375.234375-.328125.4511719-.703125.6503906-1.125s.3300781-.796875.3925781-1.125c.84375.2734375,1.2617188.4609375,1.2539062.5625,0,.0234375-.0351562.0429688-.1054688.0585938l-.1992188.0351562c-.1328125.2109375-.2578125.4023438-.375.5742188h2.1914062l.234375-.2578125c.171875-.171875.28125-.2578125.328125-.2578125.0703125,0,.2265625.1210938.46875.3632812s.3632812.40625.3632812.4921875c-.0625.0625-.2148438.1015625-.4570312.1171875-.578125.5859375-1.0625,1.0273438-1.453125,1.3242188h2.4726562Zm-5.6601562,0h2.8359375c.296875-.4296875.5703125-.90625.8203125-1.4296875h-2.3789062c-.3984375.5234375-.8242188,1-1.2773438,1.4296875Zm.6210938,5.8125c0-.5859375-.0273438-1.0664062-.0820312-1.4414062.7109375.2265625,1.0664062.390625,1.0664062.4921875,0,.03125-.0273438.0625-.0820312.09375l-.1523438.1171875v1.96875c0,.09375.03125.1542969.09375.1816406s.21875.0410156.46875.0410156h1.4882812c.6875,0,1.1484375-.0078125,1.3828125-.0234375.125-.0078125.2148438-.0585938.2695312-.1523438.1015625-.234375.2148438-.6796875.3398438-1.3359375h.1523438l.0234375,1.3828125c.234375.0703125.3515625.1757812.3515625.3164062,0,.1953125-.1621094.3261719-.4863281.3925781s-1.0097656.0996094-2.0566406.0996094h-1.546875c-.5078125,0-.8398438-.0488281-.9960938-.1464844s-.234375-.3027344-.234375-.6152344v-1.3710938Zm1.3007812-1.546875l.1054688-.1171875c1.046875.1953125,1.7265625.5664062,2.0390625,1.1132812.1796875.3125.1914062.5625.0351562.75-.125.15625-.296875.171875-.515625.046875-.1015625-.3046875-.3164062-.625-.6445312-.9609375s-.6679688-.6132812-1.0195312-.8320312Zm3.5390625.4453125l.1171875-.1054688c1.21875.4140625,2.015625.9765625,2.390625,1.6875.2109375.390625.2382812.7070312.0820312.9492188-.1484375.1953125-.3515625.2109375-.609375.046875-.109375-.421875-.3574219-.8730469-.7441406-1.3535156s-.7988281-.8886719-1.2363281-1.2246094Z"/>
      <path class="cls-4" d="m162.899242,19.3632812l.1992188-.2695312c.015625-.015625.0332031-.0390625.0527344-.0703125s.0351562-.0546875.046875-.0703125.0273438-.0351562.046875-.0585938.0351562-.0410156.046875-.0527344.0253906-.0214844.0410156-.0292969.03125-.0117188.046875-.0117188c.078125,0,.2460938.1171875.5039062.3515625s.3867188.3945312.3867188.4804688c-.0703125.09375-.2304688.1679688-.4804688.2226562v1.2070312c.0234375,1.0078125.0507812,1.78125.0820312,2.3203125-.0546875.0703125-.1601562.1425781-.3164062.2167969s-.296875.1113281-.421875.1113281c-.1015625,0-.1523438-.078125-.1523438-.234375.0078125-.015625.0136719-.0429688.0175781-.0820312s.0097656-.0703125.0175781-.09375v-.1992188h-2.203125c.515625.65625,1.2167969,1.2460938,2.1035156,1.7695312s1.7910156.9023438,2.7128906,1.1367188l-.0234375.1289062c-.15625.0234375-.296875.0957031-.421875.2167969s-.2109375.2714844-.2578125.4511719c-.890625-.34375-1.7226562-.8320312-2.4960938-1.4648438s-1.390625-1.359375-1.8515625-2.1796875v1.2304688c.0234375,1.0234375.0507812,1.8203125.0820312,2.390625-.046875.0859375-.140625.1679688-.28125.2460938s-.2851562.1171875-.4335938.1171875c-.0703125,0-.1289062-.0253906-.1757812-.0761719s-.0703125-.1074219-.0703125-.1699219c.046875-.6640625.078125-1.3398438.09375-2.0273438v-1.1367188c-1.1640625,1.3515625-2.7460938,2.4023438-4.7460938,3.1523438l-.1171875-.1992188c.890625-.4375,1.7167969-.96875,2.4785156-1.59375s1.3847656-1.2890625,1.8691406-1.9921875h-1.875v.4335938c0,.0390625-.0703125.0898438-.2109375.1523438s-.28125.09375-.421875.09375c-.125,0-.1875-.078125-.1875-.234375.03125-.359375.0546875-.8164062.0703125-1.3710938v-.8085938c0-1.0078125-.0507812-1.828125-.1523438-2.4609375l.984375.4570312h2.3085938v-1.2539062h-2.6132812c-.578125.0078125-1.1796875.0625-1.8046875.1640625l-.2929688-.609375c.4375.046875.96875.078125,1.59375.09375h3.1171875c0-.6640625-.0351562-1.2226562-.1054688-1.6757812.78125.234375,1.171875.40625,1.171875.515625.0078125.0390625-.0234375.0820312-.09375.1289062l-.1875.1289062v.9023438h2.9765625l.2695312-.3984375c.0234375-.0234375.0527344-.0585938.0878906-.1054688s.0625-.0839844.0820312-.1113281.0429688-.0566406.0703125-.0878906.0527344-.0527344.0761719-.0644531.0429688-.0175781.0585938-.0175781c.078125,0,.2773438.1347656.5976562.4042969s.4804688.4472656.4804688.5332031c-.0234375.1328125-.125.1992188-.3046875.1992188h-4.3945312v1.2539062h2.3203125Zm-3.1054688,1.6757812v-1.3242188h-2.390625v1.3242188h2.390625Zm0,.3398438h-2.390625v1.359375h2.390625v-1.359375Zm3.2226562-.3398438v-1.3242188h-2.4375v1.3242188h2.4375Zm-2.4375.3398438v1.359375h2.4375v-1.359375h-2.4375Z"/>
      <path class="cls-4" d="m175.9890858,17.5585938l.2226562-.3398438c.1640625-.234375.2695312-.3515625.3164062-.3515625.078125,0,.2480469.1210938.5097656.3632812s.3925781.40625.3925781.4921875c-.0390625.1171875-.1367188.1757812-.2929688.1757812h-1.8515625v1.359375h.8671875l.2226562-.328125c.15625-.21875.2617188-.328125.3164062-.328125.078125,0,.2460938.1152344.5039062.3457031s.3867188.3886719.3867188.4746094c-.0234375.1328125-.1210938.1992188-.2929688.1992188h-3.1171875v.984375h1.7695312l.1640625-.234375c.015625-.015625.03125-.0332031.046875-.0527344s.0292969-.0371094.0410156-.0527344l.0351562-.046875c.0117188-.015625.0234375-.0273438.0351562-.0351562s.0253906-.015625.0410156-.0234375.03125-.0117188.046875-.0117188c.078125,0,.2265625.0859375.4453125.2578125s.328125.3007812.328125.3867188c-.0859375.109375-.2304688.1796875-.4335938.2109375v1.2421875c.0234375,1.046875.0507812,1.8515625.0820312,2.4140625-.1328125.1875-.3554688.28125-.6679688.28125h-.1171875v-.4453125h-4.2421875v.3867188c0,.0234375-.0214844.0527344-.0644531.0878906s-.1113281.0703125-.2050781.1054688-.1953125.0527344-.3046875.0527344c-.046875,0-.0878906-.0253906-.1230469-.0761719s-.0527344-.1074219-.0527344-.1699219c.03125-.375.0546875-.84375.0703125-1.40625v-.84375c0-.9609375-.0546875-1.78125-.1640625-2.4609375l.9726562.4335938h1.6054688v-.984375h-2.9882812l-.0820312-.2929688h-1.125v1.0546875c.7890625.40625,1.2539062.8632812,1.3945312,1.3710938.09375.3125.046875.5234375-.140625.6328125-.1328125.078125-.28125.0507812-.4453125-.0820312-.0859375-.4140625-.3554688-.953125-.8085938-1.6171875v3.2578125c.015625.9921875.046875,1.9335938.09375,2.8242188-.046875.09375-.1367188.1757812-.2695312.2460938s-.265625.1054688-.3984375.1054688c-.078125,0-.1464844-.0253906-.2050781-.0761719s-.0878906-.1074219-.0878906-.1699219c.078125-1.1796875.125-2.21875.140625-3.1171875v-2.15625c-.40625,1.015625-.9648438,1.9453125-1.6757812,2.7890625l-.1640625-.1523438c.7734375-1.21875,1.3359375-2.8554688,1.6875-4.9101562h-.4570312c-.2109375.0078125-.4648438.0664062-.7617188.1757812l-.3046875-.6328125c.375.0625.7539062.0976562,1.1367188.1054688h.5390625v-.4101562c0-.9609375-.0546875-1.78125-.1640625-2.4609375.8046875.234375,1.2070312.4101562,1.2070312.5273438,0,.03125-.0351562.0703125-.1054688.1171875l-.2109375.1289062v2.0976562h.2226562l.5039062-.6796875c.375.3203125.6757812.6015625.9023438.84375,0,.0390625-.0195312.078125-.0585938.1171875h1.4414062v-1.359375h-.5507812c-.2578125.0078125-.5703125.0664062-.9375.1757812l-.2929688-.609375c.34375.046875.75.078125,1.21875.09375h.5625c0-.578125-.0273438-1.0546875-.0820312-1.4296875.6953125.21875,1.046875.3828125,1.0546875.4921875,0,.03125-.03125.0664062-.09375.1054688l-.1757812.1171875v.7148438h1.59375c0-.578125-.0273438-1.0546875-.0820312-1.4296875.6875.21875,1.0273438.3828125,1.0195312.4921875,0,.03125-.0273438.0664062-.0820312.1054688l-.1640625.1171875v.7148438h.703125Zm-2.8828125,7.6992188c.3125.1328125.4570312.234375.4335938.3046875-.015625.0390625-.078125.0625-.1875.0703125l-.2578125.0234375c-.3515625.28125-.8203125.5605469-1.40625.8378906s-1.1757812.4980469-1.7695312.6621094l-.0820312-.1875c.234375-.09375.546875-.2617188.9375-.5039062.3515625-.2109375.6875-.46875,1.0078125-.7734375s.5585938-.5976562.7148438-.8789062l.609375.4453125Zm.375-2.9765625v-1.3359375h-1.734375v1.3359375h1.734375Zm0,.3632812h-1.734375v1.4882812h1.734375v-1.4882812Zm1.1132812-4.7460938h-1.59375v1.359375h1.59375v-1.359375Zm1.3945312,4.3828125v-1.3359375h-1.8164062v1.3359375h1.8164062Zm-1.8164062.3632812v1.4882812h1.8164062v-1.4882812h-1.8164062Zm.1875,2.5898438l.0820312-.140625c1.3125.21875,2.1914062.6210938,2.6367188,1.2070312.2265625.296875.2734375.5351562.140625.7148438-.1015625.1328125-.2578125.1601562-.46875.0820312-.2109375-.296875-.5527344-.625-1.0253906-.984375s-.9277344-.6523438-1.3652344-.8789062Z"/>
      <path class="cls-4" d="m179.8562733,18.4726562c0-.0078125.0039062-.0195312.0117188-.0351562s.0117188-.0273438.0117188-.0351562c.359375-.8515625.5820312-1.640625.6679688-2.3671875.78125.296875,1.1679688.4960938,1.1601562.5976562,0,.03125-.0351562.0585938-.1054688.0820312l-.2226562.0703125c-.515625.84375-.9375,1.4609375-1.265625,1.8515625.359375.3046875.5078125.6132812.4453125.9257812-.0390625.2109375-.1523438.3164062-.3398438.3164062-.09375,0-.1875-.0351562-.28125-.1054688-.0625-.2578125-.1953125-.5332031-.3984375-.8261719s-.421875-.5449219-.65625-.7558594l.1289062-.09375c.3359375.09375.6171875.21875.84375.375Zm.2578125,4.6054688c.359375.046875.4960938.1210938.4101562.2226562-.0234375.0234375-.0585938.046875-.1054688.0703125l-.1875.1054688c-.328125,1.203125-.703125,2.0976562-1.125,2.6835938l-.1992188-.09375c.0859375-.234375.1601562-.4609375.2226562-.6796875.2421875-.875.3476562-1.7148438.3164062-2.5195312l.6679688.2109375Zm.2226562-1.7226562c1.046875-.046875,1.6757812-.0742188,1.8867188-.0820312-.1328125-.3125-.3164062-.6679688-.5507812-1.0664062l.140625-.0703125c.7734375.453125,1.2070312.9570312,1.3007812,1.5117188.0625.3203125-.0039062.5351562-.1992188.6445312-.140625.0859375-.2929688.0546875-.4570312-.09375-.0234375-.2265625-.0703125-.4453125-.140625-.65625-.09375.015625-.2285156.0429688-.4042969.0820312s-.3105469.0664062-.4042969.0820312v2.3085938c.015625.9765625.046875,1.9140625.09375,2.8125-.1640625.203125-.3984375.3046875-.703125.3046875-.0546875,0-.1074219-.0273438-.1582031-.0820312s-.0761719-.109375-.0761719-.1640625c.0703125-1.03125.1132812-2.0703125.1289062-3.1171875v-1.9335938c-.6796875.125-1.0859375.1992188-1.21875.2226562-.078125.140625-.1796875.2226562-.3046875.2460938l-.328125-.9140625c.1171875,0,.4804688-.0078125,1.0898438-.0234375.140625-.25.4453125-.8164062.9140625-1.6992188.4375-.8125.7460938-1.5664062.9257812-2.2617188.71875.34375,1.078125.5703125,1.078125.6796875,0,.03125-.0390625.0585938-.1171875.0820312l-.2226562.046875c-.703125,1.125-1.4609375,2.171875-2.2734375,3.140625Zm1.5351562,1.5351562l.1640625-.0585938c.703125.5390625,1.0703125,1.0976562,1.1015625,1.6757812.015625.328125-.0742188.5351562-.2695312.6210938-.140625.0625-.2851562.0195312-.4335938-.1289062,0-.625-.1875-1.328125-.5625-2.109375Zm2.6953125.1523438h-.5039062c-.28125.0078125-.578125.0625-.890625.1640625l-.328125-.609375c.3203125.046875.7070312.078125,1.1601562.09375h.5273438l.1875-.2109375c.015625-.015625.0390625-.0410156.0703125-.0761719s.0566406-.0625.0761719-.0820312.0410156-.0371094.0644531-.0527344.046875-.0234375.0703125-.0234375c.078125,0,.2226562.0957031.4335938.2871094s.3164062.3300781.3164062.4160156c-.078125.09375-.2304688.1445312-.4570312.1523438-.4609375,1.5625-1.3554688,2.7070312-2.6835938,3.4335938l-.1054688-.1875c1.03125-.7734375,1.71875-1.875,2.0625-3.3046875Zm3.375-5.5078125l.1757812-.2695312c.015625-.0234375.0371094-.0546875.0644531-.09375s.046875-.0683594.0585938-.0878906.0292969-.0390625.0527344-.0585938.046875-.0292969.0703125-.0292969c.078125,0,.2265625.1015625.4453125.3046875s.328125.3476562.328125.4335938c-.0703125.0859375-.2148438.1484375-.4335938.1875v1.2070312c.0234375,1,.0507812,1.7695312.0820312,2.3085938-.140625.1953125-.3671875.2929688-.6796875.2929688h-.1171875v-.4570312h-1.3828125c.171875.890625.4453125,1.6445312.8203125,2.2617188.5546875-.6875.9335938-1.3085938,1.1367188-1.8632812.7109375.53125.9921875.8242188.84375.8789062-.0234375.0078125-.046875.0117188-.0703125.0117188l-.1992188.0117188c-.453125.3984375-.984375.78125-1.59375,1.1484375.5234375.8046875,1.2578125,1.4492188,2.203125,1.9335938l-.0234375.140625c-.28125.0546875-.484375.2851562-.609375.6914062-.703125-.5390625-1.265625-1.1835938-1.6875-1.9335938s-.734375-1.7460938-.9375-2.9882812v4.40625c0,.3515625-.0722656.6191406-.2167969.8027344s-.4394531.3027344-.8847656.3574219c-.015625-.265625-.0820312-.453125-.1992188-.5625-.1953125-.1484375-.5-.25-.9140625-.3046875v-.1757812c.7109375.0546875,1.1367188.0820312,1.2773438.0820312.15625,0,.234375-.078125.234375-.234375v-4.6640625h-1.3945312v.328125c0,.0234375-.0234375.0527344-.0703125.0878906s-.1191406.0664062-.2167969.09375-.2050781.0410156-.3222656.0410156c-.046875,0-.0859375-.0234375-.1171875-.0703125s-.046875-.1015625-.046875-.1640625c.03125-.3359375.0546875-.7773438.0703125-1.3242188v-.7734375c0-.9921875-.0507812-1.7929688-.1523438-2.4023438l.9960938.4453125h.8085938c.125-.53125.1992188-1.0195312.2226562-1.4648438.78125.1640625,1.1679688.296875,1.1601562.3984375,0,.03125-.0351562.0625-.1054688.09375l-.2109375.09375c-.0625.09375-.171875.2421875-.328125.4453125s-.265625.3476562-.328125.4335938h2.1914062Zm.046875,1.6875v-1.359375h-3.5976562v1.359375h3.5976562Zm-3.5976562.3515625v1.3476562h3.5976562v-1.3476562h-3.5976562Z"/>
    </g>
  </g>
</svg>