<?xml version="1.0" encoding="UTF-8"?>
<svg id="_レイヤー_2" data-name="レイヤー 2" xmlns="http://www.w3.org/2000/svg" viewBox="0 0 145 76">
  <defs>
    <style>
      .cls-1, .cls-2, .cls-3 {
        stroke-width: 0px;
      }

      .cls-2 {
        fill: none;
      }

      .cls-3 {
        fill: #78b82a;
      }
    </style>
  </defs>
  <g id="_レイヤー_1-2" data-name="レイヤー 1">
    <g>
      <g>
        <g>
          <path class="cls-1" d="m27.8072046,39.2105004c.5898438.6357422.7753906,1.3747559.5537109,2.2172852-.2216797.7243652-.5771484,1.3671875-1.0644531,1.9289551-.8134766.9165039-1.7148438,1.7219238-2.7041016,2.416748-1.9082031,1.3452148-3.8886719,2.5717773-5.9433594,3.6804199-2.9257812,1.6113281-5.8603516,3.2004395-8.8017578,4.7670898-.4873047.2514648-.8134766.6428223-.9755859,1.1750488-1.359375,3.9909668-2.7265625,7.9819336-4.1015625,11.9729004-.1328125.3840332-.265625.7758789-.3994141,1.1750488-.1181641.3693848-.2666016.7241211-.4433594,1.064209-.0439453.088623-.1142578.1552734-.2099609.1994629-.0966797.0444336-.2041016.0444336-.3222656,0-.2216797-.1035156-.3027344-.2736816-.2441406-.5097656.0449219-.1923828.1035156-.3845215.1777344-.5766602.0146484-.059082.0371094-.1184082.0664062-.1772461,1.4042969-4.109375,2.8007812-8.2182617,4.1904297-12.3276367.0302734-.0444336.0517578-.0959473.0673828-.1552734.0878906-.1772461.125-.3769531.1103516-.5986328-.1181641-.0144043-.2294922,0-.3330078.0444336s-.1992188.0961914-.2880859.1552734c-.0595703.0297852-.1181641.059082-.1767578.088623-1.109375.5617676-2.2109375,1.1162109-3.3046875,1.6628418-.7675781.3845215-1.5439453.776123-2.328125,1.1750488-.2363281.1186523-.4804688.2219238-.7304688.3105469-.1035156.0297852-.2041016.0371094-.2998047.0222168-.0966797-.0146484-.1738281-.0810547-.2333984-.199707-.0742188-.1330566-.0878906-.2473145-.0439453-.3435059.0439453-.0959473.1259766-.1809082.2441406-.255127.2216797-.1474609.4501953-.2805176.6865234-.3989258.4140625-.2070312.8359375-.4138184,1.2646484-.6208496,1.8330078-.9458008,3.6806641-1.8847656,5.5429688-2.815918.4130859-.1918945.6865234-.5100098.8203125-.9533691.8564453-2.4833984,1.7216797-4.9665527,2.5947266-7.449707.6054688-1.7590332,1.2109375-3.510498,1.8173828-5.2548828.0146484-.0441895.0292969-.0810547.0439453-.1108398.0292969-.0737305.0527344-.1586914.0664062-.2548828.015625-.0959473,0-.2106934-.0439453-.34375-.2958984.1330566-.5908203.2587891-.8867188.3769531-.7978516.2365723-1.4716797.6650391-2.0175781,1.2858887-.1337891.1628418-.2958984.199707-.4873047.1108398-.1035156-.0588379-.1669922-.1330566-.1894531-.2216797-.0214844-.088623-.0253906-.1918945-.0107422-.3103027.0595703-.1918945.1552734-.3547363.2880859-.487793s.28125-.2512207.4433594-.3547363c.7988281-.517334,1.6484375-.923584,2.5507812-1.2194824.6796875-.1918945,1.0996094-.6281738,1.2636719-1.3081055.1328125-.605957.3837891-1.1674805.7539062-1.6850586.0732422-.1032715.1621094-.173584.265625-.2106934.1035156-.0368652.2216797-.0112305.3544922.0776367.2509766.1628418.3251953.3918457.2216797.6872559-.0292969.088623-.0820312.1628418-.1552734.2216797-.1474609.1186523-.2587891.255127-.3330078.4101562-.0742188.1552734-.1328125.3215332-.1767578.4990234-.0439453.1330566-.0888672.2587891-.1328125.3769531.0888672.1035156.1689453.1516113.2431641.144043.0742188-.0073242.1484375-.0256348.2226562-.0554199.0439453-.0146484.0800781-.029541.1103516-.0444336,2.5869141-.7241211,5.2177734-.9829102,7.8935547-.7758789,1.1376953.088623,2.2167969.3769531,3.2363281.864502.4882812.2219238.9169922.5249023,1.2871094.9091797Zm-.4003906,2.1506348c.2226562-.6650391.0673828-1.2268066-.4648438-1.6850586-.3398438-.2805176-.7167969-.5021973-1.1308594-.6650391-.9902344-.4138184-2.0253906-.6430664-3.1035156-.6875-2.6464844-.088623-5.2402344.2438965-7.7832031.9978027-.4287109.1184082-.6953125.3918457-.7978516.8203125-.7685547,2.2026367-1.5302734,4.4050293-2.2841797,6.6071777-.6503906,1.8625488-1.3007812,3.732666-1.9511719,5.6096191-.0146484.0593262-.0371094.1184082-.0664062.1774902-.0439453.088623-.0771484.1811523-.0996094.2770996-.0214844.0961914-.0185547.2033691.0117188.3215332.2363281-.0146484.4433594-.0888672.6201172-.2219238.0595703-.0441895.1181641-.0810547.1777344-.1108398.2363281-.1181641.4794922-.2438965.7314453-.3769531,1.7294922-.9311523,3.4589844-1.8696289,5.1884766-2.8156738,2.4238281-1.2861328,4.78125-2.6975098,7.0732422-4.2348633.9746094-.6503906,1.8847656-1.4040527,2.7265625-2.2614746.5019531-.5024414.8867188-1.0864258,1.1523438-1.751709Z"/>
          <path class="cls-1" d="m29.0708765,56.3049829c-.2666016.1923828-.5546875.340332-.8652344.4436035-1.5371094.5617676-3.1191406.8867188-4.7441406.9755859-.4140625.0148926-.7246094.1848145-.9316406.5097656-.5761719.8425293-1.2861328,1.5449219-2.1289062,2.1064453-.5175781.3696289-1.09375.5839844-1.7285156.6428223-.8730469.0300293-1.4638672-.3618164-1.7744141-1.1750488-.2060547-.605957-.2587891-1.2194824-.1552734-1.840332.1777344-1.152832.546875-2.2392578,1.109375-3.2592773.0136719-.0144043.0292969-.0366211.0439453-.0664062.0585938-.1181641.125-.2250977.1992188-.3215332.0732422-.0959473.1699219-.1364746.2880859-.1218262.2363281.0148926.40625-.0256348.5097656-.1220703.1035156-.0959473.1855469-.2250977.2441406-.3879395.0292969-.0588379.0585938-.1181641.0888672-.1774902.2666016-.4433594.6611328-.7792969,1.1865234-1.0087891.5244141-.2290039,1.0751953-.3066406,1.6513672-.232666.9306641.1772461,1.5146484.7316895,1.7519531,1.6628418.1328125.6506348.1025391,1.293457-.0888672,1.9289551-.015625.0742188-.0371094.1479492-.0664062.2216797-.0888672.1923828-.1328125.4067383-.1328125.6430664.3984375.059082.7832031.0371094,1.1523438-.0666504.0585938,0,.1113281-.0070801.1552734-.0219727.0888672-.0146484.1777344-.029541.2666016-.0444336,1.2265625-.1774902,2.4013672-.5395508,3.5253906-1.0864258.1328125-.0737305.2617188-.1181641.3876953-.1330566.1259766-.0146484.2324219.0444336.3212891.1774902.0888672.1625977.0996094.3068848.0332031.4321289-.0664062.1259766-.1660156.2329102-.2988281.3215332Zm-9.7558594,3.5476074c1.0341797-.5024414,1.8847656-1.2709961,2.5498047-2.3059082-1.3017578-.487793-2.2470703-1.3449707-2.8388672-2.5720215-.5605469.5620117-.9375,1.1716309-1.1298828,1.8293457s-.28125,1.3413086-.2666016,2.0507812c.0742188,1.1086426.6357422,1.4411621,1.6855469.9978027Zm3.015625-3.3259277c.2509766-.1328125.4130859-.3469238.4873047-.6428223.0732422-.2956543.1181641-.5837402.1337891-.8647461,0-.0588379.0058594-.1181641.0214844-.1774902-.0449219-1.182373-.546875-1.729248-1.5078125-1.640625-.3251953.0297852-.625.1108398-.8984375.2438965s-.46875.3623047-.5869141.6872559c-.0888672.2958984-.0703125.5581055.0556641.7871094.125.2294922.2841797.4472656.4765625.6540527.0136719.0148926.0292969.0297852.0449219.0444336.0136719.0297852.0361328.052002.0664062.0664062.0732422.0593262.1464844.1259766.2207031.199707.2363281.2216797.4804688.4067383.7324219.5541992.2509766.1479492.5019531.1774902.7539062.088623Z"/>
          <path class="cls-1" d="m29.8462671,60.8723657c-1.2851562,0-1.9951172-.5837402-2.1279297-1.7514648-.0595703-.6945801.0185547-1.3525391.2333984-1.9733887.2138672-.6208496.4833984-1.2265625.8085938-1.8181152.0449219-.1181641.1220703-.1955566.2324219-.232666.1113281-.0368652.2333984-.0256348.3662109.0332031.1328125.0742188.2001953.1628418.2001953.2661133,0,.1035156-.0302734.2216797-.0898438.3547363-.3242188.6506348-.5839844,1.3378906-.7753906,2.0620117,0,.0441895-.0078125.0812988-.0224609.1108398-.0292969.1330566-.0517578.2736816-.0664062.4211426-.1328125,1.3010254.4433594,1.810791,1.7294922,1.5300293.7382812-.2216797,1.4335938-.5395508,2.0839844-.9533691,1.6699219-.9606934,3.2666016-2.0178223,4.7890625-3.1706543.5175781-.4284668.8427734-.4951172.9755859-.1994629.1035156.2070312.1074219.3806152.0107422.5209961-.0957031.140625-.2099609.2548828-.34375.3435059l-.0214844.0222168c-2.0400391,1.6262207-4.2421875,3.0009766-6.6074219,4.1240234-.4726562.2072754-.9316406.3103027-1.375.3103027Zm-.0878906-7.6269531c-.2226562-.0146484-.3398438-.1477051-.3554688-.3991699-.0146484-.2512207.0585938-.4655762.2226562-.6430664.6503906-.8867188,1.3886719-1.6923828,2.2167969-2.416748.1181641-.088623.2441406-.1696777.3769531-.2438965.1777344-.088623.3398438-.0664062.4882812.0666504.1171875.1628418.125.3251953.0214844.487793-.1328125.1772461-.2734375.3325195-.421875.4655762-.8125.6948242-1.5214844,1.4855957-2.1279297,2.3723145-.0439453.0742188-.0966797.140625-.1552734.199707s-.1484375.0961914-.265625.1108398Z"/>
          <path class="cls-1" d="m51.5747827,55.5068871c.1777344-.1625977.3632812-.1625977.5546875,0,.0888672.0742188.1367188.1589355.1445312.2548828.0068359.0964355-.0195312.1960449-.078125.2993164-.1181641.2365723-.28125.4436035-.4873047.6208496-.2666016.2365723-.5322266.4733887-.7978516.7094727-1.3613281,1.2270508-2.7207031,2.4538574-4.0800781,3.6806641-.4589844.4287109-.9755859.7614746-1.5527344.9975586-.8710938.2958984-1.3818359,0-1.5292969-.8867188-.0742188-.5910645-.0371094-1.1750488.1113281-1.751709.2802734-1.152832.6210938-2.2758789,1.0195312-3.3701172.1328125-.3989258.265625-.8054199.3984375-1.2194824.015625-.0588379.0371094-.1252441.0664062-.1994629.2226562-.5910645.3701172-1.2045898.4443359-1.840332.0732422-.6352539-.1630859-.7832031-.7099609-.4433594-.3984375.1923828-.7685547.4289551-1.1083984.7094727-2.8232422,2.4094238-5.0996094,5.2548828-6.8291016,8.5361328-.0292969.0444336-.0507812.0964355-.0664062.1552734-.0146484.0148926-.0214844.0371094-.0214844.0666504-.0449219.1328125-.1035156.2514648-.1777344.3547363-.0742188.1035156-.1992188.140625-.3769531.1108398-.1914062-.029541-.3554688-.1364746-.4882812-.3215332-.1328125-.1848145-.1914062-.3803711-.1777344-.5876465.0605469-.2954102.1337891-.5837402.2226562-.8647461.9453125-3.3845215,2.046875-6.7180176,3.3027344-9.9995117.0898438-.2512207.2001953-.4951172.3330078-.7316895.0595703-.1330566.1445312-.232666.2548828-.2993164.1113281-.0664062.2402344-.0554199.3886719.0332031.1171875.0742188.1835938.1665039.1992188.2773438.0146484.1108398-.015625.2253418-.0888672.3435059-.0302734.0593262-.0595703.1186523-.0888672.1774902,0,.0297852-.0078125.052002-.0214844.0664062-.8867188,2.2915039-1.6708984,4.6118164-2.3505859,6.9621582-.1337891.4287109-.2666016.8500977-.3994141,1.2636719v.1330566c.015625.0297852.0224609.0742188.0224609.1330566.2216797-.1625977.3769531-.347168.4658203-.5541992.0439453-.059082.0878906-.1181641.1328125-.1774902,1.2119141-1.8181152,2.6162109-3.480957,4.2128906-4.9887695.6054688-.576416,1.2636719-1.0786133,1.9726562-1.5075684.3251953-.2216797.6796875-.3620605,1.0644531-.4213867.6210938-.088623,1.0273438.1628418,1.2197266.7539062.0888672.3547363.1025391.7094727.0439453,1.064209-.1621094.8425293-.3916016,1.6628418-.6875,2.4611816-.0136719.0593262-.0292969.1184082-.0439453.1772461-.0888672.2661133-.1767578.5322266-.2666016.7983398-.3837891,1.064209-.7089844,2.1506348-.9746094,3.2592773-.015625.0739746-.0302734.1552734-.0449219.2438965-.0585938.2216797-.0957031.432373-.1103516.6318359s.0439453.3513184.1767578.4545898c.1777344.1184082.3515625.1257324.5214844.0222168.1699219-.1032715.328125-.2290039.4765625-.3769531.0742188-.059082.140625-.1181641.1992188-.1774902,1.2568359-1.0493164,2.4765625-2.128418,3.6582031-3.2370605.5175781-.4729004,1.0351562-.9533691,1.5527344-1.4411621.0585938-.0444336.1113281-.088623.1552734-.1330566.0732422-.088623.1552734-.1623535.2431641-.2216797Z"/>
          <path class="cls-1" d="m72.6607202,46.7932641c.1328125.1035156.1855469.2365723.1552734.3991699-.0439453.1628418-.140625.2587891-.2880859.2880859-.2070312.0148926-.4140625.0148926-.6210938,0-4.5078125-.3103027-9.0166016-.4284668-13.5244141-.3547363h-2.1728516c-.2363281,0-.4101562.0112305-.5214844.0334473-.1103516.0219727-.1953125.0852051-.2548828.1882324-.0595703.1037598-.1259766.2661133-.1992188.487793-3.0458984,8.8244629-5.9052734,17.7077637-8.5810547,26.6508789-.1171875.3989258-.2509766.7980957-.3984375,1.1972656-.0449219.1181641-.1152344.2067871-.2109375.2658691s-.2109375.0666504-.34375.0222168c-.1328125-.0441895-.2177734-.1218262-.2548828-.232666-.0361328-.1108398-.0400391-.2329102-.0107422-.3659668.0742188-.2810059.1542969-.5617676.2441406-.8425293,2.6308594-8.8686523,5.453125-17.6708984,8.46875-26.4067383.0585938-.1772461.1259766-.3693848.1992188-.576416.0302734-.1032715.0673828-.2216797.1113281-.3547363h-1.6621094c-1.1835938-.0146484-2.34375-.0146484-3.4814453,0-3.0888672.0739746-6.1787109.1550293-9.2685547.2438965-.3398438,0-.6796875.0075684-1.0195312.0222168h-.2216797c-.1328125-.0146484-.2695312-.0112305-.4101562.0109863-.1396484.0222168-.2626953.0852051-.3662109.1884766-.2207031.2070312-.4277344.1921387-.6201172-.0444336-.1630859-.2661133-.1337891-.5097656.0888672-.7316895.1181641-.1181641.2539062-.1955566.4101562-.232666.1542969-.0368652.3212891-.0554199.4980469-.0554199.4736328-.0146484.9472656-.029541,1.4199219-.0444336,1.0341797-.0444336,2.0615234-.0810547,3.0820312-.1108398.8867188-.0146484,1.765625-.0366211,2.6376953-.0664062,2.8525391-.0888672,5.6982422-.1403809,8.5361328-.1552734.2519531,0,.4326172-.0112305.5429688-.0332031.1113281-.0222168.1962891-.0849609.2558594-.1884766.0585938-.1032715.125-.2661133.1992188-.487793.1181641-.3693848.2285156-.7316895.3320312-1.0864258.0449219-.1477051.0898438-.2956543.1328125-.4436035.0595703-.1623535.1113281-.3325195.15625-.5097656.0439453-.1625977.1132812-.2993164.2109375-.4101562.0957031-.111084.2324219-.1442871.4101562-.0998535.1914062.0742188.2949219.1884766.3095703.34375.0146484.1550293-.0068359.314209-.0664062.4765625-.1181641.3696289-.2363281.7316895-.3544922,1.0864258-.0742188.2216797-.140625.4511719-.1992188.6872559-.0449219.1037598-.0820312.2219238-.1113281.3547363-.015625.0593262-.0292969.1186523-.0449219.1774902.1191406.0742188.2363281.1147461.3554688.1218262.1181641.0078125.2363281.0039062.3544922-.0109863h.1767578c1.109375.0148926,2.2109375.0222168,3.3046875.0222168,2.1582031,0,4.3085938.0148926,6.4511719.0441895,1.8037109,0,3.5996094.1037598,5.3886719.3105469.0439453.0148926.0800781.0222168.1103516.0222168.2363281.0148926.4580078.0812988.6650391.1994629Z"/>
        </g>
        <path class="cls-3" d="m128.6652148,1.0310832c2.4560168.1932976,4.3258239,1.1110191,5.6094211,2.7526592,1.2825866,1.6423981,1.7454901,3.6777083,1.3866893,6.1059307-.413379,2.3180554-1.3108863,4.4291686-2.6905007,6.3335924-2.2356828,3.2564964-4.9959223,6.0023333-8.278697,8.2375108-2.7885393,1.9322182-5.9480078,3.4500467-9.4804271,4.5537382.2759229.1655032.5376959.30397.7863297.4138843.3860899.1932976.7317515.3590535,1.0349635.4967623,2.5388948,1.2419056,4.8433056,2.8426121,6.9132325,4.8018666,3.7800424,3.7813057,5.7125132,8.0656906,5.7953911,12.8534074.0828779,4.7882221-1.7242653,9.1276905-5.4234511,13.0189106-4.1115541,4.194432-9.0923158,6.4990956-14.9432958,6.9129799-3.1736184.2483811-6.1400421-.4553233-8.8992708-2.1111132-2.8987063-1.8215458-4.3470487-4.4435712-4.3470487-7.8653181-.0272891-2.0426379.2759229-4.0425734.9106466-6.0023333.303212-1.0205609.8004796-1.9312075,1.4897814-2.7321924.303212-.3310064.6630235-.593032,1.0774131-.7863297.3577901-.1379614.6610021-.0828779.9096359.1655032.2486338.2761756.2759229.5796402.0828779.9106466-.0828779.1384668-.1799058.2627837-.2890621.372698v.041439c-1.2421583,1.4352032-1.987049,2.9873958-2.2356828,4.6568303s-.2486338,3.3873829,0,5.1538452c.3860899,2.1247578,1.5726593,3.6976698,3.5597083,4.7189887,3.0361624,1.683079,6.2360592,2.1939912,9.6037333,1.5317257,4.7745776-.8280213,8.8315535-3.0083679,12.1709278-6.5405345,3.0907405-3.4222523,4.6088217-7.2093696,4.5532328-11.3631206-.0555889-4.1529931-1.6706979-7.913074-4.8433056-11.2802427-2.8431174-2.8699011-6.1956309-4.9261835-10.0595619-6.1678365-.1374561-.0550835-.2890621-.0965225-.4548179-.1243169-.3315117-.1099143-.6488736-.2205867-.9520855-.3312591-.3871006-.1655032-.5942954-.4687151-.6205738-.9106466.0545782-.4411734.2890621-.7173489.7034517-.8277686.2486338-.0828779.4972676-.1379614.7448907-.1657559.1384668-.0270364.261773-.0548308.3729507-.0826253,6.484693-1.5175758,11.9627223-4.7326332,16.4340879-9.6451723,1.7929934-1.8485822,3.1594686-3.974098,4.0974042-6.3750313.5801455-1.4074088.7721798-2.8699011.5801455-4.3879823-.3871006-2.207383-1.6696872-3.6428389-3.8507918-4.3051044-1.5726593-.4411734-3.1453187-.4553233-4.717978-.041439-5.3547231,1.2148692-9.5774549,4.0847704-12.6681954,8.6104615-.0272891.0277944-.0545782.041439-.0818672.041439-.2213447.30397-.4012505.6208265-.5387066.9520855-.1374561.3310064-.1799058.7037044-.1233062,1.1175887.0828779.4694732-.1111777.7451434-.5801455.8277686-.4416787.0280471-.7590406-.1377088-.9520855-.4965096-.2486338-.4967623-.2627837-.9793746-.041439-1.4488478.2759229-.8002269.6478629-1.5317257,1.1178414-2.1939912,3.3120852-4.8018666,7.8097292-7.8509155,13.4949534-9.14841,1.2138585-.2483811,2.4287277-.3312591,3.6425863-.2483811Z"/>
      </g>
      <rect class="cls-2" width="145" height="76"/>
    </g>
  </g>
</svg>