<?xml version="1.0" encoding="UTF-8"?>
<svg id="_レイヤー_2" data-name="レイヤー 2" xmlns="http://www.w3.org/2000/svg" viewBox="0 0 145 76">
  <defs>
    <style>
      .cls-1, .cls-2, .cls-3 {
        stroke-width: 0px;
      }

      .cls-2 {
        fill: none;
      }

      .cls-3 {
        fill: #78b82a;
      }
    </style>
  </defs>
  <g id="_レイヤー_1-2" data-name="レイヤー 1">
    <g>
      <g>
        <g>
          <path class="cls-1" d="m27.8067751,39.2105004c.5908203.6357422.7758789,1.3747559.5541992,2.2172852-.2216797.7243652-.5766602,1.3671875-1.0644531,1.9289551-.8129883.9165039-1.7148438,1.7219238-2.7045898,2.416748-1.9072266,1.3452148-3.8881836,2.5717773-5.9423828,3.6804199-2.9267578,1.6113281-5.8608398,3.2004395-8.8022461,4.7670898-.487793.2514648-.8129883.6428223-.9755859,1.1750488-1.3598633,3.9909668-2.7270508,7.9819336-4.1015625,11.9729004-.1333008.3840332-.2661133.7758789-.3994141,1.1750488-.1181641.3693848-.2661133.7241211-.4433594,1.064209-.0444336.088623-.1147461.1552734-.2104492.1994629-.0961914.0444336-.2036133.0444336-.3217773,0-.2216797-.1035156-.3027344-.2736816-.2436523-.5097656.0444336-.1923828.1030273-.3845215.1772461-.5766602.0146484-.059082.0366211-.1184082.0664062-.1772461,1.4042969-4.109375,2.8012695-8.2182617,4.1904297-12.3276367.0297852-.0444336.0517578-.0959473.0668945-.1552734.0883789-.1772461.1254883-.3769531.1108398-.5986328-.1186523-.0144043-.2294922,0-.3325195.0444336-.1040039.0444336-.199707.0961914-.2885742.1552734-.059082.0297852-.1181641.059082-.1772461.088623-1.1083984.5617676-2.2099609,1.1162109-3.3037109,1.6628418-.7685547.3845215-1.5444336.776123-2.328125,1.1750488-.2363281.1186523-.4804688.2219238-.7314453.3105469-.1035156.0297852-.2036133.0371094-.2993164.0222168-.0961914-.0146484-.1738281-.0810547-.2329102-.199707-.0742188-.1330566-.0888672-.2473145-.0444336-.3435059.0444336-.0959473.1254883-.1809082.2441406-.255127.2216797-.1474609.4506836-.2805176.6870117-.3989258.4140625-.2070312.8349609-.4138184,1.2641602-.6208496,1.8325195-.9458008,3.6801758-1.8847656,5.5429688-2.815918.4135742-.1918945.6870117-.5100098.8203125-.9533691.8569336-2.4833984,1.7216797-4.9665527,2.5942383-7.449707.605957-1.7590332,1.2114258-3.510498,1.8178711-5.2548828.0146484-.0441895.0292969-.0810547.0444336-.1108398.0292969-.0737305.0517578-.1586914.0664062-.2548828.0146484-.0959473,0-.2106934-.0444336-.34375-.2958984.1330566-.5913086.2587891-.8867188.3769531-.7983398.2365723-1.4711914.6650391-2.0175781,1.2858887-.1333008.1628418-.2958984.199707-.487793.1108398-.1035156-.0588379-.1665039-.1330566-.1884766-.2216797-.0224609-.088623-.0258789-.1918945-.0112305-.3103027.059082-.1918945.1552734-.3547363.2880859-.487793.1333008-.1330566.2807617-.2512207.4438477-.3547363.7978516-.517334,1.6479492-.923584,2.5498047-1.2194824.6796875-.1918945,1.1005859-.6281738,1.2636719-1.3081055.1328125-.605957.3842773-1.1674805.7539062-1.6850586.0737305-.1032715.1621094-.173584.2661133-.2106934.1030273-.0368652.2216797-.0112305.3544922.0776367.2514648.1628418.3251953.3918457.2216797.6872559-.0297852.088623-.081543.1628418-.1552734.2216797-.1479492.1186523-.2587891.255127-.3325195.4101562-.0742188.1552734-.1328125.3215332-.1772461.4990234-.0444336.1330566-.0888672.2587891-.1328125.3769531.0883789.1035156.1694336.1516113.2436523.144043.0737305-.0073242.1474609-.0256348.2216797-.0554199.0444336-.0146484.0810547-.029541.1108398-.0444336,2.5864258-.7241211,5.2177734-.9829102,7.8930664-.7758789,1.1381836.088623,2.2172852.3769531,3.2373047.864502.487793.2219238.9165039.5249023,1.2861328.9091797Zm-.3994141,2.1506348c.2216797-.6650391.0668945-1.2268066-.465332-1.6850586-.340332-.2805176-.7172852-.5021973-1.1308594-.6650391-.9907227-.4138184-2.0253906-.6430664-3.1040039-.6875-2.6459961-.088623-5.2402344.2438965-7.7822266.9978027-.4291992.1184082-.6953125.3918457-.7983398.8203125-.769043,2.2026367-1.5297852,4.4050293-2.2836914,6.6071777-.6508789,1.8625488-1.3007812,3.732666-1.9511719,5.6096191-.0151367.0593262-.0371094.1184082-.0664062.1774902-.0444336.088623-.0776367.1811523-.1000977.2770996-.0219727.0961914-.0185547.2033691.0112305.3215332.2363281-.0146484.4433594-.0888672.6206055-.2219238.059082-.0441895.1181641-.0810547.1777344-.1108398.2363281-.1181641.4799805-.2438965.7314453-.3769531,1.7294922-.9311523,3.4589844-1.8696289,5.1884766-2.8156738,2.4238281-1.2861328,4.78125-2.6975098,7.0727539-4.2348633.9755859-.6503906,1.8847656-1.4040527,2.7270508-2.2614746.5024414-.5024414.8867188-1.0864258,1.152832-1.751709Z"/>
          <path class="cls-1" d="m29.070447,56.3049829c-.2661133.1923828-.5541992.340332-.8647461.4436035-1.5371094.5617676-3.1186523.8867188-4.7446289.9755859-.4140625.0148926-.7246094.1848145-.9311523.5097656-.5766602.8425293-1.2861328,1.5449219-2.128418,2.1064453-.5175781.3696289-1.0942383.5839844-1.7294922.6428223-.8725586.0300293-1.4633789-.3618164-1.7739258-1.1750488-.206543-.605957-.2583008-1.2194824-.1552734-1.840332.1777344-1.152832.5473633-2.2392578,1.1088867-3.2592773.0146484-.0144043.0292969-.0366211.0444336-.0664062.0585938-.1181641.125-.2250977.1992188-.3215332.0737305-.0959473.1699219-.1364746.2885742-.1218262.2358398.0148926.40625-.0256348.5097656-.1220703.1030273-.0959473.1845703-.2250977.2436523-.3879395.0297852-.0588379.059082-.1181641.0888672-.1774902.2661133-.4433594.6611328-.7792969,1.1860352-1.0087891.5249023-.2290039,1.0756836-.3066406,1.6518555-.232666.9311523.1772461,1.5151367.7316895,1.7519531,1.6628418.1328125.6506348.1030273,1.293457-.0888672,1.9289551-.0151367.0742188-.0371094.1479492-.0664062.2216797-.0888672.1923828-.1333008.4067383-.1333008.6430664.3994141.059082.7832031.0371094,1.152832-.0666504.059082,0,.1108398-.0070801.1552734-.0219727.0888672-.0146484.1777344-.029541.2661133-.0444336,1.2270508-.1774902,2.4018555-.5395508,3.5253906-1.0864258.1333008-.0737305.262207-.1181641.3881836-.1330566.1254883-.0146484.2324219.0444336.3212891.1774902.0888672.1625977.0996094.3068848.0332031.4321289-.0664062.1259766-.1660156.2329102-.2993164.3215332Zm-9.7553711,3.5476074c1.0341797-.5024414,1.8842773-1.2709961,2.5498047-2.3059082-1.3012695-.487793-2.2470703-1.3449707-2.8383789-2.5720215-.5615234.5620117-.9384766,1.1716309-1.1303711,1.8293457-.1923828.6577148-.28125,1.3413086-.2661133,2.0507812.0737305,1.1086426.6352539,1.4411621,1.6850586.9978027Zm3.0151367-3.3259277c.2514648-.1328125.4135742-.3469238.487793-.6428223.0737305-.2956543.1181641-.5837402.1333008-.8647461,0-.0588379.0068359-.1181641.0219727-.1774902-.0444336-1.182373-.546875-1.729248-1.5078125-1.640625-.3251953.0297852-.6245117.1108398-.8979492.2438965s-.4692383.3623047-.5874023.6872559c-.0888672.2958984-.0703125.5581055.0551758.7871094.1254883.2294922.284668.4472656.4770508.6540527.0141602.0148926.0292969.0297852.0444336.0444336.0141602.0297852.0366211.052002.0664062.0664062.0737305.0593262.1474609.1259766.2216797.199707.2363281.2216797.4799805.4067383.7314453.5541992.2514648.1479492.5024414.1774902.7539062.088623Z"/>
          <path class="cls-1" d="m29.8468142,60.8723657c-1.2861328,0-1.9956055-.5837402-2.128418-1.7514648-.059082-.6945801.0185547-1.3525391.2329102-1.9733887s.4838867-1.2265625.809082-1.8181152c.0444336-.1181641.1220703-.1955566.2329102-.232666.1108398-.0368652.2329102-.0256348.3657227.0332031.1328125.0742188.199707.1628418.199707.2661133,0,.1035156-.0297852.2216797-.0888672.3547363-.3251953.6506348-.5839844,1.3378906-.7758789,2.0620117,0,.0441895-.0073242.0812988-.0224609.1108398-.0292969.1330566-.0512695.2736816-.0664062.4211426-.1328125,1.3010254.4433594,1.810791,1.7294922,1.5300293.7387695-.2216797,1.4335938-.5395508,2.0839844-.9533691,1.6704102-.9606934,3.2666016-2.0178223,4.7890625-3.1706543.5175781-.4284668.8427734-.4951172.9755859-.1994629.1035156.2070312.1074219.3806152.0112305.5209961-.0961914.140625-.2104492.2548828-.34375.3435059l-.0219727.0222168c-2.0400391,1.6262207-4.2426758,3.0009766-6.6074219,4.1240234-.4731445.2072754-.9311523.3103027-1.3745117.3103027Zm-.0888672-7.6269531c-.2216797-.0146484-.3398438-.1477051-.3544922-.3991699-.0151367-.2512207.0585938-.4655762.2216797-.6430664.6503906-.8867188,1.3891602-1.6923828,2.2172852-2.416748.1181641-.088623.2436523-.1696777.3769531-.2438965.1772461-.088623.3398438-.0664062.487793.0666504.1181641.1628418.125.3251953.0219727.487793-.1328125.1772461-.2734375.3325195-.4213867.4655762-.8129883.6948242-1.5224609,1.4855957-2.128418,2.3723145-.0444336.0742188-.0961914.140625-.1552734.199707s-.1479492.0961914-.2661133.1108398Z"/>
          <path class="cls-1" d="m51.5753298,55.5068871c.1772461-.1625977.3623047-.1625977.5541992,0,.0888672.0742188.1367188.1589355.144043.2548828.0073242.0964355-.0185547.1960449-.0771484.2993164-.1186523.2365723-.28125.4436035-.487793.6208496-.2661133.2365723-.5322266.4733887-.7983398.7094727-1.3603516,1.2270508-2.7197266,2.4538574-4.0795898,3.6806641-.4584961.4287109-.9755859.7614746-1.5522461.9975586-.8720703.2958984-1.3823242,0-1.5297852-.8867188-.0742188-.5910645-.0371094-1.1750488.1108398-1.751709.2807617-1.152832.6210938-2.2758789,1.0200195-3.3701172.1328125-.3989258.2661133-.8054199.3989258-1.2194824.0146484-.0588379.0366211-.1252441.0664062-.1994629.222168-.5910645.3696289-1.2045898.4438477-1.840332.0737305-.6352539-.1630859-.7832031-.7094727-.4433594-.3994141.1923828-.769043.4289551-1.1088867.7094727-2.8232422,2.4094238-5.0996094,5.2548828-6.8291016,8.5361328-.0292969.0444336-.0512695.0964355-.0664062.1552734-.0146484.0148926-.0219727.0371094-.0219727.0666504-.0444336.1328125-.1035156.2514648-.1772461.3547363-.0742188.1035156-.199707.140625-.3769531.1108398-.1918945-.029541-.3549805-.1364746-.487793-.3215332-.1333008-.1848145-.1918945-.3803711-.1777344-.5876465.0595703-.2954102.1333008-.5837402.2216797-.8647461.9462891-3.3845215,2.0473633-6.7180176,3.3037109-9.9995117.0888672-.2512207.199707-.4951172.3325195-.7316895.059082-.1330566.1445312-.232666.2553711-.2993164.1108398-.0664062.2397461-.0554199.3876953.0332031.1181641.0742188.1845703.1665039.199707.2773438.0146484.1108398-.0151367.2253418-.0888672.3435059-.0297852.0593262-.059082.1186523-.0883789.1774902,0,.0297852-.0078125.052002-.0224609.0664062-.8867188,2.2915039-1.6704102,4.6118164-2.3500977,6.9621582-.1333008.4287109-.2661133.8500977-.3989258,1.2636719v.1330566c.0146484.0297852.0219727.0742188.0219727.1330566.2216797-.1625977.3769531-.347168.4658203-.5541992.0439453-.059082.0883789-.1181641.1328125-.1774902,1.2119141-1.8181152,2.6162109-3.480957,4.2128906-4.9887695.6054688-.576416,1.2636719-1.0786133,1.9731445-1.5075684.324707-.2216797.6796875-.3620605,1.0639648-.4213867.6210938-.088623,1.0273438.1628418,1.2197266.7539062.0888672.3547363.1030273.7094727.0444336,1.064209-.1630859.8425293-.3920898,1.6628418-.6875,2.4611816-.0146484.0593262-.0297852.1184082-.0444336.1772461-.0883789.2661133-.1772461.5322266-.2661133.7983398-.3842773,1.064209-.7094727,2.1506348-.9755859,3.2592773-.0146484.0739746-.0297852.1552734-.0439453.2438965-.0595703.2216797-.0966797.432373-.1108398.6318359-.0151367.1994629.0439453.3513184.1772461.4545898.1772461.1184082.3510742.1257324.5209961.0222168.1699219-.1032715.3286133-.2290039.4765625-.3769531.0737305-.059082.140625-.1181641.199707-.1774902,1.2563477-1.0493164,2.4755859-2.128418,3.6582031-3.2370605.5170898-.4729004,1.034668-.9533691,1.5522461-1.4411621.0585938-.0444336.1108398-.088623.1552734-.1330566.0737305-.088623.1547852-.1623535.2436523-.2216797Z"/>
          <path class="cls-1" d="m72.6612673,46.7932641c.1328125.1035156.1845703.2365723.1547852.3991699-.0439453.1628418-.140625.2587891-.2880859.2880859-.2070312.0148926-.4140625.0148926-.6206055,0-4.5087891-.3103027-9.0170898-.4284668-13.5249023-.3547363h-2.1728516c-.2368164,0-.4101562.0112305-.5209961.0334473-.1108398.0219727-.1962891.0852051-.2553711.1882324-.059082.1037598-.1254883.2661133-.1992188.487793-3.0454102,8.8244629-5.9052734,17.7077637-8.5805664,26.6508789-.1181641.3989258-.2514648.7980957-.3994141,1.1972656-.0439453.1181641-.1142578.2067871-.2104492.2658691-.0957031.059082-.2104492.0666504-.34375.0222168-.1328125-.0441895-.2177734-.1218262-.2548828-.232666-.0366211-.1108398-.0405273-.2329102-.0112305-.3659668.0742188-.2810059.1552734-.5617676.2441406-.8425293,2.6308594-8.8686523,5.4541016-17.6708984,8.4697266-26.4067383.0585938-.1772461.1254883-.3693848.1992188-.576416.0297852-.1032715.0668945-.2216797.1108398-.3547363h-1.6625977c-1.1826172-.0146484-2.3427734-.0146484-3.480957,0-3.0893555.0739746-6.1787109.1550293-9.2680664.2438965-.3398438,0-.6796875.0075684-1.0200406.0222168h-.2216586c-.1328125-.0146484-.2695312-.0112305-.4101562.0109863-.1401367.0222168-.262207.0852051-.3657227.1884766-.2216797.2070312-.4287109.1921387-.6206055-.0444336-.1625977-.2661133-.1333008-.5097656.0883789-.7316895.1186523-.1181641.2548828-.1955566.4101562-.232666.1552734-.0368652.3217773-.0554199.4990234-.0554199.4731445-.0146484.9462891-.029541,1.4189453-.0444336,1.034668-.0444336,2.0620117-.0810547,3.0820312-.1108398.8867188-.0146484,1.7666016-.0366211,2.6381836-.0664062,2.8530273-.0888672,5.6982422-.1403809,8.5361328-.1552734.2514648,0,.4326172-.0112305.543457-.0332031.1108398-.0222168.1958008-.0849609.2548828-.1884766.059082-.1032715.1254883-.2661133.199707-.487793.1181641-.3693848.2290039-.7316895.3325195-1.0864258.0444336-.1477051.0888672-.2956543.1328125-.4436035.059082-.1623535.1108398-.3325195.1552734-.5097656.0444336-.1625977.1142578-.2993164.2109375-.4101562.0957031-.111084.2324219-.1442871.4101562-.0998535.1918945.0742188.2954102.1884766.3100586.34375.0146484.1550293-.0073242.314209-.0664062.4765625-.1181641.3696289-.2363281.7316895-.3544922,1.0864258-.0742188.2216797-.140625.4511719-.199707.6872559-.0444336.1037598-.081543.2219238-.1108398.3547363-.0151367.0593262-.0297852.1186523-.0444336.1774902.1181641.0742188.2363281.1147461.3549805.1218262.1181641.0078125.2363281.0039062.3544922-.0109863h.1772461c1.1088867.0148926,2.2099609.0222168,3.3037109.0222168,2.1582031,0,4.3085938.0148926,6.4521484.0441895,1.8032227,0,3.5991211.1037598,5.3876953.3105469.0444336.0148926.0810547.0222168.1108398.0222168.2363281.0148926.4580078.0812988.6655273.1994629Z"/>
        </g>
        <path class="cls-3" d="m118.7221544,65.9379432c.2581247.0281256.4736667.1001482.6461003.2152792.1719079.1143424.2723189.3156902.3012331.6029919-.0289142.2865132-.1293252.4952209-.3012331.6242833-.1724336.1293252-.3879756.2079192-.6461003.2368334-.4021699.0573026-.8180082.0862168-1.2490923.0862168h-.1287995c-2.9003544.0570398-5.7996574.1143424-8.6989603.1721708-5.9426511.0862168-11.8711079.186365-17.7853706.301496-.6602946.0281256-1.3063949.071234-1.9377753.1290624-.4594725.0283885-.904225.0573026-1.3347834.0862168-.7181229.0573026-1.1486812-.0147199-1.291675-.2152792-.1440452-.2010849-.1293252-.6608203.0425827-1.3781546.2297362-.7178601.588272-1.3205891,1.0766587-1.8084501.0862168-.0578283.1577137-.1293252.215542-.2152792,1.6933191-1.9527581,3.3871639-3.8905334,5.0815345-5.8135887,1.8657527-2.1249288,3.7173112-4.2485434,5.5552012-6.3734723,7.4929765-8.5546523,14.6983883-17.3545494,21.6178128-26.3978512,2.8420003-3.617163,5.3827676-7.4209539,7.621776-11.4116355,1.0335503-1.8087129,1.8373643-3.7175741,2.4119677-5.7273719,1.0903272-4.4496283-.6319061-6.5025346-5.1677513-6.1581931-1.7516732.1724336-3.4166038.5887977-4.9953176,1.2488294-7.2637659,3.0433481-12.9766808,7.9237976-17.1392702,14.6416114-.6608203,1.0624644-1.2059839,2.1961629-1.6365422,3.4018839,0,.0289142-.0147199.0578283-.0431084.0862168-.1719079.5167751-.3085931,1.0482702-.4090041,1.5934338-.1009367.5456893-.0362741,1.10531.1939878,1.6793877.2002964.5167751.0431084.8760994-.4736667,1.0766587-.230262.0578283-.4305583.0362741-.6029919-.0646626-.1724336-.100411-.3164788-.2368334-.4305583-.4090041-.4594725-.9186821-.5598835-1.8660156-.3017588-2.8422632.3159531-1.4641086.8327282-2.8564574,1.5503254-4.1770466,2.3536137-4.4498912,5.4973728-8.2103108,9.4312775-11.2825731,3.703117-3.0428224,7.8657064-5.1819455,12.4882941-6.4165807,1.7795359-.487861,3.587986-.5598835,5.425876-.2152792,2.5260473.6608203,3.918659,2.2681854,4.1767837,4.8231469.0862168,1.9235811-.2297362,3.7754024-.9473334,5.5552012-1.2054582,2.9571313-2.6984809,5.7420919-4.4785425,8.3540931-2.526573,3.7325569-5.1745855,7.3712741-7.945089,10.9166774-2.7710292,3.545929-5.5914753,7.0555839-8.4618641,10.5289646-6.3732094,7.6940614-12.890464,15.2724661-19.5507123,22.737317-.4021699.4589468-.8332539.9615277-1.291675,1.507217-.2586504.286776-.5320208.6029919-.8185339.9473334,1.2922007-.0289142,2.5407672-.0720226,3.7467511-.1290624,2.5838756-.0862168,5.095203-.1724336,7.5360849-.2583876,6.0288679-.2013478,12.0577358-.301496,18.0866037-.301496.2865132,0,.573552.0141942.8611166.0431084Z"/>
      </g>
      <rect class="cls-2" x="0" width="145" height="76"/>
    </g>
  </g>
</svg>