<?xml version="1.0" encoding="UTF-8"?>
<svg xmlns="http://www.w3.org/2000/svg" viewBox="0 0 457.5136041 315.6498238">
  <defs>
    <style>
      .cls-1 {
        fill: #231815;
      }

      .cls-1, .cls-2, .cls-3, .cls-4 {
        stroke-width: 0px;
      }

      .cls-5 {
        isolation: isolate;
      }

      .cls-3 {
        fill: #93bf1f;
      }

      .cls-4 {
        fill: #bad777;
      }

      .cls-6 {
        mix-blend-mode: multiply;
      }
    </style>
  </defs>
  <g class="cls-5">
    <g id="_レイヤー_2" data-name="レイヤー 2">
      <g id="_レイヤー_1-2" data-name="レイヤー 1">
        <g>
          <g>
            <path class="cls-2" d="m128.2606704,51.7770211l.390625-.5664062c.0258789-.0390625.0615234-.0844727.1074219-.1367188.0454102-.0517578.0810547-.0976562.1074219-.1367188.0258789-.0390625.0551758-.0810547.0878906-.1269531.0322266-.0454102.0615234-.078125.0878906-.0976562.0258789-.0195312.0551758-.0390625.0878906-.0585938.0322266-.0195312.0615234-.0292969.0878906-.0292969.1298828,0,.4360352.2050781.9179688.6152344.4814453.4101562.7226562.6870117.7226562.8300781-.0522461.2084961-.2216797.3125-.5078125.3125h-6.25v4.9804688h5.4492188l.449197-.625c.3125218-.4165039.5078343-.625.5859593-.625.1298828,0,.4394531.2216797.9277344.6640625.4882812.4428711.7324219.7353516.7324219.8789062-.0390625.1953125-.2021484.2929688-.4882812.2929688h-13.632834c-.9638457.0126953-1.9662871.1040039-3.007791.2734375l-.546875-1.015625c.7290039.078125,1.6210938.1298828,2.6757812.15625h5.546875v-4.9804688h-2.9296875c-.859375.0131836-1.8623047.1108398-3.0078125.2929688l-.546875-1.0546875c.7290039.078125,1.6210938.1303711,2.6757812.15625h9.2773438Zm1.6210938-8.515625l.3710938-.4296875c.2734375-.2993164.4492188-.4492188.5273438-.4492188.1171875,0,.390625.2182617.8203125.6542969.4296875.4365234.6445312.7260742.6445312.8691406-.078125.1044922-.3256836.1694336-.7421875.1953125-.7553711.8857422-1.6796875,1.7060547-2.7734375,2.4609375l-.2539062-.1367188c.46875-.7158203.9306641-1.5688477,1.3867188-2.5585938h-3.75v4.2578125c0,.1435547.0419922.234375.1269531.2734375.0844727.0390625.2958984.0585938.6347439.0585938h1.7578342c.9375,0,1.4970703-.0063477,1.6796875-.0195312.1689453-.0126953.2861328-.0908203.3515625-.234375.1040039-.1689453.2861328-.8852539.546875-2.1484375h.2539062l.0585938,2.2070312c.3383789.1171875.5078125.3125.5078125.5859375,0,.3125-.2280273.5273438-.6835938.6445312-.4560547.1171875-1.3803711.1757812-2.7734375.1757812h-1.9726562c-.703125,0-1.1655273-.0908203-1.3867188-.2734375-.2216797-.1821289-.3320312-.5273438-.3320312-1.0351562v-4.4921875h-2.4023438c-.3256836,1.9663086-1.0483398,3.4931641-2.1679688,4.5800781-1.1201172,1.0874023-2.8061523,1.9111328-5.0585938,2.4707031l-.0976562-.2929688c1.875-.703125,3.2548828-1.5751953,4.140625-2.6171875.8852539-1.0415039,1.4516602-2.421875,1.6992188-4.140625h-3.5742188c.0126953,1.25-.3193359,2.1679688-.9960938,2.7539062-.2475586.2216797-.5112305.3452148-.7910156.3710938-.2802734.0263672-.4853516-.0712891-.6152344-.2929688-.0913086-.2080078-.0976562-.4101562-.0195527-.6054688.0781464-.1953125.2212128-.3642578.4297089-.5078125.390625-.2993164.7255859-.78125,1.0058594-1.4453125.2797852-.6640625.4003906-1.3603516.3613281-2.0898438h.3320312c.1430664.546875.2275391.9506836.2539062,1.2109375h5.4101562c0-1.1586914-.0585938-2.1352539-.1757812-2.9296875,1.3017578.3779297,1.953125.6577148,1.953125.8398438.0126953.0522461-.0390625.1171875-.15625.1953125l-.3125.1953125v1.6992188h5.78125Z"/>
            <path class="cls-2" d="m148.2997329,46.3082711l.2929688-.46875c.234375-.3125.390625-.46875.46875-.46875.1298828,0,.4130859.1889648.8496094.5664062.4360352.3779297.6542969.6381836.6542969.78125-.15625.2084961-.4296875.3515625-.8203125.4296875v1.8554688c.0390625,1.5498047.0844727,2.7412109.1367188,3.5742188-.078125.1044922-.2509766.2148438-.5175781.3320312-.2670898.1171875-.4980469.1757812-.6933594.1757812-.1826172,0-.2734375-.1298828-.2734375-.390625.0126953-.0517578.0224609-.0976562.0292969-.1367188.0063477-.0390625.0126953-.0908203.0195312-.15625.0063477-.0649414.0161133-.1298828.0292969-.1953125v-.4492188h-10.1171875v4.3554688c0,.3647461.152832.6123047.4589844.7421875.3056641.1303711.8037109.1953125,1.4941406.1953125h7.6757812c.703125,0,1.2041016-.0390625,1.5039062-.1171875.2993164-.078125.5205078-.2407227.6640625-.4882812.2734375-.5078125.5595703-1.4775391.859375-2.9101562h.2539062l.0195312,3.0859375c.3515625.1044922.5825195.1889648.6933594.2539062.1103516.0654297.1660156.1694336.1660156.3125,0,.234375-.1074219.4262695-.3222656.5761719-.2148438.1494141-.625.2700195-1.2304688.3613281-.6054688.0908203-1.4355469.1367188-2.4902344.1367188h-7.6953125c-1.1591797,0-2.0019531-.159668-2.5292969-.4785156-.5273438-.3193359-.7910156-.8886719-.7910156-1.7089844v-9.140625c-.7944336.7944336-1.6147461,1.4716797-2.4609375,2.03125l-.234375-.2539062c1.3671875-1.1586914,2.65625-2.7407227,3.8671875-4.7460938.78125-1.3017578,1.2954102-2.5712891,1.5429688-3.8085938,1.3408203.390625,2.0117188.6640625,2.0117188.8203125,0,.0522461-.0585938.0913086-.1757812.1171875l-.3710938.078125c-.234375.4819336-.5273438.9960938-.8789062,1.5429688h4.3945312l.3515625-.4296875c.2602539-.2861328.4360352-.4296875.5273438-.4296875.1171875,0,.3774414.1953125.78125.5859375.4033203.390625.6054688.6577148.6054688.8007812-.1044922.1044922-.3583984.1694336-.7617188.1953125-1.1459961,1.3671875-2.0639648,2.3242188-2.7539062,2.8710938h4.765625Zm-10.3710938-.2734375l.6445312.2734375h4.53125c.46875-.6640625,1.0219727-1.6728516,1.6601562-3.0273438h-4.7265625c-.7685547,1.1459961-1.4716797,2.0639648-2.109375,2.7539062Zm4.7851562.859375h-4.3554688v4.296875h4.3554688v-4.296875Zm5.7617188,4.296875v-4.296875h-4.5117188v4.296875h4.5117188Z"/>
            <path class="cls-2" d="m161.5614517,47.7340523l-.9960938.1367188c-1.2631836.1953125-2.0771484.3388672-2.4414288.4296875-.3647236.0913086-.5732197.1367188-.625.1367188-.4037861-.0126953-.7587666-.1660156-1.0644306-.4589844-.3061523-.2929688-.5078125-.543457-.6054688-.7519531-.0976562-.2080078-.1269531-.3251953-.0878906-.3515625.0390625-.0258789.2832031.0263672.7324219.15625.4492188.1303711.9960938.1953125,1.640625.1953125s1.8457031-.078125,3.6035156-.234375h.078125c.15625-.6118164.2993164-1.2890625.4296875-2.03125.1821289-.9501953-.0522461-1.5751953-.703125-1.875-.625-.2734375-.6445312-.46875-.0585938-.5859375.2080078-.0517578.5498047-.0454102,1.0253906.0195312.4750977.0654297.9306641.234375,1.3671875.5078125.4360352.2734375.6083984.546875.5175555.8203125-.0131609.0263672-.1010516.159668-.2636492.4003906-.1630859.2412109-.2802734.4365234-.3515625.5859375-.0717773.1499023-.1337891.3095703-.1855469.4785156-.0522461.1694336-.1206055.4072266-.2050781.7128906-.0849609.3061523-.1660156.5893555-.2441633.8496094,1.549339-.1298828,2.4541242-.2211914,2.7148664-.2734375.2602539-.0390625.5664062-.1757812.9179688-.4101562s.5595703-.3515625.625-.3515625c.0649414,0,.1591797.0458984.2832031.1367188.1235352.0913086.3320312.2573242.625.4980469.2929688.2412109.4814453.4169922.5664062.5273438.0844727.1108398.1171875.1987305.0976562.2636719-.0195312.0654297-.1401367.2280273-.3613281.4882812-.2084961.2607422-.3256836.5078125-.3515625.7421875-.4560547,2.1225586-1.0483398,4.0756836-1.7773438,5.859375-.2216797.5732422-.4882812,1.0546875-.8007812,1.4453125s-.6640852.6967773-1.0546875.9179688c-.4038086.2216797-.7490234.2998047-1.0351562.234375-.2866211-.0649414-.4296875-.2373047-.4296875-.5175781,0-.2797852-.1108398-.543457-.3320312-.7910156-.0654297-.1040039-.2866211-.3188477-.6640625-.6445312-.3779297-.3251953-.5732422-.4946289-.5859375-.5078125-.15625-.1171875-.2119141-.2114258-.1660156-.2832031.0454102-.0712891.1591797-.0683594.3417969.0097656,1.171875.5859375,1.8945312.8530273,2.1679688.8007812.5595703-.078125,1.0024414-.4555664,1.328125-1.1328125,1.0283203-2.1220703,1.6406023-4.2446289,1.8359375-6.3671875.0126953-.1040039-.0131836-.1757812-.078125-.2148438-.0654297-.0390625-.2050781-.0615234-.4199219-.0683594-.2148438-.0063477-1.4423828.1074219-3.6816406.3417969-.6123047,1.8100586-1.3022461,3.3334961-2.0703125,4.5703125-.7685547,1.2373047-1.7807617,2.3505859-3.0371094,3.3398438-1.2568359.9897461-2.4511719,1.6928711-3.5839844,2.109375-.2216797.078125-.3515625.0844727-.390625.0195312-.0131836-.0654297.078125-.15625.2734375-.2734375,2.6953125-1.6665039,4.7329102-3.8149414,6.1132812-6.4453125.6118164-1.1455078,1.0673828-2.2001953,1.3671875-3.1640625Zm7.421875-4.375c.3251953.1435547.6865234.3808594,1.0839844.7128906.3969727.3320312.6020508.6772461.6152344,1.0351562.0126953.3583984-.078125.5761719-.2734375.6542969s-.3876953.0751953-.5761719-.0097656c-.1889648-.0844727-.3354492-.230957-.4394531-.4394531-.4560547-.8984375-1.0029297-1.5429688-1.640625-1.9335938-.2216797-.1298828-.3125-.2275391-.2734375-.2929688.0258789-.1171875.2016602-.1367188.5273438-.0585938.3251953.078125.6508789.1889648.9765625.3320312Zm.9375-1.7675781c.0126953-.0844727.2114258-.0942383.5957031-.0292969.3837891.0654297.7290039.1499023,1.0351562.2539062.3056641.1044922.6508789.2998047,1.0351562.5859375.3837891.2866211.5957031.6152344.6347656.9863281s-.0654297.6025391-.3125.6933594c-.1303711.0522461-.2929688.0458984-.4882812-.0195312-.1953125-.0649414-.3515625-.2080078-.46875-.4296875-.4560547-.7290039-.9897461-1.2695312-1.6015625-1.6210938-.0263672-.0126953-.0654297-.0356445-.1171875-.0683594-.0522461-.0322266-.0947266-.0585938-.1269531-.078125-.0327148-.0195312-.0751953-.0488281-.1269531-.0878906-.0522461-.0390625-.0717773-.1005859-.0585938-.1855469Z"/>
            <path class="cls-2" d="m175.9559829,48.9254586c.4423828.3125,1.2368164.4624023,2.3828125.4492188.2993164,0,1.1425781.0068359,2.5292969.0195312,1.3867188.0131836,3.1474609,0,5.2832031-.0390625,2.1352539-.0390625,3.4082031-.0585938,3.8183594-.0585938s.777832.0620117,1.1035156.1855469c.3251953.1240234.46875.3808594.4296875.7714844-.0131836.15625-.2148438.2607422-.6054688.3125-.390625.0522461-.7651367.0717773-1.1230469.0585938-.3583984-.0126953-.7617188-.0161133-1.2109375-.0097656-.4492188.0068359-1.1884766.0097656-2.2167969.0097656h-4.5703125c-2.0185547,0-3.3691406.0654297-4.0527344.1953125-.6835938.1303711-1.1787109.0878906-1.484375-.1269531-.3061523-.2148438-.5566406-.4716797-.7519531-.7714844-.1953125-.2993164-.2412109-.5761719-.1367188-.8300781.1040039-.2539062.1787109-.3808594.2246094-.3808594.0454102,0,.1723633.0717773.3808594.2148438Z"/>
            <path class="cls-2" d="m204.0419204,47.0504586c.7939453.4296875,1.1914062.8203125,1.1914062,1.171875,0,.1044922-.0327148.1826172-.0976562.234375-.2607422.2084961-.4233398.390625-.4882812.546875-1.0288086,2.5-2.2006836,4.4335938-3.515625,5.8007812-1.3154297,1.3671875-2.890625,2.4414062-4.7265625,3.2226562-.2216797.1171875-.3583984.1367188-.4101562.0585938-.0390625-.078125-.0390625-.1269531,0-.1464844s.0683594-.0361328.0878906-.0488281c.0195312-.0131836.0488281-.0292969.0878906-.0488281s.0649414-.0361328.0781015-.0488281c3.5415274-2.34375,5.8657461-5.4555664,6.9726797-9.3359375.1040039-.3251953.1201172-.5727539.0488281-.7421875-.0717773-.1689453-.2705078-.3515625-.5957031-.546875-.9506836.1044922-1.7939453.2768555-2.5292969.5175781-.7358398.2412109-1.2436523.3745117-1.5234375.4003906-.2802734.0263672-.5991211-.0649414-.9570312-.2734375-.3583984-.2080078-.6445312-.4785156-.859375-.8105469s-.2573242-.5371094-.1269531-.6152344c.0390625-.0126953.1367188.0068359.2929688.0585938.625.2475586,1.2661133.3583984,1.9238281.3320312.6572266-.0258789,1.8066406-.1137695,3.4472656-.2636719,1.640625-.1494141,2.6787109-.2895508,3.1152344-.4199219.4360352-.1298828.7646484-.2407227.9863281-.3320312.2211914-.0908203.3417969-.152832.3613281-.1855469.0195312-.0322266.1074219-.0615234.2636719-.0878906.4296638-.078125.9633789.0195312,1.6015625.2929688.6376953.2734375.9633789.5209961.9765625.7421875.0258789.234375-.0263672.390625-.15625.46875-.1303711.078125-.3710938.1044922-.7226562.078125-1.1850586-.1171875-2.7607422-.1235352-4.7265625-.0195312Zm-4.7460938-4.3554688l.5078125.1171875c.2993164.0390625.9082031.0097656,1.8261719-.0878906s1.6894531-.2797852,2.3144531-.546875c.625-.2666016,1.0317383-.4101562,1.2207031-.4296875.1884766-.0195312.4716797.0654297.8496094.2539062.3774414.1889648.5986328.3876953.6640625.5957031.0649414.2084961-.0229492.3745117-.2636719.4980469-.2412109.1240234-.6640625.1660156-1.2695312.1269531s-1.8525391.1367188-3.7402344.5273438c-.4038086.078125-.7978516.0654297-1.1816406-.0390625-.3842773-.1040039-.6806641-.2734375-.8886719-.5078125-.2084961-.234375-.2734375-.390625-.1953125-.46875.0649414-.0258789.1171875-.0390625.15625-.0390625Zm8.6132812-.2734375c.0258789-.1171875.21482-.1430664.5664062-.078125.3515625.0654297.6801758.15625.9863281.2734375.3056641.1171875.6669922.3354492,1.0839844.6542969.4165039.3193359.6411133.6611328.6738281,1.0253906.0322266.3647461-.0683594.5927734-.3027344.6835938-.1303711.0522461-.2929926.0458984-.4882812-.0195312-.1953125-.0649414-.3515625-.2080078-.46875-.4296875-.4951172-.8203125-1.0288086-1.3930664-1.6015625-1.71875-.1171875-.0649414-.1953125-.1137695-.2343988-.1464844-.0390387-.0322266-.0912848-.0683594-.1562262-.1074219-.0654297-.0390625-.0849609-.0844727-.0585938-.1367188Zm1.7480469-1.4453125c.0322266-.0908203.1953125-.1171875.4882812-.078125s.5498047.0976562.7714844.1757812c.2211914.078125.4980469.1889648.8300781.3320312.3320312.1435547.6181641.3388672.859375.5859375.2407227.2475586.3808594.5307617.4199219.8496094.0390625.3193359-.0390625.5175781-.234375.5957031-.4169922.1826172-.7617188.0585938-1.0351562-.3710938-.1694336-.2993164-.4072266-.6152344-.7128906-.9472656-.3061523-.3320312-.5439453-.543457-.7128906-.6347656-.1694336-.0908203-.3320551-.1757812-.4882812-.2539062-.15625-.078125-.2182617-.1625977-.1855469-.2539062Z"/>
            <path class="cls-2" d="m217.0497329,44.0035836c.0126953-.0390625.1918945-.0810547.5371094-.1269531.3447266-.0454102.9145508-.0097656,1.7089844.1074219.7939453.1171875,1.4125977.3486328,1.8554688.6933594.4423828.3452148.7094727.703125.8007812,1.0742188.0908203.3710938.0517578.6611328-.1171875.8691406-.15625.234375-.4038086.3061523-.7421875.2148438-.3388672-.0908203-.6381836-.3447266-.8984375-.7617188-.2607422-.4165039-.6738281-.7973633-1.2402344-1.1425781-.5664062-.3447266-1.0253906-.5664062-1.3769531-.6640625s-.5273438-.1855469-.5273438-.2636719Zm14.0039062,1.015625c.15625-.1821289.2861328-.2407227.390625-.1757812.0644531.078125,0,.234375-.1953368.46875-1.3154053,1.8359375-3.0536866,3.7827148-5.2148194,5.8398438-2.1616211,2.0576172-3.7568359,3.3920898-4.7851803,4.0039062-.2343509.1435547-.5014407.3583984-.8007572.6445312-.3647461.4038086-.784668.5537109-1.2597656.4492188-.4755859-.1040039-.862793-.3320312-1.1621094-.6835938-.2998047-.3515625-.4882812-.7226562-.5664062-1.1132812-.1435547-.6899414-.1044922-1.1000977.1171875-1.2304688.0390625-.0126953.078125.0131836.1171875.078125.0390625.0654297.0908203.159668.15625.2832031.0649414.1240234.1430664.2182617.234375.2832031.3515625.3515625.7290039.4819336,1.1328125.390625,1.0673828-.1689453,2.8613281-1.2724609,5.3808594-3.3105469,2.5195312-2.0375977,4.6708984-4.0136719,6.4550781-5.9277344Z"/>
          </g>
          <g>
            <g>
              <path class="cls-2" d="m90.7001235,42.3519723c2.3959961,1.4934082,3.8886719,3.3686523,4.4794922,5.6252441.5898438,2.2575684.1904297,4.6357422-1.1982422,7.1357422-1.4243164,2.2575684-3.1948242,4.1848145-5.3125,5.7814941-2.5351562,1.9450684-5.2265625,3.5939941-8.0732422,4.9482422-2.8476562,1.354248-5.7646484,2.5349121-8.7504883,3.541748-.3125.1391602-.6166992.1911621-.9116211.15625-.2954102-.0341797-.5126953-.2424316-.6508789-.625-.1040039-.3818359-.0610352-.6772461.1303711-.885498.1904297-.208252.4594727-.3815918.8071289-.520752.5551758-.2426758,1.1108398-.46875,1.6669922-.6772461.2080078-.0690918.4165039-.1384277.625-.208252,4.1318359-1.5275879,8.0209961-3.5068359,11.6669922-5.9377441,1.7006836-1.1108398,3.2631836-2.3781738,4.6875-3.8022461.9716797-1.0068359,1.7880859-2.1176758,2.4482422-3.3334961,1.7709961-3.7150879.9716797-6.736084-2.3959961-9.0629883-1.4243164-.9023438-2.9516602-1.5444336-4.5834961-1.927002-4.9311523-1.1459961-9.8964844-1.4233398-14.8964844-.8334961-18.1259766,1.9450684-34.8803711,7.8129883-50.2626953,17.6049805-5.0351562,3.0908203-9.5493164,6.8581543-13.5419922,11.3024902-1.5625,1.7016602-2.8125,3.5939941-3.75,5.6772461-1.4243164,3.0910645-.625,5.3999023,2.3959961,6.9274902,2.8466797,1.3891602,5.8154297,2.3266602,8.90625,2.8125,3.0209961.625,6.059082,1.197998,9.1152344,1.7189941,4.0625.6948242,8.1074219,1.4934082,12.1357422,2.395752,3.75.7644043,7.378418,1.8930664,10.8857422,3.3857422,1.0761719.4865723,2.1357422.520752,3.1772461.1040039,7.8129883-2.7424316,15.6948242-5.173584,23.6469727-7.2919922,1.3193359-.3466797,2.6381836-.6591797,3.9584961-.9375.3818359-.0690918.7631836-.1381836,1.1459961-.208252.4858398-.1384277.9545898-.208252,1.40625-.208252.1381836-.0341797.2944336-.0522461.46875-.0522461.3466797-.0690918.6772461-.0600586.9897461.026123.3125.0871582.5029297.3564453.5727539.807373,0,.4865723-.1479492.7990723-.4428711.9375-.2954102.1391602-.6337891.2434082-1.015625.3125h-.15625c-4.3061523.8684082-8.5419922,1.9450684-12.7089844,3.229248-5.4868164,1.5976562-11.0771484,3.385498-16.7714844,5.3647461.3466797.2783203.6591797.5388184.9375.78125.590332.4516602,1.1113281.885498,1.5629883,1.3022461,3.6801758,3.5075684,4.0795898,7.361084,1.1977539,11.5629883-1.6665039,2.2568359-3.6982422,4.1318359-6.0942383,5.6252441-4.7915039,3.0209961-9.9482422,5.173584-15.4692383,6.4584961-3.9243164,1.041748-7.8999023,1.5275879-11.9272461,1.4584961-1.9101562-.0351562-3.7333984-.4516602-5.4692383-1.25-2.9516602-1.666748-3.7851562-4.0627441-2.5-7.1879883.7631836-1.5974121,1.8051758-2.96875,3.125-4.1147461,2.152832-1.979248,4.496582-3.7158203,7.0317383-5.2084961,5.8676758-3.4025879,12.0136719-6.2502441,18.4379883-8.5419922.590332-.2424316,1.215332-.4858398,1.875-.729248.3125-.1381836.6420898-.2602539.9897461-.364502-.2084961-.3125-.4428711-.5290527-.703125-.651123-.2602539-.1213379-.5126953-.2165527-.7553711-.286377-.1391602-.0341797-.2602539-.0693359-.3642578-.104248-5.4169922-1.7009277-10.9208984-3.0029297-16.5112305-3.9064941-.1040039-.0341797-.2084961-.052002-.3125-.052002-1.3540039-.2775879-2.7265625-.520752-4.1147461-.729248-3.9584961-.6591797-7.8828125-1.4753418-11.7714844-2.447998-2.1875-.4858398-4.2539062-1.302002-6.1982422-2.447998-3.2988281-2.0483398-4.3056641-4.9130859-3.0205078-8.5939941.9375-2.3959961,2.2734375-4.5656738,4.0102539-6.5107422,3.9584961-4.548584,8.472168-8.4199219,13.5424805-11.6149902,14.7919922-9.5837402,30.9038086-15.6428223,48.3349609-18.1779785,5.9379883-.9375,11.8754883-.8852539,17.8134766.15625,2.2915039.3825684,4.4443359,1.1459961,6.4584961,2.291748Zm-44.324707,54.6899414c-5.7993164,1.979248-11.4418945,4.3059082-16.9277344,6.979248-3.8203125,1.8400879-7.3959961,4.079834-10.7294922,6.7189941-1.5283203,1.1459961-2.7607422,2.5344238-3.6982422,4.1669922-1.146015,2.2568359-.5727539,3.8884277,1.71875,4.8959961,1.5625.5900879,3.4545898.885498,5.6772461.885498,8.715332-.3825684,17.0322266-3.0209961,24.9492188-7.9169922,1.1801758-.7641602,2.2568359-1.6325684,3.2290039-2.604248.7636719-.6950684,1.4404297-1.4763184,2.0317383-2.3439941,2.0830078-3.0559082,1.7705078-5.8505859-.9379883-8.3857422-.6948242-.6591797-1.4580078-1.25-2.2915039-1.770752-.1743164-.104248-.3476562-.2255859-.5209961-.3647461-.7993164-.5549316-1.6323242-.6420898-2.5-.2602539Z"/>
              <path class="cls-2" d="m107.7841079,86.8851754c-.625.4516602-1.3022461.7990723-2.03125,1.041748-3.6118164,1.3200684-7.3271484,2.083252-11.1464844,2.291748-.9726562.0349121-1.7016602.4345703-2.1875,1.197998-1.3540039,1.979248-3.0209961,3.6289062-5,4.947998-1.2163086.8684082-2.5703125,1.3720703-4.0629883,1.510498-2.0493164.0700684-3.4375-.8503418-4.1665039-2.760498-.4858398-1.4233398-.6074219-2.8647461-.3647461-4.3232422.4165039-2.708252,1.2851562-5.260498,2.6040039-7.6564941.0341797-.0341797.0693359-.0861816.1044922-.15625.1381836-.2775879.2944336-.5290527.46875-.755127.1733398-.2255859.3984375-.3208008.6767578-.2866211.5551758.0351562.9550781-.0600586,1.1982422-.286377.2426758-.2253418.4335938-.5290527.5727539-.9116211.0693359-.1381836.1386719-.2773438.2084961-.4165039.625-1.041748,1.5537109-1.8312988,2.7866211-2.369873,1.2319336-.5380859,2.5258789-.7202148,3.8803711-.546875,2.1875.4165039,3.559082,1.71875,4.1147461,3.90625.3125,1.5283203.2426758,3.0388184-.2084961,4.5314941-.034668.1740723-.0869141.3474121-.15625.520752-.2080078.4516602-.3125.9555664-.3125,1.510498.9375.1391602,1.840332.0871582,2.7084961-.15625.1381836,0,.2602539-.0170898.3647461-.052002.2080078-.0341797.4165039-.0690918.625-.104248,2.8818359-.4165039,5.6420898-1.2670898,8.28125-2.552002.3129883-.1733398.6162109-.2775879.9116211-.3127441.2949219-.0341797.546875.104248.7553711.416748.2084961.3825684.234375.7211914.078125,1.015625-.15625.2954102-.390625.546875-.703125.7553711Zm-22.9174805,8.3337402c2.4301758-1.1801758,4.4272461-2.986084,5.9897461-5.4169922-3.0561523-1.1459961-5.2788086-3.1594238-6.6669922-6.0419922-1.3198242,1.3200684-2.2055664,2.7524414-2.65625,4.2971191-.4516602,1.5454102-.6601562,3.151123-.625,4.8178711.1733398,2.604248,1.4921875,3.385498,3.9584961,2.3439941Zm7.0834961-7.8129883c.5898438-.3125.9716797-.8154297,1.1459961-1.510498.1733398-.6940918.2773438-1.3713379.3125-2.03125,0-.1384277.0170898-.2775879.0517578-.416748-.1040039-2.7775879-1.284668-4.0625-3.5415039-3.854248-.7641602.0700684-1.4672852.260498-2.109375.572998-.6430664.3125-1.1030273.8513184-1.3803711,1.614502-.2084961.6950684-.1655273,1.3112793.1298828,1.8491211.2949219.5388184.668457,1.0505371,1.1201172,1.5366211.0341797.0349121.0693359.0698242.1040039.1040039.0341797.0700684.0864258.1220703.15625.15625.1733398.1391602.3466797.2954102.5209961.46875.5551758.5209961,1.1279297.9555664,1.71875,1.3022461.590332.3474121,1.1801758.416748,1.7709961.208252Z"/>
              <path class="cls-2" d="m130.2328384,84.8016793c.2773438.2084961.4248047.4428711.4423828.703125.0170898.260498-.0439453.5297852-.1821289.807373-.2084961.3474121-.4516602.6772461-.7290039.9897461-3.8203125,4.3408203-7.8481445,8.4555664-12.0839844,12.3442383-1.1118164.9724121-2.2919922,1.8408203-3.5419922,2.604248-.034668,0-.0517578.0178223-.0517578.052002-.5908203.3474121-1.1811523.6428223-1.7709961.885498-.6601562.2434082-1.3110352.364502-1.953125.364502-.6430664,0-1.2421875-.2253418-1.7973633-.677002-.5556641-.5209961-.859375-1.1020508-.9111328-1.744873-.0522461-.6420898.0258789-1.2932129.234375-1.953125.3466797-1.1459961.8330078-2.2219238,1.4584961-3.2294922.4165039-.6591797.8330078-1.3190918,1.25-1.979248.5898438-.9716797,1.1977539-1.9611816,1.8227539-2.96875.4165039-.6943359.78125-1.4404297,1.09375-2.2397461.3466797-.9375.0170898-1.4753418-.9897461-1.614502-.8681641-.104248-1.71875-.0864258-2.5517578.052002-.1743164.0349121-.3647461.052002-.5732422.052002-.2783203.0351562-.5556641.0700684-.8334961.104248-.6948242.104248-1.3891602.15625-2.0830078.15625-1.5629883,0-2.4130859-.78125-2.5522461-2.34375-.0341797-.8676758.1391602-1.666748.5205078-2.3959961,1.3203125-2.604248,3.3676758-4.392334,6.1464844-5.3647461.4858398-.2084961.9804688-.2946777,1.484375-.260498.5029297.0349121.9633789.2783203,1.3803711.729248.3813477.4516602.546875.9291992.4946289,1.432373-.0522461.5036621-.1821289.9985352-.390625,1.484375-.3823242.7990723-.8515625,1.5283203-1.40625,2.1875,0,.0351562-.0180664.0700684-.0522461.104248-.1040039.1391602-.2260742.260498-.3647461.364502-.1738281.1743164-.3212891.3476562-.4423828.5209961-.1220703.1740723-.2001953.3823242-.234375.625.4165039.208252.8671875.3125,1.3540039.3125.2773438,0,.5727539.0349121.8857422.104248,2.1875.6599121,2.9858398,2.083252,2.3955078,4.2709961-.3823242,1.0766602-.8852539,2.083252-1.5102539,3.020752-.3823242.6252441-.78125,1.2680664-1.1982422,1.9272461-.5205078.7993164-1.0244141,1.6147461-1.5102539,2.447998-.4868164.7993164-.8852539,1.6147461-1.1977539,2.447998-.0703125.104248-.1220703.2084961-.15625.3125-.1391602.2783203-.234375.5559082-.2866211.8334961-.0522461.2783203.0258789.5385742.234375.78125.3125.2783203.625.3735352.9375.286377.3125-.0861816.625-.2163086.9375-.390625.0693359-.0341797.15625-.0690918.2602539-.104248,1.8754883-1.0756836,3.5942383-2.3608398,5.1567383-3.854248,3.6801758-3.4716797,7.2045898-7.1176758,10.5732422-10.9379883.0341797-.0341797.0864258-.0861816.15625-.15625.2773438-.3125.5551758-.6069336.8334961-.8852539.4165039-.416748.8505859-.486084,1.3022461-.2084961Zm-23.9072266.15625c2.2563477-.833252,4.0273438-2.6213379,5.3125-5.3647461-3.1601562.8684082-4.9301758,2.65625-5.3125,5.3647461Z"/>
              <path class="cls-2" d="m157.7855728,85.1141793c.3125.2434082.46875.5039062.46875.78125,0,.2783203-.0869141.572998-.2602539.885498-.2084961.3476562-.4516602.6772461-.7290039.9897461-2.3618164,2.7434082-4.8959961,5.2956543-7.6044922,7.6564941-.9033203.7990723-1.9101562,1.4240723-3.0209961,1.875-2.3618164.8334961-3.8725586.0522461-4.5317383-2.34375-.2431641-1.041748-.2954102-2.0834961-.15625-3.1252441.1044922-.6940918.1904297-1.40625.2607422-2.135498.0341797-.3125.0688477-.625.1040039-.9375h-.0522461c-.1040039-.0341797-.190918-.052002-.2602539-.052002-.4516602.4516602-.8852539.9204102-1.3022461,1.40625-.9375,1.0766602-1.9101562,2.1184082-2.9165039,3.1252441-1.6669922,1.8059082-3.5771484,3.2990723-5.7294922,4.479248-1.9794922,1.0075684-3.5498047,1.145752-4.7138672.416748-1.1630859-.729248-1.6577148-2.1877441-1.484375-4.3752441.5209961-5.590332,3.0732422-10.0695801,7.6567383-13.4379883,1.0415039-.7634277,2.2045898-1.2150879,3.4897461-1.354248,2.7773438-.3466797,4.6523438.7990723,5.625,3.4375.0693359.1743164.1381836.3476562.2084961.5209961.0688477.104248.1210938.208252.15625.3125.2080078-.0341797.3647461-.104248.46875-.208252.1040039-.104248.2084961-.2255859.3125-.3647461.1040039-.104248.2084961-.208252.3125-.3125.2084961-.1733398.4165039-.286377.625-.338623.2084961-.052002.4335938-.0258789.6772461.078125.4858398.3125.6938477.729248.625,1.2502441-.1044922.6948242-.2436523,1.3720703-.4169922,2.03125-.1040039.3125-.190918.625-.2602539.9375-.6601562,2.0141602-1.0595703,4.0627441-1.1977539,6.1459961v.5209961c-.0703125.4516602-.078125.8684082-.0263672,1.25.0522461.3825684.2685547.6950684.6513672.9375.4858398.2434082.9375.2695312,1.3540039.078125.4165039-.1904297.7983398-.442627,1.1459961-.755127.1040039-.0693359.1904297-.1384277.2602539-.2084961,2.9169922-2.3608398,5.590332-4.9821777,8.0214844-7.8647461.1040039-.1384277.2080078-.2775879.3125-.416748.1381836-.208252.2944336-.3986816.46875-.572998.2080078-.208252.4248047-.364502.6508789-.46875.2255859-.1040039.4946289-.052002.8071289.15625Zm-17.3964844,1.9272461c.4511719-.5900879.6420898-1.2150879.5732422-1.875,0-1.9094238-.5209961-3.1772461-1.5625-3.8022461-1.0419922-.6252441-2.3959961-.4858398-4.0629883.4165039-.6601562.3825684-1.2851562.8164062-1.875,1.3022461-2.8125,2.7434082-4.6005859,6.0419922-5.3647461,9.8962402-.1381836.5908203-.1733398,1.197998-.1040039,1.822998.1040039,1.3891602.815918,1.8579102,2.1352539,1.40625.9716797-.3815918,1.875-.885498,2.7084961-1.510498,2.8466797-2.2568359,5.3647461-4.8088379,7.5522461-7.6564941Z"/>
              <path class="cls-2" d="m159.4525649,97.6146676c-3.0209961,0-4.6879883-1.3713379-5.0004883-4.1147461-.1381836-1.6315918.0439453-3.1772461.5473633-4.635498.503418-1.4584961,1.1376953-2.8818359,1.9008789-4.2709961.1040039-.2775879.2866211-.4599609.546875-.546875.2602539-.0864258.546875-.0603027.859375.078125.3125.1740723.46875.3823242.46875.625,0,.2434082-.0698242.520752-.2084961.833252-.7641602,1.5285645-1.3720703,3.1430664-1.8227539,4.8439941,0,.104248-.0170898.1911621-.0522461.260498-.0688477.3125-.1210938.6428223-.15625.989502-.3125,3.0559082,1.0419922,4.2539062,4.0629883,3.5939941,1.7358398-.5209961,3.3676758-1.2670898,4.8959961-2.2397461,3.9233398-2.2568359,7.6733398-4.7397461,11.2504883-7.4482422,1.2148438-1.0065918,1.9790039-1.1628418,2.2915039-.46875.2426758.4868164.2514648.8945312.0263672,1.2241211-.2265625.3303223-.4951172.598877-.8076172.807373l-.0522461.052002c-4.7915039,3.8200684-9.9658203,7.0493164-15.5214844,9.6877441-1.1113281.4868164-2.1875.729248-3.2290039.729248Zm-.2084961-17.9172363c-.5209961-.0341797-.7993164-.3466797-.8334961-.9377441-.034668-.5898438.1386719-1.09375.5209961-1.5102539,1.527832-2.0834961,3.2636719-3.9755859,5.2084961-5.6774902.277832-.208252.5732422-.3986816.8857422-.5727539.4165039-.2084961.7983398-.15625,1.1455078.15625.277832.3823242.2949219.7641602.0522461,1.145752-.3125.416748-.6430664.78125-.9897461,1.09375-1.909668,1.6325684-3.5766602,3.4897461-5,5.5732422-.1040039.1740723-.2260742.3303223-.3647461.46875-.1391602.1391602-.347168.2263184-.625.260498Z"/>
              <path class="cls-2" d="m200.8607681,84.8016793c.2773438.2084961.4248047.4428711.4423828.703125.0170898.260498-.0439453.5297852-.1821289.807373-.2084961.3474121-.4516602.6772461-.7290039.9897461-3.8203125,4.3408203-7.8481445,8.4555664-12.0839844,12.3442383-1.1118164.9724121-2.2919922,1.8408203-3.5419922,2.604248-.034668,0-.0517578.0178223-.0517578.052002-.5908203.3474121-1.1811523.6428223-1.7709961.885498-.6601562.2434082-1.3110352.364502-1.953125.364502-.6430664,0-1.2421875-.2253418-1.7973633-.677002-.5556641-.5209961-.859375-1.1020508-.9111328-1.744873-.0522461-.6420898.0258789-1.2932129.234375-1.953125.3466797-1.1459961.8330078-2.2219238,1.4584961-3.2294922.4165039-.6591797.8330078-1.3190918,1.25-1.979248.5898438-.9716797,1.1977539-1.9611816,1.8227539-2.96875.4165039-.6943359.78125-1.4404297,1.09375-2.2397461.3466797-.9375.0170898-1.4753418-.9897461-1.614502-.8681641-.104248-1.71875-.0864258-2.5517578.052002-.1743164.0349121-.3647461.052002-.5732422.052002-.2783203.0351562-.5556641.0700684-.8334961.104248-.6948242.104248-1.3891602.15625-2.0830078.15625-1.5629883,0-2.4130859-.78125-2.5522461-2.34375-.0341797-.8676758.1391602-1.666748.5205078-2.3959961,1.3203125-2.604248,3.3676758-4.392334,6.1464844-5.3647461.4858398-.2084961.9804688-.2946777,1.484375-.260498.5029297.0349121.9633789.2783203,1.3803711.729248.3813477.4516602.546875.9291992.4946289,1.432373-.0522461.5036621-.1821289.9985352-.390625,1.484375-.3823242.7990723-.8515625,1.5283203-1.40625,2.1875,0,.0351562-.0180664.0700684-.0522461.104248-.1040039.1391602-.2260742.260498-.3647461.364502-.1738281.1743164-.3212891.3476562-.4423828.5209961-.1220703.1740723-.2001953.3823242-.234375.625.4165039.208252.8671875.3125,1.3540039.3125.2773438,0,.5727539.0349121.8857422.104248,2.1875.6599121,2.9858398,2.083252,2.3955078,4.2709961-.3823242,1.0766602-.8852539,2.083252-1.5102539,3.020752-.3823242.6252441-.78125,1.2680664-1.1982422,1.9272461-.5205078.7993164-1.0244141,1.6147461-1.5102539,2.447998-.4868164.7993164-.8852539,1.6147461-1.1977539,2.447998-.0703125.104248-.1220703.2084961-.15625.3125-.1391602.2783203-.234375.5559082-.2866211.8334961-.0522461.2783203.0258789.5385742.234375.78125.3125.2783203.625.3735352.9375.286377.3125-.0861816.625-.2163086.9375-.390625.0693359-.0341797.15625-.0690918.2602539-.104248,1.8754883-1.0756836,3.5942383-2.3608398,5.1567383-3.854248,3.6801758-3.4716797,7.2045898-7.1176758,10.5732422-10.9379883.0341797-.0341797.0864258-.0861816.15625-.15625.2773438-.3125.5551758-.6069336.8334961-.8852539.4165039-.416748.8505859-.486084,1.3022461-.2084961Zm-23.9072266.15625c2.2563477-.833252,4.0273438-2.6213379,5.3125-5.3647461-3.1601562.8684082-4.9301758,2.65625-5.3125,5.3647461Z"/>
              <path class="cls-2" d="m226.9032485,86.8851754c-.625.4516602-1.3022461.7990723-2.03125,1.041748-3.6118164,1.3200684-7.3271484,2.083252-11.1464844,2.291748-.9726562.0349121-1.7016602.4345703-2.1875,1.197998-1.3540039,1.979248-3.0209961,3.6289062-5,4.947998-1.2163086.8684082-2.5703125,1.3720703-4.0629883,1.510498-2.0493164.0700684-3.4375-.8503418-4.1665039-2.760498-.4858398-1.4233398-.6074219-2.8647461-.3647461-4.3232422.4165039-2.708252,1.2851562-5.260498,2.6040039-7.6564941.0341797-.0341797.0693359-.0861816.1044922-.15625.1381836-.2775879.2944336-.5290527.46875-.755127.1733398-.2255859.3984375-.3208008.6767578-.2866211.5551758.0351562.9550781-.0600586,1.1982422-.286377.2426758-.2253418.4335938-.5290527.5727539-.9116211.0693359-.1381836.1386719-.2773438.2084961-.4165039.625-1.041748,1.5537109-1.8312988,2.7866211-2.369873,1.2319336-.5380859,2.5258789-.7202148,3.8803711-.546875,2.1875.4165039,3.559082,1.71875,4.1147461,3.90625.3125,1.5283203.2426758,3.0388184-.2084961,4.5314941-.034668.1740723-.0869141.3474121-.15625.520752-.2080078.4516602-.3125.9555664-.3125,1.510498.9375.1391602,1.840332.0871582,2.7084961-.15625.1381836,0,.2602539-.0170898.3647461-.052002.2080078-.0341797.4165039-.0690918.625-.104248,2.8818359-.4165039,5.6420898-1.2670898,8.28125-2.552002.3129883-.1733398.6162109-.2775879.9116211-.3127441.2949219-.0341797.546875.104248.7553711.416748.2084961.3825684.234375.7211914.078125,1.015625-.15625.2954102-.390625.546875-.703125.7553711Zm-22.9174805,8.3337402c2.4301758-1.1801758,4.4272461-2.986084,5.9897461-5.4169922-3.0561523-1.1459961-5.2788086-3.1594238-6.6669922-6.0419922-1.3198242,1.3200684-2.2055664,2.7524414-2.65625,4.2971191-.4516602,1.5454102-.6601562,3.151123-.625,4.8178711.1733398,2.604248,1.4921875,3.385498,3.9584961,2.3439941Zm7.0834961-7.8129883c.5898438-.3125.9716797-.8154297,1.1459961-1.510498.1733398-.6940918.2773438-1.3713379.3125-2.03125,0-.1384277.0170898-.2775879.0517578-.416748-.1040039-2.7775879-1.284668-4.0625-3.5415039-3.854248-.7641602.0700684-1.4672852.260498-2.109375.572998-.6430664.3125-1.1030273.8513184-1.3803711,1.614502-.2084961.6950684-.1655273,1.3112793.1298828,1.8491211.2949219.5388184.668457,1.0505371,1.1201172,1.5366211.0341797.0349121.0693359.0698242.1040039.1040039.0341797.0700684.0864258.1220703.15625.15625.1733398.1391602.3466797.2954102.5209961.46875.5551758.5209961,1.1279297.9555664,1.71875,1.3022461.590332.3474121,1.1801758.416748,1.7709961.208252Z"/>
              <path class="cls-2" d="m310.4999282,82.0931832c1.3876953,1.5627441-.2783203,2.2397461-5,2.0314941h-.46875c-.6953125-.0693359-1.3730469.0698242-2.0322266.4165039.3466797,2.4311523.1386719,4.8098145-.625,7.1357422-1.3193359,5.0351562-2.6220703,10.0705566-3.90625,15.1047363-1.1806641,4.5136719-2.3613281,9.0280762-3.5419922,13.5422363-.3818359,1.5969238-.7470703,3.1943359-1.09375,4.7919922-.1738281.7634277-.3466797,1.5275879-.5205078,2.291748-.0351562.1733398-.0703125.364502-.1044922.572998-.0693359.208252-.1220703.4165039-.15625.625-.0693359.3815918-.2001953.703125-.390625.963623-.1914062.2602539-.5126953.3383789-.9628906.234375-.3828125-.0700684-.6171875-.2524414-.703125-.546875-.0878906-.2956543-.0966797-.6169434-.0263672-.963623.3466797-2.3269043.8330078-4.6357422,1.4580078-6.9274902,1.3544922-5.2434082,2.7089844-10.5041504,4.0625-15.7817383,1.1113281-4.2709961,2.2226562-8.5419922,3.3339844-12.8132324.3466797-1.3190918.6591797-2.6733398.9375-4.0625v-.15625c.2080078-.6591797.2080078-1.3884277,0-2.1877441-.8330078.3825684-1.5283203.9035645-2.0830078,1.5627441-.1396484.1040039-.2607422.2260742-.3652344.364502-1.5283203,1.4584961-3.0556641,2.916748-4.5830078,4.3752441-4.2021484,4.1325684-8.4902344,8.1601562-12.8652344,12.0837402-3.2646484,3.0209961-6.7539062,5.7636719-10.4697266,8.2294922-2.2568359,1.5625-4.7226562,2.6213379-7.3955078,3.1772461-3.6816406.5549316-6.2333984-.8684082-7.6572266-4.2709961-1.1113281-3.229248-1.40625-6.5107422-.8847656-9.8442383.4501953-4.0275879,1.3193359-7.9250488,2.6044922-11.6931152,1.2841797-3.767334,2.8291016-7.439209,4.6347656-11.0161133,5.5556641-11.3886719,13.2646484-21.0944824,23.1259766-29.1157227,4.1669922-3.4375,8.7509766-6.1281738,13.7509766-8.0732422,2.4296875-.9716797,4.9296875-1.4924316,7.5-1.5625,4.6875.0349121,8.2822266,1.536377,10.7822266,4.5053711,2.5,2.96875,3.3847656,6.7629395,2.65625,11.3806152-.4873047,2.1875-1.1640625,4.3232422-2.03125,6.4064941-.1748047.416748-.3476562.8513184-.5214844,1.3022461-.1035156.3125-.2597656.572998-.46875.78125-.2080078.208252-.5039062.2434082-.8847656.104248-.3476562-.1384277-.5390625-.3557129-.5732422-.651123-.0351562-.2946777,0-.5991211.1044922-.9116211.2421875-.7983398.5205078-1.5795898.8330078-2.34375.6943359-1.7009277,1.1796875-3.4377441,1.4580078-5.2084961.5908203-4.2011719-.3378906-7.5524902-2.7861328-10.0524902-2.4482422-2.5002441-5.7910156-3.5239258-10.0263672-3.072998-3.1601562.520752-6.1640625,1.5283203-9.0107422,3.020752-6.8066406,3.5419922-12.7441406,8.1774902-17.8134766,13.9069824-9.5839844,10.4169922-16.2509766,22.4316406-20.0009766,36.0429688-1.25,4.0976562-1.6142578,8.2988281-1.09375,12.6047363.7636719,5.2426758,3.6113281,6.8574219,8.5419922,4.8439941,2.6738281-1.1809082,5.15625-2.6914062,7.4482422-4.5314941,4.375-3.4375,8.5595703-7.0834961,12.5527344-10.9379883,3.0898438-2.916748,6.1464844-5.8334961,9.1669922-8.7502441,1.3886719-1.3193359,2.7607422-2.6213379,4.1152344-3.9064941.0683594-.0690918.1298828-.15625.1816406-.2602539.0527344-.104248.0429688-.2426758-.0253906-.416748-2.0839844-.0693359-4.1855469,0-6.3027344.208252-.8330078.0700684-1.6669922.1220703-2.5.15625-.1044922,0-.2080078.0178223-.3125.0522461-.1044922.0698242-.2080078.1040039-.3125.1040039-.4873047.0351562-.8857422-.052002-1.1982422-.260498-.3125-.208252-.46875-.5029297-.46875-.8852539.0341797-.4509277.1992188-.7373047.4951172-.859375.2939453-.1213379.6328125-.1994629,1.015625-.2346191,1.5966797-.0690918,3.1943359-.1381836,4.7919922-.208252,1.8046875-.104248,3.59375-.208252,5.3642578-.3125,6.1113281-.3125,9.8613281-.3466797,11.2509766-.104248Z"/>
              <path class="cls-2" d="m347.324147,85.1141793c.3125.2434082.46875.5039062.46875.78125,0,.2783203-.0869141.572998-.2597656.885498-.2089844.3476562-.4521484.6772461-.7294922.9897461-2.3623047,2.7434082-4.8964844,5.2956543-7.6044922,7.6564941-.9033203.7990723-1.9101562,1.4240723-3.0214844,1.875-2.3613281.8334961-3.8720703.0522461-4.53125-2.34375-.2431641-1.041748-.2949219-2.0834961-.15625-3.1252441.1044922-.6940918.1904297-1.40625.2607422-2.135498.0341797-.3125.0693359-.625.1044922-.9375h-.0527344c-.1035156-.0341797-.1914062-.052002-.2597656-.052002-.4521484.4516602-.8857422.9204102-1.3027344,1.40625-.9375,1.0766602-1.9101562,2.1184082-2.9169922,3.1252441-1.6660156,1.8059082-3.5761719,3.2990723-5.7294922,4.479248-1.9785156,1.0075684-3.5498047,1.145752-4.7128906.416748-1.1630859-.729248-1.6582031-2.1877441-1.484375-4.3752441.5205078-5.590332,3.0722656-10.0695801,7.65625-13.4379883,1.0419922-.7634277,2.2041016-1.2150879,3.4892578-1.354248,2.7783203-.3466797,4.6533203.7990723,5.6259766,3.4375.0683594.1743164.1376953.3476562.2080078.5209961.0693359.104248.1210938.208252.15625.3125.2080078-.0341797.3642578-.104248.46875-.208252.1044922-.104248.2080078-.2255859.3125-.3647461.1044922-.104248.2080078-.208252.3125-.3125.2080078-.1733398.4169922-.286377.625-.338623.2080078-.052002.4335938-.0258789.6767578.078125.4863281.3125.6943359.729248.625,1.2502441-.1035156.6948242-.2431641,1.3720703-.4160156,2.03125-.1044922.3125-.1914062.625-.2607422.9375-.6601562,2.0141602-1.0595703,4.0627441-1.1982422,6.1459961v.5209961c-.0693359.4516602-.078125.8684082-.0253906,1.25.0517578.3825684.2685547.6950684.6503906.9375.4863281.2434082.9375.2695312,1.3544922.078125.4169922-.1904297.7988281-.442627,1.1455078-.755127.1044922-.0693359.1904297-.1384277.2607422-.2084961,2.9169922-2.3608398,5.5898438-4.9821777,8.0214844-7.8647461.1035156-.1384277.2080078-.2775879.3125-.416748.1376953-.208252.2939453-.3986816.46875-.572998.2080078-.208252.4248047-.364502.6503906-.46875.2255859-.1040039.4951172-.052002.8076172.15625Zm-17.3964844,1.9272461c.4511719-.5900879.6425781-1.2150879.5732422-1.875,0-1.9094238-.5214844-3.1772461-1.5625-3.8022461-1.0419922-.6252441-2.3964844-.4858398-4.0625.4165039-.6601562.3825684-1.2851562.8164062-1.875,1.3022461-2.8134766,2.7434082-4.6015625,6.0419922-5.3652344,9.8962402-.1386719.5908203-.1738281,1.197998-.1044922,1.822998.1044922,1.3891602.8164062,1.8579102,2.1357422,1.40625.9716797-.3815918,1.875-.885498,2.7080078-1.510498,2.8476562-2.2568359,5.3652344-4.8088379,7.5527344-7.6564941Z"/>
              <path class="cls-2" d="m369.6161392,84.8016793c.2773438.2084961.4248047.4428711.4433594.703125.0166016.260498-.0439453.5297852-.1826172.807373-.2080078.3474121-.4521484.6772461-.7294922.9897461-3.8203125,4.3408203-7.8476562,8.4555664-12.0839844,12.3442383-1.1113281.9724121-2.2910156,1.8408203-3.5410156,2.604248-.0351562,0-.0527344.0178223-.0527344.052002-.5908203.3474121-1.1806641.6428223-1.7705078.885498-.6601562.2434082-1.3115234.364502-1.953125.364502-.6435547,0-1.2421875-.2253418-1.796875-.677002-.5556641-.5209961-.859375-1.1020508-.9121094-1.744873-.0517578-.6420898.0263672-1.2932129.234375-1.953125.3466797-1.1459961.8339844-2.2219238,1.4589844-3.2294922.4160156-.6591797.8330078-1.3190918,1.25-1.979248.5898438-.9716797,1.1982422-1.9611816,1.8232422-2.96875.4160156-.6943359.78125-1.4404297,1.09375-2.2397461.3466797-.9375.0166016-1.4753418-.9902344-1.614502-.8681641-.104248-1.71875-.0864258-2.5517578.052002-.1748047.0349121-.3652344.052002-.5732422.052002-.2783203.0351562-.5556641.0700684-.8330078.104248-.6953125.104248-1.3896484.15625-2.0839844.15625-1.5625,0-2.4130859-.78125-2.5517578-2.34375-.0341797-.8676758.1386719-1.666748.5205078-2.3959961,1.3203125-2.604248,3.3681641-4.392334,6.1464844-5.3647461.4853516-.2084961.9804688-.2946777,1.484375-.260498.5029297.0349121.9638672.2783203,1.3798828.729248.3818359.4516602.546875.9291992.4951172,1.432373-.0517578.5036621-.1826172.9985352-.390625,1.484375-.3828125.7990723-.8515625,1.5283203-1.40625,2.1875,0,.0351562-.0175781.0700684-.0517578.104248-.1044922.1391602-.2265625.260498-.3652344.364502-.1738281.1743164-.3212891.3476562-.4423828.5209961-.1220703.1740723-.2001953.3823242-.234375.625.4169922.208252.8671875.3125,1.3544922.3125.2773438,0,.5722656.0349121.8847656.104248,2.1875.6599121,2.9863281,2.083252,2.3964844,4.2709961-.3828125,1.0766602-.8857422,2.083252-1.5107422,3.020752-.3828125.6252441-.78125,1.2680664-1.1982422,1.9272461-.5205078.7993164-1.0244141,1.6147461-1.5097656,2.447998-.4873047.7993164-.8857422,1.6147461-1.1982422,2.447998-.0703125.104248-.1220703.2084961-.15625.3125-.1396484.2783203-.234375.5559082-.2871094.8334961-.0517578.2783203.0263672.5385742.234375.78125.3125.2783203.625.3735352.9375.286377.3134766-.0861816.6259766-.2163086.9384766-.390625.0683594-.0341797.15625-.0690918.2597656-.104248,1.875-1.0756836,3.59375-2.3608398,5.15625-3.854248,3.6806641-3.4716797,7.2050781-7.1176758,10.5742188-10.9379883.0341797-.0341797.0859375-.0861816.15625-.15625.2773438-.3125.5546875-.6069336.8330078-.8852539.4169922-.416748.8505859-.486084,1.3017578-.2084961Zm-23.9072266.15625c2.2568359-.833252,4.0283203-2.6213379,5.3134766-5.3647461-3.1601562.8684082-4.9306641,2.65625-5.3134766,5.3647461Z"/>
              <path class="cls-2" d="m425.5565688,7.1943795c-2.0146484,7.4661865-4.6875,14.6881104-8.0214844,21.6676025-5.3828125,11.7370605-11.5625,23.0395508-18.5419922,33.9074707-.8681641,1.354248-1.5800781,2.7785645-2.1357422,4.2712402-9.3056641,25.8000488-18.1435547,51.737793-26.5117188,77.8154297-.3466797,1.111084-.7470703,2.2219238-1.1972656,3.3334961-.1044922.2775879-.2695312.494873-.4951172.651123s-.4951172.182373-.8076172.078125c-.3125-.1391602-.5029297-.3303223-.5722656-.572998-.0693359-.2431641-.0693359-.520752,0-.833252.1386719-.4516602.2783203-.9033203.4160156-1.354248,0-.0700684.0185547-.1391602.0527344-.208252,5.9716797-18.9941406,12.2919922-37.8840332,18.9589844-56.6689453,1.5625-4.4443359,3.1074219-8.888916,4.6357422-13.3339844.0683594-.1733398.1210938-.3295898.15625-.46875.2421875-.4509277.3642578-1.0068359.3642578-1.666748-.5205078.416748-.9208984.885498-1.1982422,1.40625-.0693359.104248-.15625.2263184-.2597656.3647461-4.7226562,6.8059082-9.9492188,13.1953125-15.6777344,19.1672363-1.8066406,1.8410645-3.7509766,3.5078125-5.8339844,5.0002441-1.0419922.7641602-2.1699219,1.3022461-3.3857422,1.6147461-2.1171875.3825684-3.2978516-.5029297-3.5419922-2.6564941-.0683594-1.0415039.0703125-2.0654297.4169922-3.072998,1.5625-5.104248,4.2714844-9.4616699,8.125-13.0734863,1.4589844-1.458252,3.1777344-2.5,5.1572266-3.125,2.5341797-.8676758,4.5830078-.1904297,6.1455078,2.03125.0693359.0700684.1210938.1391602.15625.2084961.0693359.1391602.1474609.2521973.234375.3383789.0869141.0871582.1992188.1481934.3388672.182373.4511719-.2775879.8154297-.6420898,1.09375-1.09375.0693359-.1384277.15625-.2775879.2607422-.416748,3.8193359-5.0344238,7.4648438-10.190918,10.9375-15.4692383.7294922-1.1801758,1.3193359-2.4301758,1.7705078-3.7502441,5.5214844-15.4172363,11.4931641-30.6604004,17.9179688-45.7310791,1.7011719-4.0275879,3.6630859-7.934082,5.8857422-11.7191162.6591797-1.2501221,1.4921875-2.3609619,2.5-3.3334961.2773438-.2775879.5898438-.4769287.9375-.598999.3466797-.1212158.7294922-.1123047,1.1455078.026001.8339844.3475342,1.25.989624,1.25,1.9272461.0341797,1.770874-.1904297,3.489624-.6767578,5.1563721Zm-45.1582031,77.8677979c.4511719-.5209961.5029297-1.0759277.15625-1.666748-.8681641-1.979248-2.3261719-2.6213379-4.375-1.9272461-1.4580078.5209961-2.7431641,1.3200684-3.8544922,2.3959961-3.6455078,3.3684082-6.2324219,7.4140625-7.7607422,12.1359863-.1728516.4865723-.2949219.9375-.3642578,1.354248-.0341797.1391602-.0527344.2602539-.0527344.364502-.0341797.729248.0527344,1.1809082.2607422,1.354248.2089844.1740723.5732422.1740723,1.09375,0,.9375-.3125,1.7890625-.78125,2.5527344-1.40625,2.3251953-1.8051758,4.4960938-3.7844238,6.5107422-5.9377441,2.0126953-2.1525879,3.9580078-4.3752441,5.8330078-6.6669922Zm22.2929688-32.7617188c.1035156-.1384277.2080078-.2775879.3125-.416748.2080078-.3125.3984375-.625.5722656-.9375,5.3476562-9.097168,10.1054688-18.5074463,14.2714844-28.2303467,2.2919922-5.27771,4.1669922-10.6945801,5.6259766-16.2506104.0341797-.1384277.0683594-.2946777.1035156-.46875.2431641-.833374.3652344-1.7709961.3652344-2.8126221-.3828125.208252-.6777344.4516602-.8857422.729126-.2080078.2783203-.3828125.5559082-.5205078.833374-.0703125.104126-.1396484.208374-.2089844.3125-1.3535156,2.2575684-2.5869141,4.5834961-3.6982422,6.9794922-3.9238281,8.5770264-7.5517578,17.2752686-10.8857422,26.0948486-1.25,3.1950684-2.4824219,6.3894043-3.6982422,9.5837402-.5556641,1.458252-1.1113281,2.916748-1.6660156,4.375.0341797,0,.0693359.0180664.1035156.0522461.0693359.0698242.1386719.1220703.2089844.15625Z"/>
              <path class="cls-2" d="m424.411061,86.2079293c-.2431641.6950684-.6601562,1.2331543-1.25,1.6147461-4.3408203,3.4035645-9.0292969,6.2331543-14.0634766,8.4899902-2.2578125.9724121-4.6181641,1.4240723-7.0839844,1.354248-1.3535156,0-2.6220703-.2946777-3.8017578-.885498-2.9511719-1.8051758-3.9404297-4.3574219-2.96875-7.6564941.7636719-1.8752441,2.1015625-3.4199219,4.0107422-4.6357422,1.9091797-1.2150879,3.8886719-1.7709961,5.9375-1.666748.3125.0349121.6416016.0871582.9892578.15625,1.3886719.2783203,2.2744141,1.0595703,2.65625,2.3439941.2431641,1.2849121-.15625,2.3266602-1.1972656,3.125-2.3964844,2.1184082-5.15625,2.916748-8.2822266,2.3959961-.4160156-.104248-.8330078-.2255859-1.25-.3647461-.2080078-.0690918-.4501953-.1381836-.7285156-.208252-.5556641,2.3959961.2783203,4.010498,2.5,4.8439941,1.1796875.3825684,2.4130859.4865723,3.6982422.3125,2.8818359-.3466797,5.5546875-1.25,8.0205078-2.7084961,3.7841797-2.0483398,7.3613281-4.4272461,10.7294922-7.1357422.2089844-.1733398.4345703-.3466797.6777344-.520752.3125-.1733398.6416016-.1733398.9892578,0,.3818359.3125.5205078.6950684.4169922,1.145752Zm-24.2197266.3125c-.1044922.0700684-.2265625.1391602-.3652344.2084961-.3125.1740723-.5986328.3825684-.859375.625-.2597656.2434082-.3378906.5388184-.234375.885498.1044922.3125.3300781.5126953.6777344.598877.3466797.0871582.7285156.1303711,1.1455078.1303711h.46875c1.8398438-.0693359,3.5244141-.7114258,5.0527344-1.9272461.1728516-.1384277.3291016-.3125.46875-.5209961.1376953-.208252.1728516-.4506836.1035156-.7290039-.1035156-.2426758-.2695312-.416748-.4941406-.5209961-.2265625-.1040039-.4609375-.15625-.703125-.15625-1.9453125-.208252-3.6982422.260498-5.2607422,1.40625Z"/>
              <path class="cls-2" d="m455.8700454,85.0101754c.4169922-.3818359.8505859-.3818359,1.3027344,0,.2080078.1740723.3203125.3735352.3378906.598877.0175781.2263184-.0439453.4606934-.1816406.703125-.2783203.5559082-.6601562,1.041748-1.1464844,1.4584961-.625.5556641-1.25,1.1115723-1.875,1.666748-3.1953125,2.8825684-6.3886719,5.7644043-9.5830078,8.6459961-1.0771484,1.0075684-2.2919922,1.7888184-3.6464844,2.3439941-2.0488281.6950684-3.2470703,0-3.59375-2.0834961-.1738281-1.3884277-.0869141-2.760498.2607422-4.1147461.6591797-2.7084961,1.4580078-5.3469238,2.3955078-7.9169922.3125-.9375.625-1.8920898.9375-2.8647461.0341797-.1381836.0859375-.2944336.15625-.46875.5205078-1.3884277.8671875-2.8295898,1.0419922-4.322998.1728516-1.4926758-.3828125-1.8400879-1.6669922-1.041748-.9375.4516602-1.8056641,1.0075684-2.6044922,1.666748-6.6328125,5.6601562-11.9794922,12.3442383-16.0419922,20.0529785-.0693359.1040039-.1210938.2260742-.15625.364502-.0341797.0349121-.0517578.0871582-.0517578.15625-.1044922.3125-.2431641.5908203-.4169922.833252-.1738281.2434082-.46875.3305664-.8857422.260498-.4501953-.0690918-.8330078-.3205566-1.1455078-.755127-.3125-.4338379-.4511719-.8935547-.4169922-1.3803711.1396484-.6940918.3125-1.3713379.5214844-2.03125,2.2216797-7.9511719,4.8085938-15.7819824,7.7607422-23.4904785.2080078-.5900879.46875-1.1630859.78125-1.7189941.1376953-.3125.3378906-.546875.5986328-.703125s.5634766-.130127.9111328.078125c.2773438.1743164.4335938.390625.46875.651123.0341797.260498-.0351562.5297852-.2080078.807373-.0703125.1391602-.1396484.2783203-.2080078.416748,0,.0698242-.0185547.1220703-.0527344.15625-2.0830078,5.3825684-3.9238281,10.8337402-5.5205078,16.3547363-.3125,1.0075684-.625,1.9970703-.9375,2.96875v.3125c.0341797.0700684.0517578.1743164.0517578.3127441.5205078-.3818359.8857422-.8156738,1.09375-1.3022461.1044922-.1384277.2080078-.2775879.3125-.416748,2.8466797-4.2709961,6.1464844-8.1772461,9.8964844-11.7192383,1.4228516-1.354248,2.96875-2.5341797,4.6357422-3.541748.7626953-.520752,1.5966797-.8503418,2.5-.989502,1.4580078-.2084961,2.4130859.3823242,2.8642578,1.770752.2089844.8334961.2431641,1.666748.1044922,2.5002441-.3828125,1.979248-.9208984,3.90625-1.6152344,5.7814941-.0341797.1391602-.0693359.2783203-.1035156.4165039-.2089844.625-.4169922,1.25-.625,1.8752441-.9033203,2.5-1.6669922,5.0522461-2.2919922,7.6564941-.0351562.1740723-.0703125.364502-.1044922.572998-.1386719.520752-.2255859,1.015625-.2597656,1.484375-.0351562.46875.1035156.8251953.4160156,1.067627.4169922.2783203.8251953.2954102,1.2246094.0522461.3984375-.2426758.7724609-.5380859,1.1191406-.885498.1738281-.1384277.3300781-.2775879.46875-.416748,2.9511719-2.4650879,5.8164062-5.0002441,8.5947266-7.6044922,1.2148438-1.1108398,2.4296875-2.239502,3.6455078-3.385498.1386719-.104248.2607422-.208252.3652344-.3125.1728516-.208252.3642578-.3815918.5722656-.520752Z"/>
            </g>
            <g class="cls-6">
              <path class="cls-4" d="m178.5828423,164.6025645c1.1414505-11.826703,11.4848524-20.2627451,22.4303227-15.1707405,8.907054,4.1443791,11.32027,14.6140599,22.3795806,11.435758,8.664958-2.4913063,13.7750847-13.3575334,24.2479778-11.2603847,9.9406775,1.9893217,10.0288172,11.4558572,10.2592161,19.6329168.4617862,16.3998365-9.71588,65.6920987-34.1455739,57.1490534-20.488032-7.1642765-47.3068932-39.6736651-45.1715232-61.786603Z"/>
            </g>
            <g class="cls-6">
              <path class="cls-4" d="m205.6341574,205.2439543c-3.3471676-6.6430166-8.9419803-20.8379598-2.4969076-27.3812219,7.8769725-7.9960025,15.4405959-.4705178,23.3485458,3.139751,10.3690975,4.7332677,11.7715899-.9757973,21.9733916-3.7864659,22.1290825-6.0976212,15.2547611,18.0916249,10.0099537,27.225124-3.7257565,6.4869187-15.5657214,19.2773101-24.6609989,20.6722241-10.8115309,1.6586742-24.2109097-12.0037238-28.1739845-19.8694113Z"/>
            </g>
            <g class="cls-6">
              <path class="cls-3" d="m230.1423583,226.3545706c-6.0267848-34.5373435-43.4520584-35.3595141-66.3393112-52.2501324-.2425078-.0176279-.4854241-.0248768-.7284262-.0200992,2.5452576,33.8898049,36.6711442,53.3505609,68.042294,53.2460288l-.9745567-.9757973Z"/>
            </g>
            <g>
              <g>
                <path class="cls-1" d="m201.0463149,19.5176217h1.2871094v.5418701h-3.9624023v-.5418701h1.3544922v-8.7581787h-1.3544922v-.5418701h3.9624023v.5418701h-1.2871094v8.7581787Zm.2709961-4.538208l4.1455078-4.2199707h-1.0229492v-.5418701h3.1904297v.5418701h-1.375l-3.7392578,3.7592773,4.4165039,4.9989014h1.0566406v.5418701h-3.7387695v-.5418701h1.0161133l-3.9492188-4.538208Z"/>
                <path class="cls-1" d="m211.2064712,10.759443v8.7581787h1.3549805v.5418701h-4.0302734v-.5418701h1.3544922v-8.7581787h-1.3544922v-.5418701h4.0302734v.5418701h-1.3549805Z"/>
                <path class="cls-1" d="m212.7982681,10.2175728h4.0302734v.5418701h-1.246582l2.5063477,3.921875,2.465332-3.921875h-1.2797852v-.5418701h3.1630859v.5418701h-1.1513672l-2.8994141,4.5924072v4.1657715h1.4902344v.5418701h-4.3012695v-.5418701h1.4902344v-3.9625244l-3.0683594-4.7956543h-1.1987305v-.5418701Z"/>
                <path class="cls-1" d="m223.2157485,15.230024c0-.8083496.109375-1.5352783.3286133-2.1811523.21875-.6456299.5249023-1.1954346.9174805-1.649292.3930664-.4538574.8613281-.8027344,1.4057617-1.0465088.5439453-.2438965,1.1411133-.3657227,1.7915039-.3657227.6411133,0,1.2246094.1185303,1.75.3555908.5273438.2370605.9765625.574707,1.3515625,1.0125732.375.4381104.6660156.9686279.8710938,1.5917969s.3085938,1.3208008.3085938,2.0930176c0,.758667-.1015625,1.4597168-.3027344,2.1031494-.1992188.6435547-.4902344,1.197876-.8691406,1.6629639s-.84375.8286133-1.3925781,1.0904541-1.1679688.3929443-1.8588867.3929443c-.6503906,0-1.2397461-.1175537-1.7680906-.3522949-.5282961-.2347412-.9799563-.571167-1.3549563-1.0092773-.3745117-.4378662-.6645508-.9696045-.8701172-1.5950928-.2055664-.6253662-.3081055-1.326416-.3081055-2.1031494Zm1.4697266-.0406494c0,.6231689.0327148,1.168457.0981445,1.6357422.0654297.4674072.1582031.8693848.277832,1.2056885.1196289.3364258.2651367.6153564.4370117.8365479.1713867.2213135.3632812.3974609.5756836.5283203.2119141.1309814.4423828.2225342.690918.274292.2480469.052002.5102539.0780029.7856445.0780029s.5385742-.026001.7890625-.0780029c.2509766-.0517578.484375-.1444092.7011719-.27771.2167969-.1330566.4130859-.3126221.5888672-.5384521.1757812-.225708.3261719-.5113525.4511719-.8568115.1230469-.345459.21875-.7563477.2871094-1.2327881s.1015625-1.032959.1015625-1.6696777c0-.6231689-.0332031-1.168457-.0976562-1.6358643-.0664062-.4672852-.1582031-.8703613-.2773438-1.2089844-.1210938-.3387451-.265625-.6186523-.4375-.8399658-.171875-.2211914-.3623047-.3973389-.5722656-.5283203-.2099609-.1308594-.4394531-.2224121-.6875-.274292-.2485352-.0518799-.5102539-.0778809-.7856445-.0778809s-.5395508.0270996-.7924805.0811768c-.2529297.0541992-.487793.1468506-.7045898.27771-.2167969.1311035-.4130859.3105469-.5893555.5385742s-.3261719.5136719-.4501953.8568115c-.1245117.3432617-.2202148.7541504-.2880859,1.2327881-.0678711.4787598-.1015625,1.036377-.1015625,1.6730957Z"/>
                <path class="cls-1" d="m233.6063735,17.1129586h.4736328c.0498047.5148926.1494141.9438477.2988281,1.2869873.1484375.3432617.3330078.6164551.5517578.8195801.21875.2032471.4697266.3466797.7519531.4301758.2822266.0836182.5810547.1252441.8974609.1252441.3789062,0,.703125-.0473633.9716797-.1422119s.4902344-.2269287.6640625-.3962402.2998047-.3725586.3789062-.6096191.1191406-.4978027.1191406-.7823486c0-.3521729-.0585938-.642334-.1767578-.8703613-.1171875-.2280273-.2802734-.4222412-.4912109-.5825195-.2099609-.1602783-.4609375-.2990723-.7548828-.416626-.2939453-.1173096-.6162109-.2392578-.96875-.3657227-.3515625-.1263428-.6875-.2596436-1.0058594-.3996582-.3183594-.1398926-.5996094-.3137207-.8427734-.5214844-.2441406-.2077637-.4375-.4616699-.5791016-.762085-.1425781-.300293-.2138672-.6739502-.2138672-1.1209717,0-.4200439.068335-.8037109.203125-1.1514893.1357422-.3476562.3369141-.6445312.6035156-.8907471.265625-.2460938.5966797-.4368896.9921875-.5723877.3945068-.135498.8544922-.203125,1.3779297-.203125.2080078,0,.4228516.0101318.6435547.0303955.2216797.0203857.4414062.0507812.6601562.0914307.2197266.0406494.4345703.0892334.6474609.1456299.2119141.0565186.4130859.1185303.6025391.1862793l.0810547,2.4588623h-.4736328c-.0410156-.487793-.1308594-.8850098-.2714844-1.1921387-.1396484-.3071289-.3105469-.5474854-.5107422-.7214355-.2011719-.1738281-.4248047-.293457-.6708984-.3590088-.2460938-.0654297-.4980469-.0981445-.7548828-.0981445-.34375,0-.6416016.041748-.8945312.1252441-.2529297.0836182-.4628906.2032471-.6298828.3590088s-.2919922.345459-.3759766.5689697-.125.4753418-.125.755249c0,.3342285.0585938.6119385.1757812.8331299.1171875.2213135.2832031.4121094.4980469.5723877.2138672.1602783.4716797.3026123.7724609.4267578.2998047.1242676.6308594.2540283.9921875.3894043.3291016.1264648.6533203.2608643.9716797.4030762s.6025391.3206787.8535156.5350342c.2509766.2145996.453125.4787598.6064453.7926025s.2304688.7033691.2304688,1.168335c0,.4516602-.078125.8535156-.234375,1.2056885-.1552734.3522949-.3789062.6480713-.6699219.8873291-.2919922.239502-.6474609.4223633-1.0673828.5487061s-.8935547.1896973-1.421875.1896973c-.2304688,0-.46875-.0113525-.7148438-.0339355s-.4902344-.0565186-.7314453-.1015625c-.2421875-.045166-.4775391-.0970459-.7080078-.1557617s-.4453125-.1264648-.6435547-.2032471l-.0878906-2.682373Z"/>
                <path class="cls-1" d="m243.7469985,14.681318h.8867188c.3027344,0,.5556641-.0112305.7587891-.0338135s.3671875-.0869141.4912109-.1931152c.1240234-.1060791.2177734-.270874.28125-.4943848.0625-.2236328.1083984-.5385742.1347656-.9449463h.4814453v4.0098877h-.4814453c-.0224609-.4108887-.0605469-.7348633-.1142578-.9719238-.0546875-.2371826-.1425781-.416626-.2646484-.5385742s-.2851562-.1986084-.4912109-.2302246c-.2050781-.0316162-.4707031-.0474854-.7958984-.0474854h-.8867188v4.2808838h1.7949219c.3515625,0,.6611328-.0135498.9277344-.0406494s.4990234-.0767822.6972656-.1490479c.1992188-.0721436.3691406-.1737061.5117188-.3048096.1425781-.1308594.265625-.3001709.3691406-.5079346.1035156-.2076416.1914062-.4606934.2646484-.758667.0712891-.2980957.1396484-.6502686.203125-1.0566406h.4736328l-.1357422,3.3596191h-7.7822266v-.5418701h1.3544922v-8.7581787h-1.3544922v-.5418701h7.6132812l.1357422,2.7161865h-.4746094c-.0673828-.4515381-.1513672-.8184814-.25-1.100708-.0996094-.2821045-.2382812-.503418-.4169922-.6638184-.1787109-.1601562-.4111328-.2685547-.6972656-.3250732-.2871094-.0563965-.6494141-.0847168-1.0878906-.0847168h-2.1464844v3.921875Z"/>
                <path class="cls-1" d="m262.2645767,20.1610543h-.5419922l-5.8583984-9.083252-.0341797.0068359v8.4329834h1.21875v.5418701h-3.1835938v-.5418701h1.3554688v-8.7581787h-1.3554688v-.5418701h3.0283203l4.7275391,7.3289795.0341797-.0068359v-6.7802734h-1.3544922v-.5418701h3.3183594v.5418701h-1.3544922v9.4016113Z"/>
                <path class="cls-1" d="m266.9520767,19.5176217v.5418701h-3.2978516v-.5418701h1.2861328l3.5224609-9.4016113h.5351562l3.3056641,9.4016113h1.3408203v.5418701h-4.1650391v-.5418701h1.4082031l-1.015625-2.892334h-3.1972656l-1.0771484,2.892334h1.3544922Zm1.3623047-7.2612305l-1.4296875,3.8203125h2.7978516l-1.3417969-3.8203125h-.0263672Z"/>
                <path class="cls-1" d="m276.6259048,19.5176217h1.2861328v.5418701h-3.9619141v-.5418701h1.3544922v-8.7581787h-1.3544922v-.5418701h3.9619141v.5418701h-1.2861328v8.7581787Zm.2705078-4.538208l4.1455078-4.2199707h-1.0224609v-.5418701h3.1894531v.5418701h-1.375l-3.7382812,3.7592773,4.4160156,4.9989014h1.0566406v.5418701h-3.7392578v-.5418701h1.0166016l-3.9492188-4.538208Z"/>
                <path class="cls-1" d="m286.6971938,19.5176217v.5418701h-3.2978516v-.5418701h1.2861328l3.5224609-9.4016113h.5351562l3.3056641,9.4016113h1.3408203v.5418701h-4.1650391v-.5418701h1.4082031l-1.015625-2.892334h-3.1972656l-1.0771484,2.892334h1.3544922Zm1.3623047-7.2612305l-1.4296875,3.8203125h2.7978516l-1.3417969-3.8203125h-.0263672Z"/>
                <path class="cls-1" d="m296.371022,19.5176217h1.2861328v.5418701h-3.9619141v-.5418701h1.3544922v-8.7581787h-1.3544922v-.5418701h3.9619141v.5418701h-1.2861328v8.7581787Zm.2705078-4.538208l4.1455078-4.2199707h-1.0224609v-.5418701h3.1894531v.5418701h-1.375l-3.7382812,3.7592773,4.4160156,4.9989014h1.0566406v.5418701h-3.7392578v-.5418701h1.0166016l-3.9492188-4.538208Z"/>
                <path class="cls-1" d="m306.5311782,10.759443v8.7581787h1.3544922v.5418701h-4.0302734v-.5418701h1.3544922v-8.7581787h-1.3544922v-.5418701h4.0302734v.5418701h-1.3544922Z"/>
                <path class="cls-1" d="m308.1229751,10.2175728h4.0302734v.5418701h-1.2460938l2.5058594,3.921875,2.4658203-3.921875h-1.2802734v-.5418701h3.1630859v.5418701h-1.1513672l-2.8994141,4.5924072v4.1657715h1.4902344v.5418701h-4.3007812v-.5418701h1.4902344v-3.9625244l-3.0683594-4.7956543h-1.1992188v-.5418701Z"/>
                <path class="cls-1" d="m318.5399673,15.230024c0-.8083496.109375-1.5352783.3291016-2.1811523.21875-.6456299.5244141-1.1954346.9179688-1.649292.3925781-.4538574.8613281-.8027344,1.4052734-1.0465088.5439453-.2438965,1.1416016-.3657227,1.7910156-.3657227.6416016,0,1.2255859.1185303,1.7509766.3555908.5263672.2370605.9765625.574707,1.3515625,1.0125732.375.4381104.6650391.9686279.8701172,1.5917969.2060547.6231689.3085938,1.3208008.3085938,2.0930176,0,.758667-.1005859,1.4597168-.3017578,2.1031494-.2001953.6435547-.4902344,1.197876-.8701172,1.6629639-.3789062.4650879-.8427734.8286133-1.3916016,1.0904541s-1.1689453.3929443-1.859375.3929443c-.6503906,0-1.2402344-.1175537-1.7685547-.3522949s-.9794922-.571167-1.3544922-1.0092773c-.375-.4378662-.6650391-.9696045-.8701172-1.5950928-.2060547-.6253662-.3085938-1.326416-.3085938-2.1031494Zm1.4697266-.0406494c0,.6231689.0332031,1.168457.0986328,1.6357422.0654297.4674072.1582031.8693848.2773438,1.2056885.1201172.3364258.265625.6153564.4375.8365479.171875.2213135.3632812.3974609.5751953.5283203.2128906.1309814.4433594.2225342.6914062.274292.2480469.052002.5097656.0780029.7851562.0780029s.5390625-.026001.7900391-.0780029c.25-.0517578.4833984-.1444092.7001953-.27771.2167969-.1330566.4130859-.3126221.5898438-.5384521.1757812-.225708.3261719-.5113525.4501953-.8568115s.2197266-.7563477.2880859-1.2327881c.0673828-.4764404.1015625-1.032959.1015625-1.6696777,0-.6231689-.0332031-1.168457-.0986328-1.6358643-.0654297-.4672852-.1582031-.8703613-.2773438-1.2089844-.1201172-.3387451-.265625-.6186523-.4365234-.8399658-.171875-.2211914-.3632812-.3973389-.5732422-.5283203-.2099609-.1308594-.4384766-.2224121-.6875-.274292-.2480469-.0518799-.5097656-.0778809-.7851562-.0778809s-.5400391.0270996-.7929688.0811768c-.2529297.0541992-.4873047.1468506-.7041016.27771-.2167969.1311035-.4130859.3105469-.5888672.5385742-.1767578.2280273-.3271484.5136719-.4511719.8568115-.1240234.3432617-.2197266.7541504-.2871094,1.2327881-.0683594.4787598-.1025391,1.036377-.1025391,1.6730957Z"/>
                <path class="cls-1" d="m328.8495376,10.2175728h7.9384766l.1621094,2.9194336h-.4736328c-.0634766-.5057373-.1445312-.9144287-.2441406-1.2260742-.0996094-.3115234-.2402344-.552002-.4238281-.7213135-.1826172-.1693115-.4179688-.2833252-.7070312-.342041s-.6533203-.0881348-1.0908203-.0881348h-.5488281v8.7581787h1.4902344v.5418701h-4.3007812v-.5418701h1.4902344v-8.7581787h-.515625c-.2929688,0-.5527344.0113525-.7783203.0339355s-.4238281.0654297-.5927734.1286621-.3154297.1513672-.4365234.2641602c-.1220703.112915-.2265625.2574463-.3125.4334717-.0849609.1761475-.1591797.3884277-.2197266.6367188-.0605469.2484131-.1142578.5418701-.1591797.8806152h-.4736328l.1962891-2.9194336Z"/>
                <path class="cls-1" d="m338.3387954,15.230024c0-.8083496.109375-1.5352783.3291016-2.1811523.21875-.6456299.5244141-1.1954346.9179688-1.649292.3925781-.4538574.8613281-.8027344,1.4052734-1.0465088.5439453-.2438965,1.1416016-.3657227,1.7910156-.3657227.6416016,0,1.2255859.1185303,1.7509766.3555908.5263672.2370605.9765625.574707,1.3515625,1.0125732.375.4381104.6650391.9686279.8701172,1.5917969.2060547.6231689.3085938,1.3208008.3085938,2.0930176,0,.758667-.1005859,1.4597168-.3017578,2.1031494-.2001953.6435547-.4902344,1.197876-.8701172,1.6629639-.3789062.4650879-.8427734.8286133-1.3916016,1.0904541s-1.1689453.3929443-1.859375.3929443c-.6503906,0-1.2402344-.1175537-1.7685547-.3522949s-.9794922-.571167-1.3544922-1.0092773c-.375-.4378662-.6650391-.9696045-.8701172-1.5950928-.2060547-.6253662-.3085938-1.326416-.3085938-2.1031494Zm1.4697266-.0406494c0,.6231689.0332031,1.168457.0986328,1.6357422.0654297.4674072.1582031.8693848.2773438,1.2056885.1201172.3364258.265625.6153564.4375.8365479.171875.2213135.3632812.3974609.5751953.5283203.2128906.1309814.4433594.2225342.6914062.274292.2480469.052002.5097656.0780029.7851562.0780029s.5390625-.026001.7900391-.0780029c.25-.0517578.4833984-.1444092.7001953-.27771.2167969-.1330566.4130859-.3126221.5898438-.5384521.1757812-.225708.3261719-.5113525.4501953-.8568115s.2197266-.7563477.2880859-1.2327881c.0673828-.4764404.1015625-1.032959.1015625-1.6696777,0-.6231689-.0332031-1.168457-.0986328-1.6358643-.0654297-.4672852-.1582031-.8703613-.2773438-1.2089844-.1201172-.3387451-.265625-.6186523-.4365234-.8399658-.171875-.2211914-.3632812-.3973389-.5732422-.5283203-.2099609-.1308594-.4384766-.2224121-.6875-.274292-.2480469-.0518799-.5097656-.0778809-.7851562-.0778809s-.5400391.0270996-.7929688.0811768c-.2529297.0541992-.4873047.1468506-.7041016.27771-.2167969.1311035-.4130859.3105469-.5888672.5385742-.1767578.2280273-.3271484.5136719-.4511719.8568115-.1240234.3432617-.2197266.7541504-.2871094,1.2327881-.0683594.4787598-.1025391,1.036377-.1025391,1.6730957Z"/>
              </g>
              <g>
                <g>
                  <path class="cls-1" d="m125.4979578,15.1629533h1.3469349c.4406461,0,.9983919.075695.9983919.5879895v4.6127239s-1.5125538.5480035-4.2525072.5480035c-2.7368128,0-6.4062571-1.4843524-6.4062571-5.5982242,0-4.1003567,3.819937-5.7089786,6.6481478-5.7089786,1.267202,0,2.8582709.0754386,2.8582709.7777163v1.3738544c-1.0756251-.8640596-1.5090927-1.0174278-3.1417586-1.0174278-1.632089,0-4.5520184,1.0581274-4.5520184,4.4784298,0,3.4244216,3.9191544,5.4583157,7.1723724,4.1714368v-2.6222854c0-.5495332-.0319188-1.6032381-.6715767-1.6032381Z"/>
                  <path class="cls-1" d="m145.978291,20.6372198h3.4619701c-.95891-.3514914-1.3516779-1.4828141-1.6656101-2.3074472-.3248283-.8215566-2.8282108-6.8053061-3.1091988-7.6349385-.2763732-.817775-.6763196-.817775-.9927516-.817775h-1.9906948c.9594868.3135477.4365458.9810865.2791293,1.4458319-.1589531.4738468-3.5042099,8.6110897-3.5042099,8.6110897-1.1563835-.3107917-4.0537501-4.5035077-4.0537501-4.5035077,3.8637756-1.0953661,3.263856-5.5534139-.5091626-5.5534139h-4.3366626c.8712935.1893336.7923938,1.0962634.7923938,1.7951441v7.4042643c0,1.0177482-.3195085,1.2871993-.8296324,1.5607524h3.1743183c-.8712935-.38873-.6406193-1.2906604-.6406193-1.7153471v-7.9870067h1.7153471c.9122496,0,1.5879283,1.0972248,1.5879283,1.8439196,0,1.2052231-.9539107,1.6780998-1.9087186,2.0320354-.9520519.3477098-.4356468,1.1317073,0,1.7625843.4456454.6237626,1.7143857,2.3835183,2.4689,3.2441807.7586147.8577697,1.4239742.8196338,1.7920019.8196338h2.8645521c-1.1106828-.3514914-.5195458-1.209902-.3646289-1.6367679.1590154-.4400692.8806512-2.2746397.8806512-2.2746397h4.2894235s.5185844,1.3279076.9952513,2.5046089c.478782,1.1786241.1204326,1.3310396-.3962271,1.4067987Zm-4.4549818-5.162257l1.6377293-4.1918101,1.7413051,4.1918101h-3.3790344Z"/>
                  <path class="cls-1" d="m180.8011898,20.6372198h3.4672891c-.9554461-.3514914-1.3538571-1.4828141-1.6652256-2.3074472-.3189288-.8215566-2.8273135-6.8053061-3.1042635-7.6349385-.2807316-.817775-.6763196-.817775-.9958281-.817775h-1.9866542c.9564077.3135477.4362851.9810865.2800907,1.4458319-.1640191.4738468-3.5013924,8.6110897-3.5013924,8.6110897-.2240725.5076243-.5508236.5198021-.749515.7032391h2.856348c-1.1138251-.3514914-.5132646-1.209902-.3595672-1.6367679.1533128-.4400692.8737932-2.2746397.8737932-2.2746397h4.3009622s.5189048,1.3279076.993008,2.5046089c.4703857,1.1786241.1145359,1.3310396-.409045,1.4067987Zm-4.4442764-5.162257l1.6248437-4.1918101,1.7557263,4.1918101h-3.38057Z"/>
                  <path class="cls-1" d="m168.5654548,20.8409105c.3987286-.3592467.7582958-.630877.7582958-1.8839868v-7.3967568c0-.5868444-.0306345-1.2515631-.7582958-1.4937742h3.0682427c-.3163679.2779115-.6941378.6284414-.6941378,1.4130158v7.4775152c0,.6662654-.1451729,1.646775.7426569,1.8839868h-3.1167619Z"/>
                  <path class="cls-1" d="m152.0984947,12.3816593s-.0390973,5.9086313-.0390973,6.5752643c0,.6662654.0876165,1.646775.9595509,1.8839868h-2.9077514c.4009078-.3592467.7198394-.630877.7198394-1.8839868,0-1.2489908.0744772-6.8143989.0744772-7.3967568,0-.5868444-.0744772-1.2515631-.7943166-1.4937742h2.2311113l6.6775668,8.2633799v-6.733649c0-.4300065.0835807-1.2518194-.8305297-1.5651108h2.9821645c-.3593086.277591-.8831509.3896273-.8831509,1.5291541v9.7126729s-.8237358.1508131-2.1788747-1.4552537c-1.3547544-1.6023494-6.0109894-7.4359267-6.0109894-7.4359267Z"/>
                  <path class="cls-1" d="m171.1035763,29.1684485c-8.7475458-7.2540921-12.0902389-15.7944221-.1283161-27.4533727.372068-.3583584.7307354-.1442845.4356468.1899745-5.2480147,5.8949152-11.0881296,15.3362142-.122099,26.9006903.1727974.1849752.1038963.5583226-.1852316.3627078Z"/>
                </g>
                <path class="cls-1" d="m186.6641532,20.7306105c-.8106869,0-1.4702303-.6595434-1.4702303-1.4702303s.6595434-1.4702303,1.4702303-1.4702303,1.4702303.6595434,1.4702303,1.4702303-.6595434,1.4702303-1.4702303,1.4702303Zm0-2.7537647c-.7077671,0-1.2835344.5757673-1.2835344,1.2835344s.5757673,1.2835344,1.2835344,1.2835344,1.2835344-.5757673,1.2835344-1.2835344-.5757673-1.2835344-1.2835344-1.2835344Z"/>
                <path class="cls-1" d="m187.018766,20.0580312c-.032453-.0302652-.0519613-.0540579-.0519613-.1687374v-.1904335c0-.1124916-.0345497-.259624-.2033782-.259624h-.4045686v.6187949h-.292077v-1.5794401h.7442312c.2942648,0,.4868862.1817733.4868862.4283614,0,.1039225-.0346408.1990937-.097359.2704721-.0606215.0692817-.1125827.097359-.2466793.1276242.1536048.0216961.3029251.0670938.3029251.3635465v.1600772c0,.1579805.0584336.1990937.1016435.2293588h-.3396626Zm-.2466793-1.3327609h-.4132288v.4672867h.3656432c.162265,0,.2618118-.0843231.2618118-.2465881,0-.1428479-.0844143-.2206986-.2142263-.2206986Z"/>
              </g>
            </g>
            <g>
              <path class="cls-1" d="m178.879811,300.9484078c-.1821289,0-.3061523-.0490723-.3710938-.1472168s-.0976562-.1799316-.0976562-.2453613,9.2358398-13.8408203,27.7089844-41.326416c-3.074707,2.5961914-6.878418,4.439209-11.4121094,5.5297852h-.1171875c-.2871094,0-.4560547-.1308594-.5078125-.3925781,0-.1962891.1298828-.3271484.390625-.3925781,2.8657227-.6760254,5.2890625-1.592041,7.269043-2.7485352,3.2832031-1.8979492,5.7060547-4.0026855,7.2695312-6.3151855l.5078125-.7526855h.0390625c.078125-.1088867.1958008-.1635742.3520508-.1635742h2.5791016c.2602539,0,.4301758.1308594.5083008.3928223-.0527344.1308594-10.4350586,15.5861816-31.1484375,46.3652344-.1040039.1308594-.234375.1962891-.390625.1962891h-2.5795898Z"/>
              <path class="cls-1" d="m206.9847915,315.6498238c-.1821289,0-.3061523-.0490723-.3710938-.1472168-.0654297-.0981445-.0976562-.1799316-.0976562-.2453613s5.6533203-8.5075684,16.9614258-25.3259277h-3.6733398c-.1308594,0-.2412109-.043457-.3325195-.1308594-.0913086-.0869141-.1367188-.1743164-.1367188-.2617188,0-.1088867.0454102-.201416.1367188-.2783203.0913086-.0761719.2016602-.114502.3325195-.114502h4.1816406l13.2495117-19.6650391h-25.5605469c-.1044922,0-.2084961-.0378418-.3125-.114502-.1044922-.0761719-.15625-.1687012-.15625-.2780762,0-.1091309.0517578-.2016602.15625-.2783203.1040039-.0761719.2080078-.114502.3125-.114502h28.9208984c.2607422,0,.4306641.1308594.5087891.3928223-.0527344.1308594-4.5341797,6.8171387-13.4448242,20.0576172h3.3999023c.1298828,0,.2412109.0383301.3320312.114502.0917969.0769043.1376953.1694336.1376953.2783203,0,.0874023-.0458984.1748047-.1376953.2617188-.0908203.0874023-.2021484.1308594-.3320312.1308594h-3.9082031l-17.1958008,25.5222168c-.1044922.1308594-.2348633.1962891-.3911133.1962891h-2.5795898Z"/>
              <g>
                <path class="cls-1" d="m142.6791274,297.7650582c-.9257812,0-1.6347656-.2646484-2.1269531-.793457-.5439453-.5783691-.8154297-1.3532715-.8154297-2.3251953.0219727-1.1193848.3486328-2.232666.980957-3.3398438.6318359-1.0703125,1.4472656-1.9221191,2.4462891-2.5559082,1.0874023-.6826172,2.2773438-1.0239258,3.5708008-1.0239258,1.96875.0246582,4.128418.0891113,6.4794922.1936035l.5844727-.793457c.8740234-1.2055664,1.7260742-2.3527832,2.5566406-3.4414062.8300781-1.0888672,1.6381836-2.0668945,2.4243164-2.934082l-.9697266-.0830078c-1.484375-.1230469-2.6191406-.1845703-3.4052734-.1845703-.4921875,0-.9624023.0217285-1.4106445.0646973-1.6308594.1784668-2.6928711.7504883-3.1850586,1.7160645-.0292969.0429688-.0698242.0644531-.1210938.0644531-.0878906-.0183105-.1323242-.0551758-.1323242-.1105957l.0112305-.0461426c.2714844-.5043945.6503906-.8964844,1.1352539-1.1765137.4848633-.2797852,1.050293-.4733887,1.6967773-.5810547s1.3295898-.1616211,2.0498047-.1616211c.8154297,0,1.96875.0678711,3.4604492.203125.3598633.0368652.7163086.067627,1.0688477.0922852,1.6459735-1.7717285,3.0639648-2.6574707,4.2539062-2.6574707.3085938,0,.5766602.0461426.8046875.1384277h.0107422c.3525391.1723633.5361328.4370117.5512695.793457,0,.5046387-.3969727,1.0183105-1.1904297,1.5410156-.4702148.3259277-1.3261719.4890137-2.5678711.4890137l-.605957-.0092773c-1.5869141,2.2512207-3.3686523,4.6379395-5.3447266,7.159668,1.5869141.0922852,2.4536133.1508789,2.6005859.175293h.0332031c.0585938,0,.0991211.0339355.1210938.1015625,0,.0246582-.0107422.0493164-.0327148.0737305l-1.2563477,1.3933105c-.0297852.0246582-.0625.0368652-.0991211.0368652-.0297852,0-.059082-.0092773-.0883789-.0275879-.0292969-.0185547-.0439678-.0429688-.0439678-.0739746,0-.0244141.0073467-.0461426.0219951-.0644531l1.112793-1.2456055c-.3671875-.0307617-1.2119141-.0830078-2.534668-.1567383-4.4741211,5.6096191-8.0336914,8.7312012-10.6782227,9.3647461l-.1875.0461426c-.3378906.0922852-.6723633.1384277-1.0029297.1384277h-.1762695Zm1.1020508-.3505859c.9477539-.270752,1.9267578-.8535156,2.9370117-1.7485352,1.0097656-.8947754,2.0458984-1.9960938,3.1074219-3.3029785,1.0615234-1.3071289,2.1396484-2.7141113,3.234375-4.2211914-1.8364258-.0859375-3.8789062-.1506348-6.1269531-.1936035-.0439453-.0061035-.0957031-.0092773-.1542969-.0092773-1.1904297,0-2.2958984.3044434-3.3173828.9133301-1.0209961.6088867-1.8583984,1.4609375-2.512207,2.5556641-.315918.5415039-.5532227,1.0888672-.7109375,1.642334-.1582031.5537109-.2368164,1.0825195-.2368164,1.5871582,0,.9348145.253418,1.666748.7602539,2.1958008.4702148.4736328,1.112793.7104492,1.9287109.7104492.3378906,0,.7011719-.0432129,1.0908203-.1291504Zm19.4619141-17.2258301c.7270508-.498291,1.0908203-.956543,1.0908203-1.3747559-.0146484-.2644043-.1508789-.458252-.4077148-.5812988-.1762695-.0615234-.3525391-.0983887-.5288086-.1108398-.3017578,0-.6411133.095459-1.0195312.2861328s-.7436523.5197754-1.0966797.9873047l-.8925781,1.2270508.5068359.0092773c1.1464844,0,1.9287109-.1477051,2.3476562-.4428711Z"/>
                <path class="cls-1" d="m170.2299087,294.3512398l-.0107422-.0092773c-.3310547-.1416016-.4960938-.3688965-.4960938-.6826172,0-.2524414.0878906-.5397949.2646484-.862793.1762695-.322998.4018555-.6704102.6777344-1.0424805.2753906-.3720703.574707-.755127.8979492-1.1486816.440918-.5351562.8374023-1.050293,1.1899414-1.5456543.3530273-.494873.5292969-.8962402.5292969-1.2038574,0-.1599121-.0625-.2861328-.1875-.378418l-.3417969-.1477051c-.3012695.3630371-.7402344.8027344-1.3168945,1.3195801-.5766602.5166016-1.269043,1.0056152-2.0771484,1.467041-1.2270508.6643066-2.4208984.9963379-3.581543.9963379-.4189453,0-.8339844-.0429688-1.2451172-.1291504-.9477539.645752-1.840332.96875-2.6782227.96875-.1323242,0-.2607422-.0092773-.3857422-.0275879-.3378906-.0493164-.6171875-.1323242-.8374023-.2492676h-.0107422c-.3378906-.1904297-.5366211-.4580078-.5952148-.8024902l-.0112305-.1477051c0-.3444824.1362305-.7365723.4077148-1.1765137.2719727-.4396973.6503906-.8747559,1.1352539-1.3054199v-.0646973c0-.7319336.3378906-1.3654785,1.0136719-1.9006348.5732422-.3935547,1.2524414-.590332,2.0390625-.590332.2421875,0,.4921875.0183105.7490234.0551758.8598633.1416016,1.3813477.5075684,1.5649414,1.0981445.0512695.1538086.0771484.3166504.0771484.4887695,0,.5661621-.2167969,1.1657715-.6499023,1.7993164-.4335938.6335449-.9589844,1.1901855-1.5761719,1.6699219.3305664.0615234.6611328.0922852.9916992.0922852.8745117,0,1.7250977-.1767578,2.5512695-.5305176.8266602-.3535156,1.5981445-.8088379,2.3144531-1.3654785s1.3500977-1.1547852,1.9008789-1.7946777c-.4775391-.3012695-.7163086-.6303711-.7163086-.9870605,0-.0983887.0146484-.1845703.0439453-.2583008.125-.3076172.3598633-.5537109.7055664-.7382812.3452148-.1845703.6757812-.2768555.9916992-.2768555h.0439453c.0883789,0,.1616211.0246582.2207031.0739746.0878906.0737305.1323242.1877441.1323242.3413086-.0078125.3444824-.3417969.9257812-1.0029297,1.7438965.0439453.0368652.2016602.1384277.4736328.3044434.2055664.1169434.3896484.2553711.5512695.4150391.1611328.1601562.2421875.3845215.2421875.673584,0,.2524414-.0991211.5629883-.2973633.9318848-.3603516.5476074-.9516602,1.2304688-1.7744141,2.0483398-.4482422.4553223-.887207.9243164-1.3168945,1.4069824-.4296875.4829102-.6445312.8349609-.6445312,1.0563965,0,.0922852.0551758.1662598.1650391.2214355h.0112305c.0878906.0429688.1982422.0646973.3305664.0646973.3452148,0,.7729492-.1184082,1.2836914-.3552246s.9975586-.5183105,1.4604492-.8442383c.6757812-.4919434,1.4765625-1.1472168,2.4023438-1.965332l.3637695-.3137207c.9550781-.8239746,1.4619141-1.2363281,1.5205078-1.2363281.0366211,0,.0678711.0109863.09375.0324707s.0385742.0476074.0385742.0783691-.0107422.0585938-.0332031.0830078c-.6611328.5412598-1.2558594,1.0456543-1.7851562,1.5131836-.9404297.8181152-1.7519531,1.4794922-2.4355469,1.9836426-.2275391.1660156-.512207.3444824-.8540039.5351562-.3413086.1906738-.6943359.3566895-1.0576172.498291-.3637695.1413574-.6962891.2121582-.9975586.2121582-.1762695,0-.3305664-.0307617-.4628906-.0922852Zm-6.0058594-3.4414062l-.1435547-.0461426c-.984375-.2954102-1.6933594-.7687988-2.1269531-1.4208984-.918457.6027832-1.3881836,1.1286621-1.4101562,1.5776367,0,.1784668.0805438.3383789.2421875.4797363.190918.0986328.4296875.1694336.7163086.2124023.1176758.0183105.2348633.0275879.3525391.0275879.7348633,0,1.5244141-.2768555,2.3696289-.8303223Zm2.0166016-2.0852051c.3305664-.5598145.4960938-1.0578613.4960938-1.494873,0-.7563477-.4741211-1.2116699-1.421875-1.3654785-.2421875-.0368652-.4814453-.0551758-.7163086-.0551758-.7202148,0-1.3374023.1813965-1.8515625.5441895-.5507812.4123535-.855957.9350586-.9145508,1.5686035.2573242-.2089844.5214844-.3967285.793457-.5627441.1542969-.0922852.315918-.1384277.4848633-.1384277.2353516,0,.4443359.0861816.628418.2583008.1098633.1291504.1650391.2675781.1650391.4152832l-.0107422.1291504c-.0517578.1967773-.1801758.3505859-.3857422.4611816-.4921875.2399902-.9404297.4829102-1.3447266.7290039.4042969.6149902,1.0727539,1.064209,2.0058594,1.3469238.1025391.0310059.2021484.0554199.2973633.0739746.7421875-.5537109,1.3334961-1.1901855,1.7744141-1.9099121Zm7.449707-3.4692383c0-.0859375-.0146484-.1445312-.0439453-.175293,0-.0061035-.0039062-.0107422-.0112305-.013916-.0073242-.0029297-.0219727-.0046387-.0439453-.0046387-.1176758,0-.2553711.0661621-.4135742.1984863-.1577148.1323242-.2919922.2998047-.4018555.5029297-.0957031.1474609-.1435547.3320312-.1435547.5534668,0,.1601562.0512695.3261719.1542969.498291.5952148-.7626953.8964844-1.2824707.9038086-1.5593262Z"/>
              </g>
              <g>
                <path class="cls-1" d="m234.8251235,312.070234c-.8925781,0-1.5761963-.255127-2.0507812-.7651367-.5244141-.5576172-.7861328-1.3049316-.7861328-2.2419434.0214844-1.0795898.3359375-2.1530762.9453125-3.2207031.609375-1.0319824,1.3955078-1.8532715,2.359375-2.4643555,1.0488281-.6582031,2.1962891-.9875488,3.4433594-.9875488,1.8984375.0239258,3.9804688.0861816,6.2480469.1870117l.5625-.7651367c.84375-1.1623535,1.6650391-2.2687988,2.4658203-3.3186035s1.5791016-1.9926758,2.3378906-2.8291016l-.9355469-.0800781c-1.4306641-.1184082-2.5253906-.1777344-3.2832031-.1777344-.4746094,0-.9277344.020752-1.3603516.0622559-1.5722656.1721191-2.5966797.7236328-3.0712891,1.6547852-.0283203.0415039-.0673828.0622559-.1162109.0622559-.0849855-.0178223-.1279297-.0534668-.1279297-.1069336l.0107422-.0444336c.2617188-.486084.6269531-.8642578,1.0947266-1.1342773.4677734-.2697754,1.0126953-.456543,1.6367188-.5605469.6230469-.1035156,1.28125-.1555176,1.9755859-.1555176.7871094,0,1.8984375.0651855,3.3369141.1955566.3466797.0356445.6904297.0654297,1.03125.0891113,1.5859375-1.708252,2.9541016-2.5622559,4.1015625-2.5622559.296875,0,.5556641.0444336.7753906.1333008h.0107422c.3398438.1662598.5166016.4213867.53125.7651367,0,.4865723-.3828125.9816895-1.1474609,1.4858398-.453125.3144531-1.2792969.4714355-2.4755859.4714355l-.5849609-.0087891c-1.5302734,2.1706543-3.2480469,4.4719238-5.1533203,6.9038086,1.5302734.0888672,2.3652344.1452637,2.5078125.1689453h.03125c.0566406,0,.0957031.0327148.1171875.0979004,0,.0236816-.0107422.0476074-.0322266.0710449l-1.2109375,1.3435059c-.0283203.0236816-.0605469.0356445-.0957031.0356445-.0283203,0-.0566406-.0090332-.0849609-.0268555s-.0429688-.0412598-.0429688-.0710449c0-.0236816.0078125-.0444336.0214844-.0622559l1.0732422-1.2011719c-.3544922-.029541-1.1689453-.0800781-2.4443359-.151123-4.3134766,5.4091797-7.7460938,8.4189453-10.2958984,9.0300293l-.1816406.0444336c-.3251953.0888672-.6474609.1335449-.9667969.1335449h-.1699219Zm1.0625-.3381348c.9140625-.2609863,1.8583984-.822998,2.8320312-1.6860352.9746094-.862793,1.9726562-1.9245605,2.9970703-3.1848145,1.0234375-1.2602539,2.0625-2.6169434,3.1181641-4.0703125-1.7705078-.0830078-3.7402344-.1452637-5.9082031-.1867676-.0419922-.0058594-.0917969-.0087891-.1484375-.0087891-1.1474609,0-2.2138672.293457-3.1982422.8806152-.9853516.5871582-1.7929688,1.4086914-2.4228516,2.4643555-.3046875.5219727-.5332275,1.0498047-.6855469,1.5837402-.1523438.5336914-.2285156,1.0437012-.2285156,1.5300293,0,.9016113.2441406,1.6074219.7333984,2.1174316.453125.4567871,1.0732422.6850586,1.859375.6850586.3251953,0,.6767578-.0415039,1.0517578-.1245117Zm18.7666016-16.6101074c.7011719-.4802246,1.0517578-.9221191,1.0517578-1.3254395-.0146484-.2548828-.1455078-.4418945-.3935547-.5605469-.1699219-.059082-.3398438-.0947266-.5097656-.1066895-.2910156,0-.6181641.092041-.9833984.2756348-.3642578.184082-.7167969.5014648-1.0566406.9521484l-.8613281,1.1831055.4892578.0090332c1.1054688,0,1.859375-.142334,2.2636719-.4272461Z"/>
                <path class="cls-1" d="m251.1913345,307.6395699c-.4814453-.1660156-.7714844-.5129395-.8710938-1.0407715-.0214844-.1125488-.0322266-.2282715-.0322266-.3469238,0-.4448242.1279297-.9282227.3828125-1.4501953s.6162109-1.0319824,1.0839844-1.5302734c1.6640625-1.7258301,3.2089844-2.6213379,4.6328125-2.6867676.3964844,0,.7294922.0949707.9990234.284668.3544922.2729492.53125.6494141.53125,1.1298828,0,.5515137-.2265625,1.1921387-.6796875,1.9216309-.0292969.0356445-.0644531.0534668-.1064453.0534668l-.0644531-.0090332c-.0419922-.0234375-.0634766-.0532227-.0634766-.0888672l.0107422-.0534668c.4394531-.7055664.6591797-1.3134766.6591797-1.8237305,0-.4150391-.1494141-.7353516-.4462891-.9609375-.0576172-.029541-.1240234-.0444336-.2021484-.0444336-.15625,0-.3193359.0388184-.4892578.1157227-.6376953.2729492-1.3779297.7783203-2.2207031,1.5168457s-1.5869141,1.5200195-2.2314453,2.3442383c-.6445312.8244629-.9921875,1.4946289-1.0410156,2.0107422,0,.2312012.0917969.3884277.2763672.4714355.0068359,0,.0107422.0031738.0107422.0087891.1699219.0654297.3857422.0979004.6474609.0979004.5107422,0,1.0839844-.1630859,1.7216797-.4892578,1.3457031-.699707,2.8232422-2.0698242,4.4316406-4.1101074.4248047-.6049805.7753906-1.0766602,1.0517578-1.4145508.1835938-.2077637.4140625-.3115234.6904297-.3115234.1201172,0,.2373047.0236816.3505859.0712891.234375.0949707.3828125.2490234.4462891.4626465.0146484.0532227.0214844.1066895.0214844.1599121,0,.1542969-.0605469.296875-.1806641.4272461-1.0341797,1.0673828-1.8300781,2.001709-2.3857422,2.8022461-.5556641.8007812-.8339844,1.402832-.8339844,1.8061523,0,.1066895.0214844.1987305.0634766.2756348.0917969.184082.3193359.2819824.6806641.2937012.75-.1008301,1.5371094-.3989258,2.3583984-.894043.8222656-.4951172,1.5371094-.9934082,2.1464844-1.4946289s.9667969-.8051758,1.0732422-.9118652c.0351562-.0356445.0712891-.0534668.1064453-.0534668.0283203,0,.0566406.010498.0849609.0310059.0283203.0209961.0429688.0461426.0429688.0756836,0,.0239258-.0107422.0476074-.0322266.0712891-.0634766.0771484-.3945312.3647461-.9931641.862793-.5986328.498291-1.3183594,1.0068359-2.1572266,1.5258789-.8398438.519043-1.6601562.8466797-2.4599609.9831543-.0429688.0178223-.1738281.0266113-.3935547.0266113-.5947266,0-.9990234-.1569824-1.2109375-.4714355-.1210938-.1721191-.1806641-.3916016-.1806641-.6584473,0-.5336914.2509766-1.2543945.7539062-2.1618652-1.1894531,1.3166504-2.3056641,2.2480469-3.3466797,2.793457-.6806641.3442383-1.296875.5161133-1.8496094.5161133-.3251953,0-.5878906-.0444336-.7861328-.1335449Z"/>
                <path class="cls-1" d="m274.0692642,309.0541207l-.0634766-.0178223c-.7792969-.2788086-1.1689453-.7382812-1.1689453-1.3789062,0-.3083496.0810547-.6345215.2441406-.9785156s.3632812-.6879883.6005859-1.0319824.4765625-.6730957.7177734-.9875488c.21875-.284668.4160156-.5561523.5888672-.814209.1738281-.2578125.2607422-.4492188.2607422-.5737305-.0068359-.0178223-.0126953-.0356445-.015625-.0534668-.0039062-.0178223-.0195312-.0354004-.0478516-.0532227-.1416016-.0297852-.2832031-.0446777-.4257812-.0446777-.4882812,0-1,.1276855-1.5351562.3825684-.5351562.255127-1.0605469.5783691-1.578125.9697266-.5166016.3916016-.9951172.8098145-1.4345703,1.2546387s-.8105469.8688965-1.1152344,1.2722168l-.2021484.2668457c-.1201172.1542969-.2871094.2312012-.4990234.2312012-.15625,0-.2929688-.0488281-.4091797-.1467285-.1171875-.0979004-.1757812-.2148438-.1757812-.3513184,0-.0891113.0322266-.1779785.0957031-.2670898.9277344-1.1860352,1.7324219-2.2893066,2.4121094-3.3095703.8222656-1.2631836,1.2324219-2.0876465,1.2324219-2.4731445,0-.0651855-.0107422-.1125488-.03125-.142334-.0214844-.029541-.0644531-.0444336-.1279297-.0444336-.5458984,0-1.2763672.2194824-2.1943359.6582031-.9169922.4389648-1.8857422,1.0380859-2.90625,1.7971191-2.1396484,1.6193848-3.3828125,3.0012207-3.7294922,4.1459961l-.0107422.0800781-.0107422.0087891c-.0351562.0888672-.0976562.1616211-.1855469.2180176-.0888672.0563965-.1894531.0844727-.3027344.0844727-.1347656,0-.2558594-.0429688-.3613281-.1289062-.1064453-.0859375-.1601562-.1943359-.1601562-.324707,0-.7177734.4365234-1.7734375,1.3076172-3.1672363.5732422-.9370117,1.1826172-1.8029785,1.8271484-2.5979004.1914062-.2016602.4179688-.3024902.6806641-.3024902.1132812,0,.2226562.0209961.3291016.0622559.3115234.142334.4677734.3469238.4677734.6140137,0,.1601562-.0673828.3054199-.2021484.435791-.5029297.4746094-1.0839844,1.0883789-1.7421875,1.8415527-.0292969.0476074-.0644531.0891113-.1064453.1247559-.2197266.2490234-.4462891.5336914-.6806641.8540039-.2333984.3203125-.4316406.6879883-.5947266,1.1030273.3828125-.5515137.8710938-1.1088867,1.4667969-1.6723633,1.0976562-1.0319824,2.3056641-1.9423828,3.6230469-2.7314453,1.4667969-.8776855,2.6279297-1.3166504,3.4853516-1.3166504.3115234,0,.5351562.0979004.6699219.2937012.0771484.1186523.1162109.2727051.1162109.4626465,0,.5397949-.3291016,1.3847656-.9882812,2.5354004-.3046875.5339355-.6230469,1.046875-.9560547,1.5390625.4462891-.4328613.9248047-.8361816,1.4345703-1.2099609.5097656-.3735352,1.0292969-.6760254,1.5566406-.9072266.5273438-.2314453,1.0361328-.347168,1.5253906-.347168.1835938,0,.3642578.0178223.5419922.0534668.5166016.112793.7753906.3618164.7753906.7473145,0,.2907715-.1210938.6257324-.3613281,1.0053711-.2412109.3796387-.5244141.7800293-.8505859,1.2009277-.3251953.4211426-.6191406.8317871-.8818359,1.2321777-.2617188.4003906-.3925781.7487793-.3925781,1.0454102s.1767578.5100098.53125.640625c.2197266.0769043.4492188.1154785.6904297.1154785.5527344,0,1.1435547-.1599121,1.7744141-.4802246s1.2490234-.7119141,1.8544922-1.1743164c.6054688-.4626465,1.15625-.9267578,1.6523438-1.392334s.8964844-.8586426,1.2011719-1.1789551c.3037109-.3203125.4667969-.4921875.4882812-.5158691s.0498047-.0356445.0849609-.0356445c.0283203,0,.0566406.0087891.0849609.0266113s.0429688.0415039.0429688.0712891c0,.0236816-.0078125.0473633-.0214844.0710449l-.0214844.0268555c-.0986328.1186523-.4052734.4389648-.9189453.9606934-.5136719.5219727-1.1455078,1.0913086-1.8964844,1.708252-1.7431641,1.4174805-3.1845703,2.1262207-4.3251953,2.1262207-.2617188,0-.5068359-.0385742-.7333984-.1157227Z"/>
                <path class="cls-1" d="m280.1698501,307.2570016c-.1054688-.171875-.1591797-.3735352-.1591797-.6049805,0-.486084.1699219-1.0571289.5107422-1.7124023.3398438-.6552734.7216797-1.2871094,1.1474609-1.8950195.4248047-.6079102.796875-1.107666,1.1152344-1.4990234.1767578-.2077637.4042969-.3115234.6806641-.3115234.1269531,0,.2441406.0236816.3505859.0712891.2402344.0949707.3896484.2490234.4462891.4626465.0136719.0532227.0205078.1066895.0205078.1599121,0,.1601562-.0595703.3024902-.1806641.4272461-1.0341797,1.0673828-1.8271484,2.001709-2.3798828,2.8022461-.5527344.8007812-.8291016,1.402832-.8291016,1.8061523,0,.3618164.2451172.5515137.7333984.5693359.7509766-.1008301,1.5390625-.4003906,2.3642578-.8986816.8251953-.4980469,1.5429688-.9963379,2.1523438-1.4946289.6083984-.4980469.9667969-.8005371,1.0732422-.9072266.0351562-.0356445.0703125-.0534668.1054688-.0534668.0283203,0,.0566406.010498.0859375.0310059.0273438.0209961.0419922.0461426.0419922.0756836,0,.0239258-.0107422.0476074-.0322266.0712891l-.0205078.0178223c-.1210938.1245117-.4804688.4328613-1.0791016.9250488-.5986328.4924316-1.3066406.9863281-2.125,1.4814453s-1.6171875.8110352-2.3964844.9475098c-.0283203.0178223-.1591797.0266113-.3925781.0266113-.6025391,0-1.0136719-.1660156-1.2333984-.498291Zm3.7089844-6.1652832c-.1845703-.1540527-.2763672-.3410645-.2763672-.5605469,0-.2133789.0917969-.3972168.2763672-.5515137.1845703-.1540527.4072266-.2312012.6689453-.2312012.2558594,0,.4746094.0771484.6591797.2312012.1845703.1542969.2763672.3381348.2763672.5515137,0,.2194824-.0917969.4064941-.2763672.5605469-.1845703.1542969-.4033203.2314453-.6591797.2314453-.2617188,0-.484375-.0771484-.6689453-.2314453Z"/>
                <path class="cls-1" d="m284.0175063,309.5079781l-.0214844-.2402344c0-.6169434.2675781-1.4279785.8027344-2.4333496.5341797-1.005127,1.2128906-2.0800781,2.0341797-3.2248535.8222656-1.1447754,1.6865234-2.2539062,2.5927734-3.3273926,1.5947266-1.8979492,3.1650391-3.5734863,4.7128906-5.0266113s2.8173828-2.3901367,3.8095703-2.8112793c.2548828-.0947266.4746094-.142334.6591797-.142334.1835938,0,.3359375.0505371.4570312.151123.2050781.213623.3076172.447998.3076172.7028809,0,.083252-.0107422.1691895-.03125.2580566-.2558594.9726562-1.3251953,2.1706543-3.2099609,3.5942383-1.6220703,1.2397461-3.4492188,2.4140625-5.4824219,3.5229492-1.828125,2.2302246-3.2734375,4.1696777-4.3359375,5.8183594-1.0625,1.6489258-1.59375,2.7788086-1.59375,3.3896484,0,.2253418.0742188.3588867.2236328.4003906.0986328.0178223.2050781.0266113.3183594.0266113,1.0126953,0,2.3730469-.6582031,4.0800781-1.9748535.8857422-.6999512,1.7041016-1.4174805,2.4550781-2.1530762.7509766-.7353516,1.3427734-1.3435059,1.7744141-1.8237305.0283203-.0236816.0634766-.0356445.1064453-.0356445.0283203,0,.0546875.0087891.0791016.0266113.0253906.0178223.0380859.0444336.0380859.0800781,0,.0534668-.4365234.5219727-1.3076172,1.4057617-1.2255859,1.2336426-2.4160156,2.265625-3.5703125,3.0959473-1.4667969,1.0556641-2.6884766,1.5837402-3.6660156,1.5837402-.7294922,0-1.140625-.2878418-1.2324219-.8630371Zm11.9433594-12.6599121c2.0976562-1.6132812,3.1455078-2.8469238,3.1455078-3.7009277,0-.2016602-.0673828-.3737793-.2021484-.5161133v-.0087891l-.0742188-.0090332c-.453125,0-1.4375.7236328-2.9541016,2.1708984-1.4658203,1.4233398-3.078125,3.1818848-4.8349609,5.2756348,1.8212891-1.026123,3.4609375-2.0964355,4.9199219-3.2116699Z"/>
                <path class="cls-1" d="m291.9882095,307.2570016c-.1054688-.171875-.1591797-.3735352-.1591797-.6049805,0-.486084.1699219-1.0571289.5107422-1.7124023.3398438-.6552734.7216797-1.2871094,1.1474609-1.8950195.4248047-.6079102.796875-1.107666,1.1152344-1.4990234.1767578-.2077637.4042969-.3115234.6806641-.3115234.1269531,0,.2441406.0236816.3505859.0712891.2402344.0949707.3896484.2490234.4462891.4626465.0136719.0532227.0205078.1066895.0205078.1599121,0,.1601562-.0595703.3024902-.1806641.4272461-1.0341797,1.0673828-1.8271484,2.001709-2.3798828,2.8022461-.5527344.8007812-.8291016,1.402832-.8291016,1.8061523,0,.3618164.2451172.5515137.7333984.5693359.7509766-.1008301,1.5390625-.4003906,2.3642578-.8986816.8251953-.4980469,1.5429688-.9963379,2.1523438-1.4946289.6083984-.4980469.9667969-.8005371,1.0732422-.9072266.0351562-.0356445.0703125-.0534668.1054688-.0534668.0283203,0,.0566406.010498.0859375.0310059.0273438.0209961.0419922.0461426.0419922.0756836,0,.0239258-.0107422.0476074-.0322266.0712891l-.0205078.0178223c-.1210938.1245117-.4804688.4328613-1.0791016.9250488-.5986328.4924316-1.3066406.9863281-2.125,1.4814453s-1.6171875.8110352-2.3964844.9475098c-.0283203.0178223-.1591797.0266113-.3925781.0266113-.6025391,0-1.0136719-.1660156-1.2333984-.498291Zm3.7089844-6.1652832c-.1845703-.1540527-.2763672-.3410645-.2763672-.5605469,0-.2133789.0917969-.3972168.2763672-.5515137.1845703-.1540527.4072266-.2312012.6689453-.2312012.2558594,0,.4746094.0771484.6591797.2312012.1845703.1542969.2763672.3381348.2763672.5515137,0,.2194824-.0917969.4064941-.2763672.5605469-.1845703.1542969-.4033203.2314453-.6591797.2314453-.2617188,0-.484375-.0771484-.6689453-.2314453Z"/>
                <path class="cls-1" d="m298.121022,307.5150582c-.3251953-.1896973-.5273438-.4951172-.6054688-.9162598-.0214844-.1069336-.0322266-.2165527-.0322266-.3293457,0-.4448242.1298828-.9309082.3886719-1.4589844.2578125-.527832.6210938-1.0407715,1.0888672-1.5390625.9775391-1.0378418,2.0400391-1.7792969,3.1875-2.2241211.6875-.2609863,1.3212891-.3916016,1.9023438-.3916016.2480469,0,.4746094.0239258.6796875.0712891.5595703.1364746.8896484.3974609.9882812.782959.0146484.0651855.0214844.1333008.0214844.2045898,0,.5041504-.4248047,1.0527344-1.2753906,1.645752-.5029297.3203125-1.0673828.5637207-1.6943359.7297363s-1.2275391.2788086-1.8017578.3378906c-.5732422.0593262-1.0410156.0891113-1.4023438.0891113-.8994141,1.1030273-1.3496094,1.9216309-1.3496094,2.4553223,0,.2255859.0957031.3825684.2871094.4716797.0068359,0,.0136719.0029297.0214844.0087891.0068359.0061035.0107422.0119629.0107422.0178223.3964844.1660156.9238281.2490234,1.5830078.2490234.4677734,0,1.0205078-.0681152,1.6572266-.2045898,1.8496094-.4506836,3.6591797-1.5507812,5.4306641-3.3005371.0283203-.0236816.0595703-.0356445.0957031-.0356445.0283203,0,.0546875.010498.0791016.0310059.0253906.0209961.0371094.0461426.0371094.0756836,0,.0239258-.0068359.0444336-.0205078.0622559-1.7998047,1.7854004-3.6484375,2.9091797-5.546875,3.3718262-.6591797.142334-1.2333984.213623-1.7216797.213623-.8359375,0-1.5058594-.1394043-2.0087891-.4182129Zm3.8203125-3.4519043c.875-.1481934,1.6630859-.4387207,2.3642578-.8718262.7939453-.557373,1.1904297-1.0556641,1.1904297-1.4946289l-.0214844-.142334c-.0849609-.3024902-.3544922-.5070801-.8076172-.6137695l-.1484375-.0090332c-.3681641,0-.8310547.1616211-1.3867188.4848633-.5566406.3234863-1.1318359.7399902-1.7265625,1.25-.5957031.5102539-1.1445312,1.0529785-1.6474609,1.6281738.5810547-.0058594,1.3085938-.0830078,2.1835938-.2314453Z"/>
                <path class="cls-1" d="m304.6249282,308.8229195c-.1201172-.112793-.1806641-.2373047-.1806641-.3737793,0-.0771484.0185547-.1572266.0537109-.2402344.2119141-.4091797.7207031-.7961426,1.5244141-1.1608887s1.6591797-.6005859,2.5664062-.7072754c.0146484-.0593262.0214844-.1157227.0214844-.1689453,0-.2075195-.0908203-.3811035-.2714844-.5205078s-.4013672-.2773438-.6640625-.4138184l-.0419922-.0266113c-.9775391-.4863281-1.4667969-1.0913086-1.4667969-1.8149414,0-.6582031.3759766-1.3046875,1.1269531-1.9394531.8212891-.6938477,1.6708984-1.1237793,2.5498047-1.2900391.2480469-.0473633.4892578-.0710449.7226562-.0710449.4677734,0,.8964844.092041,1.2861328.2756348.0566406.0178223.1054688.0446777.1484375.0800781.4599609.2729492.7255859.619873.796875,1.0410156l.0214844.2045898c0,.3439941-.1591797.6760254-.4785156.9963379-.0214844.0239258-.0527344.0356445-.0957031.0356445l-.03125-.0087891c-.0644531-.0178223-.0957031-.050293-.0957031-.0979004,0-.0236816.0107422-.0473633.03125-.0712891.2695312-.2785645.4042969-.5661621.4042969-.862793l-.0107422-.1691895c-.0634766-.385498-.3330078-.7058105-.8076172-.9606934-.0634766-.0178223-.1347656-.0268555-.2128906-.0268555-.4394531,0-1.0380859.2033691-1.7958984.609375-.7578125.4064941-1.3105469.8852539-1.6572266,1.4370117-.1064453.1955566-.1591797.3825684-.1591797.5603027,0,.4626465.3642578.8571777,1.09375,1.1833496.8359375.3796387,1.2539062.8630371,1.2539062,1.4501953,0,.2016602-.0527344.4152832-.1591797.6403809.1494141.0297852.2978516.0446777.4462891.0446777.4960938,0,.9941406-.112793,1.4931641-.3381348s.9580078-.4833984,1.3759766-.7739258.7529297-.5471191,1.0039062-.7695312c.2519531-.2224121.3896484-.3439941.4150391-.3649902.0244141-.0205078.0546875-.0310059.0898438-.0310059.0283203,0,.0546875.010498.0800781.0310059.0244141.0209961.0371094.0461426.0371094.0756836,0,.0239258-.0126953.0490723-.0371094.0756836-.0253906.0266113-.1699219.1572266-.4355469.3913574-.265625.234375-.6132812.4997559-1.0419922.7963867s-.9013672.5576172-1.4179688.782959c-.5175781.2253418-1.0380859.3378906-1.5625.3378906-.1914062,0-.375-.020752-.5527344-.0622559-.3535156.5871582-.9609375,1.1298828-1.8222656,1.6281738-.8603516.4980469-1.6660156.7797852-2.4169922.8452148-.0849609.0117188-.1767578.0178223-.2763672.0178223-.3398438,0-.6230469-.092041-.8505859-.2758789Zm1.0947266.0444336c.2626953-.0297852.5986328-.1689453,1.0097656-.4182129.4101562-.2490234.8818359-.6879883,1.4130859-1.3166504.1699219-.2133789.2939453-.4033203.3720703-.5693359-.8994141.1245117-1.7128906.3588867-2.4384766.7028809-.7265625.3439941-1.1748047.6818848-1.3447266,1.0141602-.0214844.0593262-.03125.1125488-.03125.1601562,0,.1540527.1132812.2788086.3398438.3735352.0283203,0,.0458984.0029297.0527344.0090332.1279297.0356445.2763672.0534668.4462891.0534668l.1806641-.0090332Z"/>
              </g>
            </g>
          </g>
        </g>
      </g>
    </g>
  </g>
</svg>